<?xml version="1.0" encoding="UTF-8" standalone="no"?>
<!-- Created with Inkscape (http://www.inkscape.org/) -->

<svg
   xmlns:dc="http://purl.org/dc/elements/1.1/"
   xmlns:cc="http://creativecommons.org/ns#"
   xmlns:rdf="http://www.w3.org/1999/02/22-rdf-syntax-ns#"
   xmlns:svg="http://www.w3.org/2000/svg"
   xmlns="http://www.w3.org/2000/svg"
   xmlns:xlink="http://www.w3.org/1999/xlink"
   xmlns:sodipodi="http://sodipodi.sourceforge.net/DTD/sodipodi-0.dtd"
   xmlns:inkscape="http://www.inkscape.org/namespaces/inkscape"
   id="svg2"
   version="1.1"
   inkscape:version="0.48.4 r9939"
   xml:space="preserve"
   width="293.56638"
   height="293.56775"
   viewBox="0 0 293.56638 293.56775"
   sodipodi:docname="rocket.svg"><metadata
     id="metadata8"><rdf:RDF><cc:Work
         rdf:about=""><dc:format>image/svg+xml</dc:format><dc:type
           rdf:resource="http://purl.org/dc/dcmitype/StillImage" /><dc:title></dc:title></cc:Work></rdf:RDF></metadata><defs
     id="defs6"><clipPath
       clipPathUnits="userSpaceOnUse"
       id="clipPath20"><path
         d="M 0,800 800,800 800,0 0,0 0,800 z"
         id="path22"
         inkscape:connector-curvature="0" /></clipPath><clipPath
       clipPathUnits="userSpaceOnUse"
       id="clipPath152"><path
         d="M 0,800 800,800 800,0 0,0 0,800 z"
         id="path154"
         inkscape:connector-curvature="0" /></clipPath><clipPath
       clipPathUnits="userSpaceOnUse"
       id="clipPath156"><path
         d="M 800,0 0,0 0,800 800,800 800,0 z"
         id="path158"
         inkscape:connector-curvature="0" /></clipPath><radialGradient
       fx="0"
       fy="0"
       cx="0"
       cy="0"
       r="1"
       gradientUnits="userSpaceOnUse"
       gradientTransform="matrix(563.45984,0,0,-563.45984,400,400)"
       spreadMethod="pad"
       id="radialGradient164"><stop
         style="stop-opacity:0;stop-color:#ffffff"
         offset="0"
         id="stop166" /><stop
         style="stop-opacity:0;stop-color:#ffffff"
         offset="0.4888388"
         id="stop168" /><stop
         style="stop-opacity:0.29999237;stop-color:#ffffff"
         offset="1"
         id="stop170" /></radialGradient><mask
       maskUnits="userSpaceOnUse"
       x="0"
       y="0"
       width="1"
       height="1"
       id="mask172"><g
         id="g174"><g
           id="g176"><g
             id="g178"><g
               id="g180"><path
                 d="m -32768,32767 65535,0 0,-65535 -65535,0 0,65535 z"
                 style="fill:url(#radialGradient164);stroke:none"
                 id="path182"
                 inkscape:connector-curvature="0" /></g></g></g></g></mask><radialGradient
       fx="0"
       fy="0"
       cx="0"
       cy="0"
       r="1"
       gradientUnits="userSpaceOnUse"
       gradientTransform="matrix(563.45984,0,0,-563.45984,400,400)"
       spreadMethod="pad"
       id="radialGradient184"><stop
         style="stop-opacity:1;stop-color:#ffffff"
         offset="0"
         id="stop186" /><stop
         style="stop-opacity:1;stop-color:#ffffff"
         offset="0.4888388"
         id="stop188" /><stop
         style="stop-opacity:1;stop-color:#1d1e1c"
         offset="1"
         id="stop190" /></radialGradient><clipPath
       clipPathUnits="userSpaceOnUse"
       id="clipPath222"><path
         d="M 0,800 800,800 800,0 0,0 0,800 z"
         id="path224"
         inkscape:connector-curvature="0" /></clipPath><clipPath
       clipPathUnits="userSpaceOnUse"
       id="clipPath364"><path
         d="m 599.879,617.7 c 1.907,-1.983 4.24,-3.463 6.788,-4.341 l 0,0 21.612,10.111 c 0.959,2.518 1.317,5.257 1.018,7.992 l 0,0 -29.418,-13.762 z"
         id="path366"
         inkscape:connector-curvature="0" /></clipPath><linearGradient
       x1="0"
       y1="0"
       x2="1"
       y2="0"
       gradientUnits="userSpaceOnUse"
       gradientTransform="matrix(29.418596,13.760941,13.760941,-29.418596,601.32129,614.61572)"
       spreadMethod="pad"
       id="linearGradient376"><stop
         style="stop-opacity:0;stop-color:#ffffff"
         offset="0"
         id="stop378" /><stop
         style="stop-opacity:1;stop-color:#ffffff"
         offset="1"
         id="stop380" /></linearGradient><mask
       maskUnits="userSpaceOnUse"
       x="0"
       y="0"
       width="1"
       height="1"
       id="mask382"><g
         id="g384"><g
           id="g386"><g
             id="g388"><g
               id="g390"><path
                 d="m -32768,32767 65535,0 0,-65535 -65535,0 0,65535 z"
                 style="fill:url(#linearGradient376);stroke:none"
                 id="path392"
                 inkscape:connector-curvature="0" /></g></g></g></g></mask><linearGradient
       x1="0"
       y1="0"
       x2="1"
       y2="0"
       gradientUnits="userSpaceOnUse"
       gradientTransform="matrix(29.418596,13.760941,13.760941,-29.418596,601.32129,614.61572)"
       spreadMethod="pad"
       id="linearGradient398"><stop
         style="stop-opacity:1;stop-color:#ffffff"
         offset="0"
         id="stop400" /><stop
         style="stop-opacity:1;stop-color:#ffffff"
         offset="1"
         id="stop402" /></linearGradient><clipPath
       clipPathUnits="userSpaceOnUse"
       id="clipPath410"><path
         d="m 595.376,626.542 c 0.257,-1.433 0.682,-2.858 1.33,-4.24 l 0,0 c 0.054,-0.118 0.125,-0.226 0.184,-0.341 l 0,0 31.053,14.527 c -0.053,0.12 -0.09,0.241 -0.147,0.359 l 0,0 c -0.646,1.382 -1.466,2.621 -2.401,3.739 l 0,0 -30.019,-14.044 z"
         id="path412"
         inkscape:connector-curvature="0" /></clipPath><linearGradient
       x1="0"
       y1="0"
       x2="1"
       y2="0"
       gradientUnits="userSpaceOnUse"
       gradientTransform="matrix(31.090878,14.543172,14.543172,-31.090878,595.85449,624.12158)"
       spreadMethod="pad"
       id="linearGradient422"><stop
         style="stop-opacity:0;stop-color:#ffffff"
         offset="0"
         id="stop424" /><stop
         style="stop-opacity:1;stop-color:#ffffff"
         offset="1"
         id="stop426" /></linearGradient><mask
       maskUnits="userSpaceOnUse"
       x="0"
       y="0"
       width="1"
       height="1"
       id="mask428"><g
         id="g430"><g
           id="g432"><g
             id="g434"><g
               id="g436"><path
                 d="m -32768,32767 65535,0 0,-65535 -65535,0 0,65535 z"
                 style="fill:url(#linearGradient422);stroke:none"
                 id="path438"
                 inkscape:connector-curvature="0" /></g></g></g></g></mask><linearGradient
       x1="0"
       y1="0"
       x2="1"
       y2="0"
       gradientUnits="userSpaceOnUse"
       gradientTransform="matrix(31.090878,14.543172,14.543172,-31.090878,595.85449,624.12158)"
       spreadMethod="pad"
       id="linearGradient444"><stop
         style="stop-opacity:1;stop-color:#ffffff"
         offset="0"
         id="stop446" /><stop
         style="stop-opacity:1;stop-color:#ffffff"
         offset="1"
         id="stop448" /></linearGradient><clipPath
       clipPathUnits="userSpaceOnUse"
       id="clipPath456"><path
         d="M 0,800 800,800 800,0 0,0 0,800 z"
         id="path458"
         inkscape:connector-curvature="0" /></clipPath><linearGradient
       inkscape:collect="always"
       xlink:href="#linearGradient398"
       id="linearGradient3506"
       gradientUnits="userSpaceOnUse"
       gradientTransform="matrix(29.418596,13.760941,13.760941,-29.418596,601.32129,614.61572)"
       spreadMethod="pad"
       x1="0"
       y1="0"
       x2="1"
       y2="0" /><linearGradient
       inkscape:collect="always"
       xlink:href="#linearGradient444"
       id="linearGradient3508"
       gradientUnits="userSpaceOnUse"
       gradientTransform="matrix(31.090878,14.543172,14.543172,-31.090878,595.85449,624.12158)"
       spreadMethod="pad"
       x1="0"
       y1="0"
       x2="1"
       y2="0" /><linearGradient
       inkscape:collect="always"
       xlink:href="#linearGradient444"
       id="linearGradient3647"
       gradientUnits="userSpaceOnUse"
       gradientTransform="matrix(31.090878,14.543172,14.543172,-31.090878,595.85449,624.12158)"
       spreadMethod="pad"
       x1="0"
       y1="0"
       x2="1"
       y2="0" /><linearGradient
       inkscape:collect="always"
       xlink:href="#linearGradient398"
       id="linearGradient3655"
       gradientUnits="userSpaceOnUse"
       gradientTransform="matrix(29.418596,13.760941,13.760941,-29.418596,601.32129,614.61572)"
       spreadMethod="pad"
       x1="0"
       y1="0"
       x2="1"
       y2="0" /><linearGradient
       inkscape:collect="always"
       xlink:href="#linearGradient398"
       id="linearGradient3782"
       gradientUnits="userSpaceOnUse"
       gradientTransform="matrix(29.418596,13.760941,13.760941,-29.418596,601.32129,614.61572)"
       spreadMethod="pad"
       x1="0"
       y1="0"
       x2="1"
       y2="0" /><linearGradient
       inkscape:collect="always"
       xlink:href="#linearGradient444"
       id="linearGradient3789"
       gradientUnits="userSpaceOnUse"
       gradientTransform="matrix(31.090878,14.543172,14.543172,-31.090878,595.85449,624.12158)"
       spreadMethod="pad"
       x1="0"
       y1="0"
       x2="1"
       y2="0" /><linearGradient
       inkscape:collect="always"
       xlink:href="#linearGradient444"
       id="linearGradient3836"
       gradientUnits="userSpaceOnUse"
       gradientTransform="matrix(31.090878,14.543172,14.543172,-31.090878,595.85449,624.12158)"
       spreadMethod="pad"
       x1="0"
       y1="0"
       x2="1"
       y2="0" /><linearGradient
       inkscape:collect="always"
       xlink:href="#linearGradient398"
       id="linearGradient3842"
       gradientUnits="userSpaceOnUse"
       gradientTransform="matrix(29.418596,13.760941,13.760941,-29.418596,601.32129,614.61572)"
       spreadMethod="pad"
       x1="0"
       y1="0"
       x2="1"
       y2="0" /><linearGradient
       inkscape:collect="always"
       xlink:href="#linearGradient398"
       id="linearGradient3873"
       gradientUnits="userSpaceOnUse"
       gradientTransform="matrix(29.418596,13.760941,13.760941,-29.418596,601.32129,614.61572)"
       spreadMethod="pad"
       x1="0"
       y1="0"
       x2="1"
       y2="0" /><linearGradient
       inkscape:collect="always"
       xlink:href="#linearGradient444"
       id="linearGradient3877"
       gradientUnits="userSpaceOnUse"
       gradientTransform="matrix(31.090878,14.543172,14.543172,-31.090878,595.85449,624.12158)"
       spreadMethod="pad"
       x1="0"
       y1="0"
       x2="1"
       y2="0" /><linearGradient
       inkscape:collect="always"
       xlink:href="#linearGradient444"
       id="linearGradient3881"
       gradientUnits="userSpaceOnUse"
       gradientTransform="matrix(31.090878,14.543172,14.543172,-31.090878,595.85449,624.12158)"
       spreadMethod="pad"
       x1="0"
       y1="0"
       x2="1"
       y2="0" /><linearGradient
       inkscape:collect="always"
       xlink:href="#linearGradient444"
       id="linearGradient3884"
       gradientUnits="userSpaceOnUse"
       gradientTransform="matrix(31.090878,14.543172,14.543172,-31.090878,463.65109,563.10463)"
       spreadMethod="pad"
       x1="0"
       y1="0"
       x2="1"
       y2="0" /><linearGradient
       inkscape:collect="always"
       xlink:href="#linearGradient398"
       id="linearGradient3886"
       gradientUnits="userSpaceOnUse"
       gradientTransform="matrix(29.418596,13.760941,13.760941,-29.418596,601.32129,614.61572)"
       spreadMethod="pad"
       x1="0"
       y1="0"
       x2="1"
       y2="0" /><linearGradient
       inkscape:collect="always"
       xlink:href="#linearGradient398"
       id="linearGradient3889"
       gradientUnits="userSpaceOnUse"
       gradientTransform="matrix(29.418596,13.760941,13.760941,-29.418596,469.11789,553.59877)"
       spreadMethod="pad"
       x1="0"
       y1="0"
       x2="1"
       y2="0" /></defs><sodipodi:namedview
     pagecolor="#ffffff"
     bordercolor="#666666"
     borderopacity="1"
     objecttolerance="10"
     gridtolerance="10"
     guidetolerance="10"
     inkscape:pageopacity="0"
     inkscape:pageshadow="2"
     inkscape:window-width="1920"
     inkscape:window-height="1030"
     id="namedview4"
     showgrid="false"
     fit-margin-top="0"
     fit-margin-left="0"
     fit-margin-right="0"
     fit-margin-bottom="0"
     inkscape:zoom="0.87032424"
     inkscape:cx="-257.69174"
     inkscape:cy="68.8853"
     inkscape:window-x="0"
     inkscape:window-y="0"
     inkscape:window-maximized="1"
     inkscape:current-layer="g10"><inkscape:grid
       type="xygrid"
       id="grid3510"
       empspacing="5"
       visible="true"
       enabled="true"
       snapvisiblegridlinesonly="true"
       originx="-255.48927px"
       originy="-119.63382px" /></sodipodi:namedview><g
     id="g10"
     inkscape:groupmode="layer"
     inkscape:label="02"
     transform="matrix(1.25,0,0,-1.25,-405.751,809.95581)"><path
       inkscape:connector-curvature="0"
       id="path262"
       style="fill:#f6921e;fill-opacity:1;fill-rule:nonzero;stroke:none"
       d="m 392.3015,449.33075 -13.295,18.186 -18.185,13.294 c 0,0 -25.909,-24.055 -25.909,-57.388 33.333,0 57.389,25.908 57.389,25.908" /><path
       inkscape:connector-curvature="0"
       id="path266"
       style="fill:#faaf3b;fill-opacity:1;fill-rule:nonzero;stroke:none"
       d="m 388.5388,454.47815 -9.532,13.039 -13.039,9.532 c 0,0 -18.576,-17.247 -18.576,-41.148 23.9,0 41.147,18.577 41.147,18.577" /><path
       inkscape:connector-curvature="0"
       id="path270"
       style="fill:#fbed21;fill-opacity:1;fill-rule:nonzero;stroke:none"
       d="m 385.4782,458.66375 -6.472,8.853 -8.852,6.471 c 0,0 -12.613,-11.709 -12.613,-27.936 16.227,0 27.937,12.612 27.937,12.612" /><path
       inkscape:connector-curvature="0"
       id="path274"
       style="fill:#9c2024;fill-opacity:1;fill-rule:nonzero;stroke:none"
       d="m 404.6208,546.39325 c 0,0 -12.949,6.129 -29.717,-10.638 -16.768,-16.768 -50.303,-50.303 -50.303,-50.303 0,0 27.944,20.231 44.915,3.26 16.97,-16.971 35.105,57.681 35.105,57.681" /><path
       inkscape:connector-curvature="0"
       id="path278"
       style="fill:#9c2024;fill-opacity:1;fill-rule:nonzero;stroke:none"
       d="m 457.8816,493.13145 c 0,0 6.131,-12.951 -10.638,-29.718 -16.767,-16.767 -50.301,-50.303 -50.301,-50.303 0,0 20.231,27.944 3.259,44.915 -16.97,16.97 57.68,35.106 57.68,35.106" /><path
       inkscape:connector-curvature="0"
       id="path282"
       style="fill:#e5e5e5;fill-opacity:1;fill-rule:nonzero;stroke:none"
       d="m 392.3015,449.33075 -31.48,31.48 16.595,16.596 31.481,-31.48 -16.596,-16.596 z" /><path
       inkscape:connector-curvature="0"
       id="path286"
       style="fill:#cbcbcb;fill-opacity:1;fill-rule:nonzero;stroke:none"
       d="m 361.6736,479.95865 -0.853,0.853 16.596,16.595 0.853,-0.852 -16.596,-16.596 z" /><path
       inkscape:connector-curvature="0"
       id="path290"
       style="fill:#cbcbcb;fill-opacity:1;fill-rule:nonzero;stroke:none"
       d="m 364.029,477.60215 -0.853,0.853 16.596,16.595 0.854,-0.853 -16.597,-16.595 z" /><path
       inkscape:connector-curvature="0"
       id="path294"
       style="fill:#cbcbcb;fill-opacity:1;fill-rule:nonzero;stroke:none"
       d="m 366.3855,475.24625 -0.853,0.853 16.595,16.595 0.854,-0.852 -16.596,-16.596 z" /><path
       inkscape:connector-curvature="0"
       id="path298"
       style="fill:#cbcbcb;fill-opacity:1;fill-rule:nonzero;stroke:none"
       d="m 368.7409,472.89075 -0.853,0.853 16.596,16.596 0.853,-0.854 -16.596,-16.595 z" /><path
       inkscape:connector-curvature="0"
       id="path302"
       style="fill:#cbcbcb;fill-opacity:1;fill-rule:nonzero;stroke:none"
       d="m 371.0974,470.53485 -0.853,0.853 16.596,16.595 0.853,-0.852 -16.596,-16.596 z" /><path
       inkscape:connector-curvature="0"
       id="path306"
       style="fill:#cbcbcb;fill-opacity:1;fill-rule:nonzero;stroke:none"
       d="m 373.4538,468.17835 -0.854,0.854 16.596,16.595 0.854,-0.853 -16.596,-16.596 z" /><path
       inkscape:connector-curvature="0"
       id="path310"
       style="fill:#cbcbcb;fill-opacity:1;fill-rule:nonzero;stroke:none"
       d="m 375.8093,465.82245 -0.853,0.853 16.596,16.595 0.853,-0.852 -16.596,-16.596 z" /><path
       inkscape:connector-curvature="0"
       id="path314"
       style="fill:#cbcbcb;fill-opacity:1;fill-rule:nonzero;stroke:none"
       d="m 378.1657,463.46695 -0.853,0.853 16.595,16.595 0.853,-0.853 -16.595,-16.595 z" /><path
       inkscape:connector-curvature="0"
       id="path318"
       style="fill:#cbcbcb;fill-opacity:1;fill-rule:nonzero;stroke:none"
       d="m 380.5212,461.11045 -0.854,0.853 16.597,16.596 0.853,-0.854 -16.596,-16.595 z" /><path
       inkscape:connector-curvature="0"
       id="path322"
       style="fill:#cbcbcb;fill-opacity:1;fill-rule:nonzero;stroke:none"
       d="m 382.8767,458.75455 -0.853,0.854 16.596,16.595 0.853,-0.853 -16.596,-16.596 z" /><path
       inkscape:connector-curvature="0"
       id="path326"
       style="fill:#cbcbcb;fill-opacity:1;fill-rule:nonzero;stroke:none"
       d="m 385.2331,456.39855 -0.853,0.853 16.596,16.595 0.853,-0.852 -16.596,-16.596 z" /><path
       inkscape:connector-curvature="0"
       id="path330"
       style="fill:#cbcbcb;fill-opacity:1;fill-rule:nonzero;stroke:none"
       d="m 387.5896,454.04315 -0.854,0.853 16.596,16.596 0.853,-0.854 -16.595,-16.595 z" /><path
       inkscape:connector-curvature="0"
       id="path334"
       style="fill:#cbcbcb;fill-opacity:1;fill-rule:nonzero;stroke:none"
       d="m 389.945,451.68715 -0.853,0.853 16.596,16.595 0.853,-0.852 -16.596,-16.596 z" /><path
       inkscape:connector-curvature="0"
       id="path338"
       style="fill:#cbcbcb;fill-opacity:1;fill-rule:nonzero;stroke:none"
       d="m 392.3015,449.33075 -0.854,0.853 16.596,16.595 0.854,-0.852 -16.596,-16.596 z" /><path
       inkscape:connector-curvature="0"
       id="path342"
       style="fill:#ffffff;fill-opacity:1;fill-rule:nonzero;stroke:none"
       d="m 400.1032,453.19745 c 24.046,11.896 54.941,35.056 85.178,65.291 54.108,54.108 85.591,110.352 70.319,125.623 -15.269,15.271 -71.514,-16.213 -125.623,-70.321 -30.234,-30.235 -53.394,-61.131 -65.29,-85.177 l 35.416,-35.416 z" /><path
       inkscape:connector-curvature="0"
       id="path346"
       style="fill:#c0272d;fill-opacity:1;fill-rule:nonzero;stroke:none"
       d="m 435.4001,475.25745 c 7.308,5.373 14.842,11.349 22.481,17.874 0,0 -3.626,-2.848 -29.867,23.393 -26.241,26.24 -23.393,29.869 -23.393,29.869 -6.525,-7.641 -12.502,-15.176 -17.873,-22.482 0,0 -2.716,-3.762 21.088,-27.565 23.802,-23.803 27.564,-21.089 27.564,-21.089" /><path
       inkscape:connector-curvature="0"
       id="path350"
       style="fill:#c0272d;fill-opacity:1;fill-rule:nonzero;stroke:none"
       d="m 530.7536,571.45375 c 24.355,33.938 35.052,62.452 24.847,72.657 -10.205,10.206 -38.719,-0.491 -72.658,-24.848 0,0 5.227,-15.456 18.79,-29.02 13.563,-13.563 29.021,-18.789 29.021,-18.789" /><path
       inkscape:connector-curvature="0"
       id="path354"
       style="fill:#9c2024;fill-opacity:1;fill-rule:nonzero;stroke:none"
       d="m 495.3923,553.21445 c -8.476,-8.474 -22.214,-8.474 -30.687,0 -8.475,8.474 -8.475,22.213 0,30.687 8.473,8.473 22.211,8.473 30.687,0 8.473,-8.474 8.473,-22.213 0,-30.687" /><path
       inkscape:connector-curvature="0"
       id="path358"
       style="fill:#f1f1f1;fill-opacity:1;fill-rule:nonzero;stroke:none"
       d="m 487.321,553.01285 c -8.587,-4.017 -18.801,-0.312 -22.818,8.272 -4.017,8.586 -0.313,18.802 8.272,22.818 8.586,4.017 18.802,0.313 22.817,-8.273 4.017,-8.584 0.315,-18.801 -8.271,-22.817" /><path
       inkscape:connector-curvature="0"
       id="path404"
       style="fill:url(#linearGradient3889);stroke:none"
       d="m 467.6756,556.68305 c 1.907,-1.983 4.24,-3.463 6.788,-4.341 l 0,0 21.612,10.111 c 0.959,2.518 1.317,5.257 1.018,7.992 l 0,0 -29.418,-13.762 z" /><path
       inkscape:connector-curvature="0"
       id="path450"
       style="fill:url(#linearGradient3884);stroke:none"
       d="m 463.1726,565.52505 c 0.257,-1.433 0.682,-2.858 1.33,-4.24 l 0,0 c 0.054,-0.118 0.125,-0.226 0.184,-0.341 l 0,0 31.053,14.527 c -0.053,0.12 -0.09,0.241 -0.147,0.359 l 0,0 c -0.646,1.382 -1.466,2.621 -2.401,3.739 l 0,0 -30.019,-14.044 z" /><path
       inkscape:connector-curvature="0"
       id="path462"
       style="fill:#c0272d;fill-opacity:1;fill-rule:nonzero;stroke:none"
       d="m 494.8249,581.39415 c -0.535,-0.535 -1.405,-0.535 -1.94,0 -0.536,0.536 -0.536,1.405 0,1.941 0.535,0.536 1.405,0.536 1.94,-10e-4 0.535,-0.535 0.535,-1.404 0,-1.94" /><path
       inkscape:connector-curvature="0"
       id="path466"
       style="fill:#c0272d;fill-opacity:1;fill-rule:nonzero;stroke:none"
       d="m 486.4275,587.06415 c -0.198,-0.731 -0.948,-1.167 -1.682,-0.97 -0.731,0.196 -1.166,0.949 -0.97,1.68 0.196,0.732 0.95,1.167 1.681,0.971 0.732,-0.197 1.167,-0.949 0.971,-1.681" /><path
       inkscape:connector-curvature="0"
       id="path470"
       style="fill:#c0272d;fill-opacity:1;fill-rule:nonzero;stroke:none"
       d="m 476.32,587.77405 c 0.194,-0.731 -0.239,-1.484 -0.973,-1.68 -0.731,-0.196 -1.483,0.24 -1.68,0.97 -0.196,0.732 0.238,1.484 0.971,1.682 0.734,0.195 1.486,-0.24 1.682,-0.972" /><path
       inkscape:connector-curvature="0"
       id="path474"
       style="fill:#c0272d;fill-opacity:1;fill-rule:nonzero;stroke:none"
       d="m 467.2107,583.33465 c 0.534,-0.534 0.535,-1.403 0,-1.939 -0.537,-0.536 -1.406,-0.535 -1.943,10e-4 -0.533,0.534 -0.535,1.404 0.001,1.94 0.537,0.536 1.408,0.535 1.942,-0.002" /><path
       inkscape:connector-curvature="0"
       id="path478"
       style="fill:#c0272d;fill-opacity:1;fill-rule:nonzero;stroke:none"
       d="m 461.5427,574.93765 c 0.729,-0.197 1.165,-0.948 0.968,-1.681 -0.196,-0.732 -0.948,-1.165 -1.681,-0.97 -0.729,0.196 -1.164,0.948 -0.972,1.682 0.201,0.731 0.953,1.166 1.685,0.969" /><path
       inkscape:connector-curvature="0"
       id="path482"
       style="fill:#c0272d;fill-opacity:1;fill-rule:nonzero;stroke:none"
       d="m 460.8318,564.83115 c 0.73,0.194 1.483,-0.238 1.68,-0.972 0.196,-0.732 -0.239,-1.485 -0.972,-1.68 -0.729,-0.196 -1.481,0.238 -1.682,0.969 -0.194,0.735 0.241,1.487 0.974,1.683" /><path
       inkscape:connector-curvature="0"
       id="path486"
       style="fill:#c0272d;fill-opacity:1;fill-rule:nonzero;stroke:none"
       d="m 465.2702,555.72275 c 0.535,0.533 1.403,0.535 1.94,-10e-4 0.536,-0.536 0.535,-1.405 -0.003,-1.941 -0.532,-0.534 -1.402,-0.536 -1.94,-10e-4 -0.534,0.538 -0.537,1.407 0.003,1.943" /><path
       inkscape:connector-curvature="0"
       id="path490"
       style="fill:#c0272d;fill-opacity:1;fill-rule:nonzero;stroke:none"
       d="m 473.6667,550.05435 c 0.197,0.729 0.949,1.164 1.681,0.969 0.733,-0.197 1.167,-0.948 0.968,-1.682 -0.194,-0.729 -0.946,-1.165 -1.679,-0.971 -0.732,0.197 -1.168,0.949 -0.97,1.684" /><path
       inkscape:connector-curvature="0"
       id="path494"
       style="fill:#c0272d;fill-opacity:1;fill-rule:nonzero;stroke:none"
       d="m 483.7741,549.34385 c -0.191,0.729 0.238,1.483 0.97,1.679 0.733,0.196 1.485,-0.239 1.681,-0.971 0.196,-0.73 -0.237,-1.484 -0.969,-1.682 -0.734,-0.195 -1.488,0.239 -1.682,0.974" /><path
       inkscape:connector-curvature="0"
       id="path498"
       style="fill:#c0272d;fill-opacity:1;fill-rule:nonzero;stroke:none"
       d="m 492.8825,553.78095 c -0.531,0.536 -0.533,1.404 0,1.941 0.537,0.536 1.404,0.535 1.942,-0.002 0.533,-0.533 0.536,-1.403 0,-1.941 -0.537,-0.535 -1.408,-0.535 -1.942,0.002" /><path
       inkscape:connector-curvature="0"
       id="path502"
       style="fill:#c0272d;fill-opacity:1;fill-rule:nonzero;stroke:none"
       d="m 498.5505,562.17835 c -0.729,0.198 -1.165,0.949 -0.97,1.682 0.199,0.731 0.951,1.165 1.685,0.968 0.728,-0.195 1.164,-0.946 0.97,-1.68 -0.198,-0.732 -0.954,-1.166 -1.685,-0.97" /><path
       inkscape:connector-curvature="0"
       id="path506"
       style="fill:#c0272d;fill-opacity:1;fill-rule:nonzero;stroke:none"
       d="m 499.2614,572.28525 c -0.729,-0.192 -1.483,0.24 -1.681,0.971 -0.195,0.733 0.242,1.484 0.975,1.68 0.728,0.195 1.482,-0.237 1.682,-0.97 0.192,-0.732 -0.243,-1.486 -0.976,-1.681" /><path
       inkscape:connector-curvature="0"
       id="path510"
       style="fill:#9c2024;fill-opacity:1;fill-rule:nonzero;stroke:none"
       d="m 395.1648,477.13975 c -17.19,-17.19 -32.589,-29.663 -34.394,-27.858 -1.804,1.805 10.668,17.203 27.859,34.393 17.19,17.191 32.589,29.663 34.392,27.859 1.806,-1.805 -10.667,-17.204 -27.857,-34.394" /></g></svg>