<?xml version="1.0" encoding="UTF-8" standalone="no"?>
<svg
   xmlns:dc="http://purl.org/dc/elements/1.1/"
   xmlns:cc="http://creativecommons.org/ns#"
   xmlns:rdf="http://www.w3.org/1999/02/22-rdf-syntax-ns#"
   xmlns:svg="http://www.w3.org/2000/svg"
   xmlns="http://www.w3.org/2000/svg"
   xmlns:sodipodi="http://sodipodi.sourceforge.net/DTD/sodipodi-0.dtd"
   xmlns:inkscape="http://www.inkscape.org/namespaces/inkscape"
   height="128px"
   id="Layer_1"
   style="enable-background:new 0 0 128 128;"
   version="1.1"
   viewBox="0 0 128 128"
   width="128px"
   xml:space="preserve"
   sodipodi:docname="analytics.svg"
   inkscape:version="0.92.1 unknown"><metadata
     id="metadata39"><rdf:RDF><cc:Work
         rdf:about=""><dc:format>image/svg+xml</dc:format><dc:type
           rdf:resource="http://purl.org/dc/dcmitype/StillImage" /></cc:Work></rdf:RDF></metadata><defs
     id="defs37" /><sodipodi:namedview
     pagecolor="#ffffff"
     bordercolor="#666666"
     borderopacity="1"
     objecttolerance="10"
     gridtolerance="10"
     guidetolerance="10"
     inkscape:pageopacity="0"
     inkscape:pageshadow="2"
     inkscape:window-width="640"
     inkscape:window-height="480"
     id="namedview35"
     showgrid="false"
     inkscape:zoom="1.84375"
     inkscape:cx="64"
     inkscape:cy="64"
     inkscape:window-x="0"
     inkscape:window-y="25"
     inkscape:window-maximized="0"
     inkscape:current-layer="Layer_1" /><g
     id="g32"><path
       d="M95,101c0,1.1-0.9,2-2,2H35c-1.1,0-2-0.9-2-2V27c0-1.1,0.9-2,2-2h58c1.1,0,2,0.9,2,2V101z"
       style="fill:#99602E;"
       id="path4" /><rect
       height="70"
       style="fill:#F5F5F5;"
       width="54"
       x="37"
       y="29"
       id="rect6" /><path
       d="M70,23h-2c0-2.762-2.238-5-5-5c-2.761,0-5,2.238-5,5h-2c-1.1,0-2,0.9-2,2v6c0,1.1,0.9,2,2,2h14   c1.1,0,2-0.9,2-2v-6C72,23.9,71.1,23,70,23z M63,25c-1.104,0-2-0.896-2-2s0.896-2,2-2s2,0.896,2,2S64.104,25,63,25z"
       style="fill:#263740;"
       id="path8" /><g
       id="g14"><path
         d="M51,40v10H41c0,5.521,4.477,10,10,10s10-4.479,10-10S56.523,40,51,40z"
         style="fill:#263740;"
         id="path10" /><path
         d="M50,39c-5.523,0-10,4.479-10,10h10V39z"
         style="fill:#88C5CC;"
         id="path12" /></g><rect
       height="4"
       style="fill:#88C5CC;"
       width="20"
       x="67"
       y="41"
       id="rect16" /><rect
       height="2"
       style="fill:#263740;"
       width="20"
       x="67"
       y="47"
       id="rect18" /><rect
       height="2"
       style="fill:#263740;"
       width="20"
       x="67"
       y="51"
       id="rect20" /><rect
       height="2"
       style="fill:#263740;"
       width="20"
       x="67"
       y="55"
       id="rect22" /><rect
       height="2"
       style="fill:#263740;"
       width="20"
       x="67"
       y="59"
       id="rect24" /><rect
       height="25"
       style="fill:#B3B3B3;"
       width="1"
       x="41"
       y="72"
       id="rect26" /><rect
       height="1"
       style="fill:#B3B3B3;"
       width="48"
       x="39"
       y="94"
       id="rect28" /><path
       d="M87,93H43c0,0,33-4,44-21C87,78,87,93,87,93z"
       style="fill:#E16B5A;"
       id="path30" /></g></svg>