<?xml version="1.0" encoding="UTF-8" standalone="no"?>
<svg
   xmlns:dc="http://purl.org/dc/elements/1.1/"
   xmlns:cc="http://creativecommons.org/ns#"
   xmlns:rdf="http://www.w3.org/1999/02/22-rdf-syntax-ns#"
   xmlns:svg="http://www.w3.org/2000/svg"
   xmlns="http://www.w3.org/2000/svg"
   xmlns:sodipodi="http://sodipodi.sourceforge.net/DTD/sodipodi-0.dtd"
   xmlns:inkscape="http://www.inkscape.org/namespaces/inkscape"
   enable-background="new 0 0 512 512"
   height="512px"
   id="Слой_1"
   version="1.1"
   viewBox="0 0 512 512"
   width="512px"
   xml:space="preserve"
   inkscape:version="0.92.1 unknown"
   sodipodi:docname="errors.svg"><metadata
     id="metadata99"><rdf:RDF><cc:Work
         rdf:about=""><dc:format>image/svg+xml</dc:format><dc:type
           rdf:resource="http://purl.org/dc/dcmitype/StillImage" /><dc:title></dc:title></cc:Work></rdf:RDF></metadata><defs
     id="defs97" /><sodipodi:namedview
     pagecolor="#ffffff"
     bordercolor="#666666"
     borderopacity="1"
     objecttolerance="10"
     gridtolerance="10"
     guidetolerance="10"
     inkscape:pageopacity="0"
     inkscape:pageshadow="2"
     inkscape:window-width="1920"
     inkscape:window-height="1123"
     id="namedview95"
     showgrid="false"
     inkscape:zoom="0.65186406"
     inkscape:cx="210.24083"
     inkscape:cy="274.12191"
     inkscape:window-x="0"
     inkscape:window-y="25"
     inkscape:window-maximized="1"
     inkscape:current-layer="Слой_1" /><style
     id="style332"
     type="text/css">
	.st0{fill:#D07C40;}
	.st1{fill:#EFEFEF;}
	.st2{fill:#26A6D1;}
	.st3{fill:#EFC75E;}
	.st4{fill:#E8C15B;}
	.st5{fill:#D6D9DB;}
	.st6{fill:#E2574C;}
</style><g
     id="g369"
     transform="matrix(2.6234546,0,0,1.7721411,88.098906,142.58297)"><path
       id="path334"
       d="m 0,51 64,-38 64,38 v 56 H 0 Z"
       class="st0"
       inkscape:connector-curvature="0"
       style="fill:#d07c40" /><path
       id="path336"
       d="m 14,3 h 100 c 2.2,0 4,1.8 4,4 v 70 c 0,2.2 -1.8,4 -4,4 H 14 c -2.2,0 -4,-1.8 -4,-4 V 7 c 0,-2.2 1.8,-4 4,-4 z"
       class="st1"
       inkscape:connector-curvature="0"
       style="fill:#efefef" /><path
       id="path338"
       d="M 105.6,11 112,3 h 2 c 2.2,0 4,1.8 4,4 v 4 z m -52,0 6.4,-8 h 14 l -6.4,8 z M 10,11 V 7 c 0,-2.2 1.8,-4 4,-4 h 10 l -6.4,8 z"
       class="st2"
       inkscape:connector-curvature="0"
       style="fill:#26a6d1" /><path
       id="path340"
       d="m 128,119 c 0,3.3 -2.7,6 -6,6 H 6 c -3.3,0 -6,-2.7 -6,-6 v -9 c 0,0 0,0 0,0 V 51 l 64,28 64,-28 z"
       class="st3"
       inkscape:connector-curvature="0"
       style="fill:#efc75e" /><path
       id="path342"
       d="m 128,119 c 0,3.3 -2.7,6 -6,6 H 6 c -3.3,0 -6,-2.7 -6,-6 V 107 L 128,51 Z"
       class="st4"
       inkscape:connector-curvature="0"
       style="fill:#e8c15b" /><g
       id="g348"><g
         id="g346"><path
           id="path344"
           d="m 40.7,38.5 0.8,4.2 -6.4,-10 -9,14 C 26,48 31.8,49 39,49 46.2,49 52,48 52,46.7 L 44.1,35 Z M 41.5,33 C 42.9,33 44,31.9 44,30.5 44,29.1 42.9,28 41.5,28 40.1,28 39,29.1 39,30.5 39,31.9 40.1,33 41.5,33 Z M 62,32 h 40 c 1.1,0 2,-0.9 2,-2 0,-1.1 -0.9,-2 -2,-2 H 62 c -1.1,0 -2,0.9 -2,2 0,1.1 0.9,2 2,2 z m 40,4 H 62 c -1.1,0 -2,0.9 -2,2 0,1.1 0.9,2 2,2 h 40 c 1.1,0 2,-0.9 2,-2 0,-1.1 -0.9,-2 -2,-2 z M 92,44 H 62 c -1.1,0 -2,0.9 -2,2 0,1.1 0.9,2 2,2 h 30 c 1.1,0 2,-0.9 2,-2 0,-1.1 -0.9,-2 -2,-2 z"
           class="st5"
           inkscape:connector-curvature="0"
           style="fill:#d6d9db" /></g></g><path
       id="path350"
       d="M 79.6,11 86,3 h 14 l -6.4,8 z m -52,0 6.4,-8 h 14 l -6.4,8 z"
       class="st6"
       inkscape:connector-curvature="0"
       style="fill:#e2574c" /></g></svg>