<?xml version="1.0" ?><!DOCTYPE svg  PUBLIC '-//W3C//DTD SVG 1.1//EN'  'http://www.w3.org/Graphics/SVG/1.1/DTD/svg11.dtd'><svg enable-background="new 0 0 512 512" id="Layer_1" version="1.1" viewBox="0 0 512 512" xml:space="preserve" xmlns="http://www.w3.org/2000/svg" xmlns:xlink="http://www.w3.org/1999/xlink"><g><g><circle cx="256" cy="256" fill="#84DBFF" r="254"/></g><g><g><path d="M375.9,243.7H210c-5.5,0-8.8-4.5-7.3-10L230.8,129c1.5-5.5,7.1-10,12.6-10h165.9c5.5,0,8.8,4.5,7.3,10     l-28.1,104.8C387,239.2,381.4,243.7,375.9,243.7z" fill="#324A5E"/></g><g><path d="M383.3,241.3c-2.1,1.5-4.6,2.4-7.1,2.4H209.7c-2.4,0-4.4-0.9-5.7-2.4l97-59.9l3.6-2.2     c4.1-2.5,8.7-2.5,11.5,0l2.4,2.2L383.3,241.3z" fill="#2B3B4E"/></g><g><path d="M415.4,121.4l-97,59.9l-3.6,2.2c-4.1,2.5-8.7,2.5-11.5,0l-2.4-2.2l-64.8-59.9c2.1-1.5,4.6-2.4,7-2.4     h166.5C412.1,119,414.1,119.9,415.4,121.4z" fill="#FFFFFF"/></g><g><polygon fill="#FFFFFF" points="219.8,134.7 193.3,134.7 195,128.2 221.6,128.2    "/></g><g><polygon fill="#FFFFFF" points="214.3,155.5 194.9,155.5 196.6,149 216,149    "/></g><g><polygon fill="#FFFFFF" points="209.9,171.7 183.3,171.7 185.1,165.2 211.6,165.2    "/></g><g><polygon fill="#FFFFFF" points="204.3,192.4 184.9,192.4 186.7,186 206.1,186    "/></g><g><path d="M260.7,393H94.8c-5.5,0-8.8-4.5-7.3-10l28.1-104.8c1.5-5.5,7.1-10,12.6-10h165.9c5.5,0,8.8,4.5,7.3,10     L273.3,383C271.8,388.5,266.2,393,260.7,393z" fill="#FF7058"/></g><g><path d="M268.1,390.6c-2.1,1.5-4.6,2.4-7.1,2.4H94.5c-2.4,0-4.4-0.9-5.7-2.4l97-59.9l3.6-2.2     c4.1-2.5,8.7-2.5,11.5,0l2.4,2.2L268.1,390.6z" fill="#F1543F"/></g><g><path d="M300.2,270.7l-97,59.9l-3.6,2.2c-4.1,2.5-8.7,2.5-11.5,0l-2.4-2.2l-64.8-59.9c2.1-1.5,4.6-2.4,7-2.4     h166.5C296.9,268.3,298.9,269.2,300.2,270.7z" fill="#FFFFFF"/></g><g><polygon fill="#FFFFFF" points="104.6,284 78.1,284 79.8,277.5 106.4,277.5    "/></g><g><polygon fill="#FFFFFF" points="99.1,304.8 79.7,304.8 81.4,298.3 100.8,298.3    "/></g><g><polygon fill="#FFFFFF" points="94.7,321 68.1,321 69.9,314.5 96.4,314.5    "/></g><g><polygon fill="#FFFFFF" points="89.1,341.8 69.7,341.8 71.5,335.3 90.9,335.3    "/></g></g></g></svg>