<?xml version="1.0" encoding="UTF-8" standalone="no"?>
<svg
   xmlns:dc="http://purl.org/dc/elements/1.1/"
   xmlns:cc="http://creativecommons.org/ns#"
   xmlns:rdf="http://www.w3.org/1999/02/22-rdf-syntax-ns#"
   xmlns:svg="http://www.w3.org/2000/svg"
   xmlns="http://www.w3.org/2000/svg"
   xmlns:sodipodi="http://sodipodi.sourceforge.net/DTD/sodipodi-0.dtd"
   xmlns:inkscape="http://www.inkscape.org/namespaces/inkscape"
   enable-background="new 0 0 512 512"
   id="Layer_1"
   version="1.1"
   viewBox="0 0 512 512"
   xml:space="preserve"
   sodipodi:docname="emails.svg"
   inkscape:version="0.92.1 unknown"><metadata
     id="metadata5369"><rdf:RDF><cc:Work
         rdf:about=""><dc:format>image/svg+xml</dc:format><dc:type
           rdf:resource="http://purl.org/dc/dcmitype/StillImage" /></cc:Work></rdf:RDF></metadata><defs
     id="defs5367" /><sodipodi:namedview
     pagecolor="#ffffff"
     bordercolor="#666666"
     borderopacity="1"
     objecttolerance="10"
     gridtolerance="10"
     guidetolerance="10"
     inkscape:pageopacity="0"
     inkscape:pageshadow="2"
     inkscape:window-width="959"
     inkscape:window-height="1123"
     id="namedview5365"
     showgrid="false"
     inkscape:zoom="0.65186406"
     inkscape:cx="488.49659"
     inkscape:cy="447.02589"
     inkscape:window-x="960"
     inkscape:window-y="25"
     inkscape:window-maximized="0"
     inkscape:current-layer="g5362" /><g
     id="g5362"><g
       id="g5302" /><g
       id="g5360"><g
         id="g5306"><path
           d="M 375.9,243.7 H 210 c -5.5,0 -8.8,-4.5 -7.3,-10 L 230.8,129 c 1.5,-5.5 7.1,-10 12.6,-10 h 165.9 c 5.5,0 8.8,4.5 7.3,10 l -28.1,104.8 c -1.5,5.4 -7.1,9.9 -12.6,9.9 z"
           id="path5304"
           inkscape:connector-curvature="0"
           style="fill:#2095cd;fill-opacity:1" /></g><g
         id="g5310"><path
           d="m 383.3,241.3 c -2.1,1.5 -4.6,2.4 -7.1,2.4 H 209.7 c -2.4,0 -4.4,-0.9 -5.7,-2.4 l 97,-59.9 3.6,-2.2 c 4.1,-2.5 8.7,-2.5 11.5,0 l 2.4,2.2 z"
           id="path5308"
           inkscape:connector-curvature="0"
           style="fill:#2095cd;fill-opacity:1" /></g><g
         id="g5314"><path
           d="m 415.4,121.4 -97,59.9 -3.6,2.2 c -4.1,2.5 -8.7,2.5 -11.5,0 l -2.4,-2.2 -64.8,-59.9 c 2.1,-1.5 4.6,-2.4 7,-2.4 h 166.5 c 2.5,0 4.5,0.9 5.8,2.4 z"
           id="path5312"
           inkscape:connector-curvature="0"
           style="fill:#ffffff" /></g><g
         id="g5318"><polygon
           points="219.8,134.7 193.3,134.7 195,128.2 221.6,128.2 "
           id="polygon5316"
           style="fill:#ffffff" /></g><g
         id="g5322"><polygon
           points="214.3,155.5 194.9,155.5 196.6,149 216,149 "
           id="polygon5320"
           style="fill:#ffffff" /></g><g
         id="g5326"><polygon
           points="209.9,171.7 183.3,171.7 185.1,165.2 211.6,165.2 "
           id="polygon5324"
           style="fill:#ffffff" /></g><g
         id="g5330"><polygon
           points="204.3,192.4 184.9,192.4 186.7,186 206.1,186 "
           id="polygon5328"
           style="fill:#ffffff" /></g><g
         id="g5334"><path
           d="M 260.7,393 H 94.8 c -5.5,0 -8.8,-4.5 -7.3,-10 l 28.1,-104.8 c 1.5,-5.5 7.1,-10 12.6,-10 h 165.9 c 5.5,0 8.8,4.5 7.3,10 L 273.3,383 c -1.5,5.5 -7.1,10 -12.6,10 z"
           id="path5332"
           inkscape:connector-curvature="0"
           style="fill:#ff7058" /></g><g
         id="g5338"><path
           d="m 268.1,390.6 c -2.1,1.5 -4.6,2.4 -7.1,2.4 H 94.5 c -2.4,0 -4.4,-0.9 -5.7,-2.4 l 97,-59.9 3.6,-2.2 c 4.1,-2.5 8.7,-2.5 11.5,0 l 2.4,2.2 z"
           id="path5336"
           inkscape:connector-curvature="0"
           style="fill:#f1543f" /></g><g
         id="g5342"><path
           d="m 300.2,270.7 -97,59.9 -3.6,2.2 c -4.1,2.5 -8.7,2.5 -11.5,0 l -2.4,-2.2 -64.8,-59.9 c 2.1,-1.5 4.6,-2.4 7,-2.4 h 166.5 c 2.5,0 4.5,0.9 5.8,2.4 z"
           id="path5340"
           inkscape:connector-curvature="0"
           style="fill:#ffffff" /></g><g
         id="g5346"><polygon
           points="104.6,284 78.1,284 79.8,277.5 106.4,277.5 "
           id="polygon5344"
           style="fill:#ffffff" /></g><g
         id="g5350"><polygon
           points="99.1,304.8 79.7,304.8 81.4,298.3 100.8,298.3 "
           id="polygon5348"
           style="fill:#ffffff" /></g><g
         id="g5354"><polygon
           points="94.7,321 68.1,321 69.9,314.5 96.4,314.5 "
           id="polygon5352"
           style="fill:#ffffff" /></g><g
         id="g5358"><polygon
           points="89.1,341.8 69.7,341.8 71.5,335.3 90.9,335.3 "
           id="polygon5356"
           style="fill:#ffffff" /></g></g><path
       style="fill:#03a9f4;fill-opacity:1;stroke:none;stroke-width:3.79661012;stroke-linecap:round;stroke-linejoin:round;stroke-miterlimit:4;stroke-dasharray:none;stroke-opacity:1"
       d="m 206.54132,242.89076 c -2.54654,-1.03222 -2.81917,-1.45871 4.00435,-5.79694 1.7007,-1.08126 3.84222,-2.40553 6.49923,-4.04274 7.06051,-4.35058 23.82033,-14.69541 37.24406,-22.9885 13.42373,-8.29309 29.36288,-18.12764 35.42032,-21.85456 l 11.01355,-6.77621 1.46103,1.36192 c 2.20742,2.05768 3.55582,2.57921 6.66847,2.57921 2.22684,0 3.58563,-0.41091 6.30915,-1.90795 l 3.47108,-1.90794 1.78373,1.50116 c 1.43076,1.20411 50.95107,46.88762 60.51674,55.82794 l 2.44068,2.28113 -2.44068,1.10786 c -2.42526,1.10087 -2.98039,1.10773 -87.86441,1.0854 -46.98305,-0.0123 -85.92034,-0.22376 -86.5273,-0.46978 z"
       id="path37"
       inkscape:connector-curvature="0"
       sodipodi:nodetypes="cscsccsscccccccc" /><path
       style="fill:#22a7f0;stroke:none;stroke-width:0.54237288px;stroke-linecap:butt;stroke-linejoin:miter;stroke-opacity:1;fill-opacity:0"
       d="m 205.99066,242.50526 c -2.4034,-0.96979 -2.49924,-0.90607 50.03389,-33.26562 22.37289,-13.78132 41.53529,-25.60851 42.58313,-26.28263 l 1.90515,-1.22567 2.37183,1.8208 c 2.07357,1.59183 2.77374,1.8208 5.56794,1.8208 2.49915,0 3.92548,-0.36819 6.54087,-1.68843 2.97784,-1.50321 3.47452,-1.60734 4.52763,-0.94916 2.44571,1.52855 63.16573,58.03375 62.87247,58.50825 -0.93597,1.51443 -6.61327,1.61376 -90.03003,1.57502 -47.13221,-0.0219 -86,-0.1629 -86.37288,-0.31336 z"
       id="path41"
       inkscape:connector-curvature="0" /><path
       style="fill:#48bcef;stroke:none;stroke-width:0.54237288px;stroke-linecap:butt;stroke-linejoin:miter;stroke-opacity:1;fill-opacity:1"
       d="m 203.77718,240.40346 c -1.95258,-2.35271 -1.65592,-3.68482 12.98502,-58.30693 7.79262,-29.07255 14.55797,-53.75321 15.0341,-54.84591 0.47614,-1.0927 1.66759,-2.76394 2.64767,-3.71386 l 1.78196,-1.72715 32.05524,29.6597 c 17.63039,16.31284 32.05525,29.74268 32.05525,29.84409 0,0.10141 -1.52543,1.10386 -3.38983,2.22766 -16.15682,9.73876 -87.52945,53.95377 -89.71292,55.57674 -2.39432,1.77969 -2.89265,1.96505 -3.45649,1.28566 z"
       id="path848"
       inkscape:connector-curvature="0" /><path
       style="fill:#48bcef;stroke:none;stroke-width:0.54237288px;stroke-linecap:butt;stroke-linejoin:miter;stroke-opacity:1;fill-opacity:1"
       d="m 371.11608,229.52146 c -6.56271,-6.10922 -21.00321,-19.44851 -32.08999,-29.64288 -17.21634,-15.83053 -20.02593,-18.62367 -19.25423,-19.14147 4.02149,-2.69836 94.41353,-58.24454 95.00007,-58.37782 0.4693,-0.10665 1.03191,0.62464 1.46963,1.91027 0.60159,1.76688 0.57937,2.59015 -0.14636,5.42373 -3.30589,12.90765 -27.54425,103.03006 -28.17812,104.77113 -0.77637,2.13249 -3.77621,6.26264 -4.5015,6.19763 -0.20201,-0.0181 -5.73679,-5.03137 -12.2995,-11.14059 z"
       id="path850"
       inkscape:connector-curvature="0" /></g></svg>