<?xml version="1.0" encoding="UTF-8" standalone="no"?>
<svg
   xmlns:dc="http://purl.org/dc/elements/1.1/"
   xmlns:cc="http://creativecommons.org/ns#"
   xmlns:rdf="http://www.w3.org/1999/02/22-rdf-syntax-ns#"
   xmlns:svg="http://www.w3.org/2000/svg"
   xmlns="http://www.w3.org/2000/svg"
   xmlns:sodipodi="http://sodipodi.sourceforge.net/DTD/sodipodi-0.dtd"
   xmlns:inkscape="http://www.inkscape.org/namespaces/inkscape"
   enable-background="new 0 0 360 360"
   height="360px"
   id="Layer_1"
   version="1.1"
   viewBox="0 0 360 360"
   width="360px"
   xml:space="preserve"
   sodipodi:docname="monitoring.svg"
   inkscape:version="0.92.1 unknown"><metadata
     id="metadata31"><rdf:RDF><cc:Work
         rdf:about=""><dc:format>image/svg+xml</dc:format><dc:type
           rdf:resource="http://purl.org/dc/dcmitype/StillImage" /></cc:Work></rdf:RDF></metadata><defs
     id="defs29" /><sodipodi:namedview
     pagecolor="#ffffff"
     bordercolor="#666666"
     borderopacity="1"
     objecttolerance="10"
     gridtolerance="10"
     guidetolerance="10"
     inkscape:pageopacity="0"
     inkscape:pageshadow="2"
     inkscape:window-width="640"
     inkscape:window-height="480"
     id="namedview27"
     showgrid="false"
     inkscape:zoom="0.65555556"
     inkscape:cx="180"
     inkscape:cy="180"
     inkscape:window-x="0"
     inkscape:window-y="25"
     inkscape:window-maximized="0"
     inkscape:current-layer="Layer_1" /><g
     id="g24"><g
       id="g22"><g
         id="g20"><path
           clip-rule="evenodd"
           d="M231.814,247.154l20.631-20.631l40.895,40.896      c5.697,5.696,5.697,14.934,0,20.63c-5.695,5.696-14.934,5.696-20.629,0L231.814,247.154z"
           fill="#A86E4D"
           fill-rule="evenodd"
           id="path4" /><path
           clip-rule="evenodd"
           d="M242.129,236.839l10.316-10.315l40.895,40.896      c5.697,5.696,5.697,14.934,0,20.63L242.129,236.839z"
           fill="#8E6046"
           fill-rule="evenodd"
           id="path6" /><rect
           clip-rule="evenodd"
           fill="#5C6D80"
           fill-rule="evenodd"
           height="12.328"
           transform="matrix(-0.7071 0.7071 -0.7071 -0.7071 563.1729 225.8004)"
           width="28.88"
           x="220.383"
           y="223.369"
           id="rect8" /><circle
           clip-rule="evenodd"
           cx="165.398"
           cy="160.108"
           fill="#5C6D80"
           fill-rule="evenodd"
           r="93.786"
           id="circle10" /><path
           clip-rule="evenodd"
           d="M99.082,93.791c22.551-22.551,53.729-31.211,82.91-25.991      v184.617c-29.181,5.219-60.359-3.44-82.91-25.992C62.456,189.799,62.456,130.417,99.082,93.791z"
           fill="#8697A7"
           fill-rule="evenodd"
           id="path12" /><path
           clip-rule="evenodd"
           d="M165.399,237.104c42.408,0,76.996-34.588,76.996-76.996      c0-42.408-34.588-76.996-76.996-76.996S88.403,117.7,88.403,160.108C88.403,202.516,122.991,237.104,165.399,237.104z"
           fill="#CFFFFF"
           fill-rule="evenodd"
           id="path14" /><path
           clip-rule="evenodd"
           d="M179.799,84.462c35.64,6.744,62.595,38.045,62.595,75.646      c0,36.827-25.855,67.609-60.402,75.197c15.58-20.578,24.828-46.217,24.828-74.017      C206.82,132.207,196.699,105.495,179.799,84.462z"
           fill="#B1EEF4"
           fill-rule="evenodd"
           id="path16" /><path
           clip-rule="evenodd"
           d="M47.38,157.553l52.516-0.031l10.958-15.519      c1.652-2.349,4.896-2.914,7.246-1.262c1.022,0.719,1.706,1.739,2.017,2.856l7.824,23.391l15.475-62.833      c0.686-2.788,3.502-4.492,6.289-3.806c2.072,0.509,3.545,2.195,3.883,4.172h0.004l14.312,83.618l14.039-62      c0.629-2.799,3.41-4.558,6.207-3.928c1.762,0.396,3.109,1.641,3.711,3.207l13.207,32.081h8.508      c1.795-3.145,5.178-5.265,9.057-5.265c5.756,0,10.422,4.665,10.422,10.421c0,5.755-4.666,10.42-10.422,10.42      c-3.834,0-7.186-2.071-8.994-5.156h-12.041v-0.016c-2.043,0-3.979-1.214-4.803-3.22l-8.34-20.256l-16.128,71.226      c-0.349,2.133-2.012,3.905-4.26,4.289c-2.833,0.482-5.521-1.422-6.004-4.254l-14.518-84.822l-13.794,56.011l-0.004-0.001      c-0.413,1.669-1.644,3.1-3.396,3.685c-2.72,0.91-5.664-0.557-6.574-3.276l-10.338-30.908l-6.584,9.325l-0.009-0.006      c-0.939,1.333-2.491,2.205-4.245,2.205l-55.219,0.032V157.553z"
           fill="#E64545"
           fill-rule="evenodd"
           id="path18" /></g></g></g></svg>