<?xml version="1.0" ?><!DOCTYPE svg  PUBLIC '-//W3C//DTD SVG 1.1//EN'  'http://www.w3.org/Graphics/SVG/1.1/DTD/svg11.dtd'><svg enable-background="new 0 0 512 512" id="Layer_1" version="1.1" viewBox="0 0 512 512" xml:space="preserve" xmlns="http://www.w3.org/2000/svg" xmlns:xlink="http://www.w3.org/1999/xlink"><g><circle cx="256" cy="256" fill="#84DBFF" r="253"/><g><g><g><path d="M409.5,330.7c-0.7,1.5-1.5,2.9-2.2,4.3C408.9,334,409.6,332.6,409.5,330.7z" fill="#ACB3BA"/><path d="M426.5,247.3c-0.1-2.3-0.3-4.6-0.5-7c-0.2-0.8-0.5-1.6-0.8-2.4c-2.3-4.9-7.7-8-8.3-14      c0-0.4-0.5-0.8-0.7-1.2c-1.3-1.7-2.7-3.3-4-5c-1.3-1.6-2.9-4.9-3.6-4.7c-3.2,0.9-3.9-1.6-5.5-3.1c1.5,3.1,3,6,4.6,8.9      c1.1,2.1,2.2,4.2,3.2,6.3c1,2,1.8,4,2.8,5.9c0.7,1.4,1.3,2.7,2.1,4c0.5,0.8,1.5,1.4,1.7,2.1C418.2,242.8,423,244.4,426.5,247.3z      " fill="#ACB3BA"/><path d="M393.5,182c2.3,0.5,5.1,0.8,7.3,0c3-1.1,5.8-1.4,8.6-0.7c-1-2.1-2.1-4.2-3.2-6.3c-0.1,0-0.3,0.1-0.4,0.1      c-0.4-0.6-1-1.1-1.4-1.8c-0.3-0.6-0.1-1.6-0.5-2c-1.9-1.7-5.9-1.1-7.5,1.1c-1.4,1.9-2.7,3.8-4,5.7      C391.2,179.9,391.9,181.6,393.5,182z" fill="#ACB3BA"/><path d="M405,282.2c0.8-1.1,0.8-2.8,1.1-4.2c-1.1-0.1-2.7-0.6-3.1-0.1c-1.1,1.4-1.7,3.2-2.6,4.9      c0.4,0.4,0.7,0.8,1.1,1.2C402.7,283.3,404.3,283.1,405,282.2z" fill="#ACB3BA"/><path d="M403.1,337.3c1.5,6.1-3.6,9-6.5,12.9c-3.8,5-9.1,7.1-15.5,6.6c-2.1-0.2-4.3,0.6-6.4,1      c-3.7,0.7-5-1.1-5.4-4.8c-0.3-2.9-1.7-6.3-3.8-8.2c-3.3-3.1-4.2-7.1-4.5-10.9c-0.3-4.5-2.8-7.7-4.7-11.3      c-2.5-4.6-2.3-11.1,1.2-15.1c1.8-2,1.9-3.8,1-6.3c-1.3-3.3-1.8-6.8-2.9-10.1c-0.4-1.3-1-2.9-2-3.5c-5.7-3.9-5.6-9.1-3.8-14.7      c0.9-2.7-0.4-4.3-2.5-5.3c-0.9-0.4-2.3-0.3-3.4,0c-2.1,0.5-3.4,0.2-4.3-2.1c-1-2.5-4.8-3.3-8.6-1.7c-4.3,1.7-8.3,3.6-13.2,2.3      c-1.5-0.4-3.5,0.3-5,1c-2.6,1.3-4.6,0.6-6.7-1.1c-1.3-1.1-2.9-1.9-4.1-3.2c-3.3-3.5-6.1-7.6-9.8-10.6c-3.1-2.4-2.7-5.8-4.1-8.5      c2.5-4.7,3.4-9.4,0.8-14.4c-0.3-0.6-0.5-1.5-0.2-1.9c3.7-5.3,5.2-12.3,12.2-15.1c2.5-1,4.4-2.7,4.4-6.3c0-1.9,2.7-3.9,4.4-5.7      c1.1-1.2,2.7-2.1,3.6-3.4c0.6-0.8,0.8-2.6,0.3-3.2c-0.8-0.9-2.3-1.3-3.6-1.7c-0.6-0.2-1.4,0-2,0c-1.5-3-1.6-5.7-0.4-8.7      c0.5-1.4-0.3-3.3-0.7-5.9c2.7-0.1,5.4-0.2,8.2-0.2c1.5,0,3,0.2,4.5,0.2c2.2,0,4.9,1.3,5.7-2.5c0.6-3.1-1.2-5.4-4.6-6.9      c-1.1-0.5-2.4-0.9-3.6-1.3c1.7-3.6,6.4,1.4,7.2-3.5c3,1.5,5.2,0,7.2-2.1c0.5-0.5,1.2-0.9,1.9-1.2c2.8-1.1,5.2-2.5,7.3-4.9      c0.8-1,3.2-1.2,4.8-1.1c2.8,0.2,2.5-1.4,2-3.1c-1.4-4.5-1.4-4.5,4.7-6.2c-0.9,1.9-1.5,3.2-2,4.6c-0.2,0.6-0.4,1.6-0.2,1.8      c1.2,0.8,2.7,2,3.8,1.8c4.7-0.9,9.6,0.8,14.3-1.4c2.2-1,5.3-0.2,7.5-0.2c0.6-2.5,0.5-4.2,1.4-5.4c0.5-0.7,2.3-0.6,3.5-0.6      c1-0.1,2,0.1,3,0.2c-0.4-0.9-0.9-1.8-1.3-2.7c-0.1-0.3-0.3-0.6-1-1.8c0.2,0,0.5,0,0.7-0.1c-0.6-0.6-1.2-1.2-1.8-1.8      c-0.6-0.2-1.2-0.5-1.8-1c-0.6-0.5-1-1.3-1.3-2.2c-1.5-1.6-3.1-3.1-4.7-4.6c-0.2,0.1-0.4,0.1-0.6,0.2c-1.6,1.3-3.5,2.6-4.5,4.3      c-0.3,0.5,1.8,2.5,3,4.1c-0.1,0.2-0.4,1-0.9,1.1c-2.8,0.8-4.1,2.7-4.3,5.5c0,0.6-1,1.1-1.6,1.6c-0.1,0.1-0.5,0-0.7,0.1      c-1.9,0.4-4.2,1.8-5.5,1.1c-1.5-0.8-2-3.4-3.1-5.1c-0.6-1.1-1.4-2.1-2.2-3.4c-1.9,0.9-3.7,2.3-5.6,2.5c-1.9,0.2-5.1-0.1-5.7-1.2      c-2.6-5.1-2-7.2,1.5-8.8c2.8-1.2,5.9-1.9,8.5-3.5c3.7-2.3,7.2-5,10.8-7.6c-19-15-41.4-26.1-65.7-32c-6.3,1.6-12.6,3.3-18.4,7.4      c2.9,0.8,5.3,1.5,7.7,2.2c0,0.3,0,0.5,0,0.8c-2.5,0-5,0-7.5,0c0,0.2,0,0.4,0,0.7c1.6,0.6,3.2,1.3,4.7,1.9      c-0.1,0.3-0.2,0.6-0.3,0.9c-0.9,0.1-1.7,0.2-2.6,0.3c0,0.2-0.1,0.4-0.1,0.6c0.9,0.3,1.8,0.6,3.1,1.1c-2.5,1.2-4.8,2.2-7.3,3.4      c0.5,1.6,1.1,3.4,2,6.3c-3.1-0.9-5.8-1.6-8.6-2.4c-0.3,0.6-0.7,1.4-1,2.1c1.7,0.2,3.6,0.4,6.4,0.8c-6.4,3.7-12.7,3.7-18.8,4.6      c-1.8,0.3-3.5,1.3-5.3,1.9c-3,1-5.9,2.1-8.9,3c-2.5,0.7-5,1.2-7.6,1.8c0.2,0.3,0.5,0.6,0.7,0.9c-1.2,1.5-2.5,2.9-3.5,4.5      c-0.8,1.3-1.3,2.8-1.9,4.2c-1.2,2.9-3.2,2.6-5.6,1.5c-1.5-0.7-3.2-1-4.8-1.4c-5.2-1.1-8.2-4.9-11.2-8.8      c-0.6-0.8-1.5-1.5-1.9-2.3c-0.7-1.3-1.8-2.9-1.5-4c0.3-1.1,2.1-1.8,3.3-2.6c1.1-0.7,2.4-1.4,3.6-2.1c-0.2-0.3-0.3-0.7-0.5-1      c-2.9,0.5-5.8,0.9-8.6,1.4c1.3-5.6,4.8-2.3,7.6-3c-2.8-3-6.1-2.7-10.3-1.3c1.2-1.8,1.7-2.6,2.5-3.8c-2.5-1.7-5-3.4-7.4-5.2      c-3.4-2.5-7.2-2.5-11.1-2.6c-6.9,3.3-13.6,7.1-19.9,11.2c2.7,0.8,5.5,1.7,8.1,2.7c0.6,0.2,0.6,1.9,1.1,3.8      c3.4,1.1,8.1,2.5,12.8,4c-3.7,6.8-8.3,2-12.7,0.6c-0.7,2.9,1,3.3,2.9,3.8c3,0.8,3.6,2.2,2.3,4.8c-2-0.4-4-0.9-6.9-1.5      c2,1.2,3.1,2,4.3,2.7c-4.7-0.1-9.2-0.3-13.3-3c-2.9-1.9-6-3.1-9.7-2c-1.4,0.4-3,0.1-4.7-0.6c4.2-2.3,10.1-0.7,12.6-7      c-1.5-0.7-3.3-2.1-5.3-2.5c-11.2,8.3-21.4,18-30.3,28.8c4.2,1.1,8.6,2.3,13.1,3.4c-0.5,3.6,1.8,6.2,5.1,8.2      c4.4-1.6,4.4-1.6,2-7.2c2-1.6,5-2.8,5.5-4.7c0.4-1.6-2.1-3.9-3.4-6c4.4-1.1-0.4-5.1,1.6-7.8c6.2-0.7,12.4,0.4,18.4,4      c1.8,6.7,4.1,7,12.3,0.3c2.2,3.2,3.9,6.8,6.5,9.4c1.8,1.8,4.7,2.8,7.3,3.6c6.1,1.8,7.9,5.7,4.5,11.3c2.1,0.6,4,1.2,5.8,1.8      c0.8,1.1,1.6,2.3,2.3,3.5c0.3,0.5,0.2,1.2,0.1,1.8c-0.1,0.2-0.9,0.5-1.1,0.4c-4-2.8-8.6-1.2-13.2-2.2c1.8-2.7,3.6-5.4,6.1-9.1      c-2.4,0.8-3.9,1.3-5.4,1.7c-2.4,0.6-4.8,1.7-7.2,1.6c-5.6-0.2-11-0.5-15.5,3.5c3.2-0.4,6.6-0.8,10.3-1.3      c-0.7,2.1-1.2,3.2-1.4,4.3c-0.1,0.6,0.1,1.8,0.4,1.9c2.3,0.8,4.7,1.5,7.2,1.9c0.5,0.1,1.3-1.5,2.1-2.5c0.6,0.8,1,1.5,1.5,2.2      c-4,1.8-7.9,3.6-11.9,5.2c-0.5,0.2-1.3-0.4-2-0.6c0.2-0.6,0.3-1.3,0.7-1.7c0.5-0.5,1.3-0.9,1.7-2c-4,1.5-8.1,2.8-11.9,4.6      c-1,0.5-1.2,2.6-2,4.5c-0.3,0.1-1.4,0.5-2.5,0.7c-3.8,0.7-5.4,3.6-7.1,6.6c-1.2,2-2.4,3.8-1.8,6.3c0.1,0.6-1.4,1.8-2.4,2.5      c-2.7,1.8-5.5,3.2-8.1,5.1c-2.1,1.5-3.1,3.7-1.8,6.4c0.8,1.8,1.8,3.6,2.2,5.4c0.3,1.6-0.1,3.3-0.2,5c-0.6,0.1-1.1,0.2-1.7,0.3      c-1.3-2.7-2.7-5.2-3.8-8c-0.9-2.2-1.6-3.6-4.6-3.4c-2.6,0.2-5.2-0.7-7.9-1.1c-0.6-0.1-1.5-0.2-1.7,0.1c-3,4.5-6.9,1.3-10.4,1.4      c-4.7,0-8.8,4.2-8.7,8.8c0,2.2-1.2,4.5-0.8,6.5c0.7,3.2,2.1,6.5,3.9,9.2c0.8,1.2,3.4,1.5,5.1,1.5c3.7,0.1,6.7-0.6,7.7-5.3      c0.3-1.3,4.8-1.6,8.2-2.6c-1.7,5.4-3.1,9.4-4.5,13.9c2.6,0,4.9,0,7.3,0c4.5,0,5.4,1.2,4.7,5.6c-0.5,3.5-1.5,7.3,2.7,9.4      c1.2,0.6,3,1.1,4,0.6c3.3-1.7,5.7-0.8,8.5,2.2c2.1-6.3,7.9-7.2,13.1-9.9c-0.4,1.3-0.7,2.2-1.2,4c1.9-1.1,3.1-1.7,4.1-2.2      c3.6,1.1,7.3,2.4,11.1,3.6c0.3,0.1,0.8,0.1,1-0.1c4.3-2.8,6.3,1.4,9.4,2.8c4.7,2.2,7,8.2,13.9,7.4c3.7-0.5,7.1,2.3,9.3,6.5      c1.9,3.7,1.2,6.1-1.9,8.7c0.3,0.2,0.6,0.3,0.9,0.5c0.6-0.2,1.2-0.5,1.8-0.7c1.1-0.4,2.6-1.4,3.2-1c3.3,2.4,8.2,0.7,11.1,4.9      c1,1.4,4.9,0.7,7.5,1.2c1.7,0.3,3.5,0.9,5.1,1.7c2.3,1.1,4.6,2.3,6.8,3.6c0.6,0.4,1.2,1,1.5,1.7c1.2,3.1,1,6.1-1.4,8.7      c-2.4,2.6-4.9,5.2-7,8c-0.8,1.1-0.9,2.8-0.8,4.3c0.4,6-2,11.2-5.1,16.1c-0.7,1.1-2.6,2-4,2.1c-4.6,0.5-8.3,2.5-11.6,5.5      c-0.6,0.6-1.6,1.7-1.4,2.2c1.6,4.2-1.4,7.5-3.8,8.8c-3.8,2-4.3,5.8-6.8,8.5c-2.7,2.9-5.3,3.2-8.7,2.1c-1-0.3-2-0.5-2.8-0.7      c0.7,1.2,1.5,2.4,2,3.6c1.3,3.1,0.3,5.3-2.9,6.1c-2.7,0.6-5.4,0.9-8.2,1.3c-0.8,5.3-0.9,5.3-6.1,4.3c-0.4,2.5-0.6,5-1.2,7.5      c-0.2,0.8-1.2,1.5-2,2.1c-1,0.8-2.1,1.6-3.1,2.4c1,0.8,2.1,1.5,3.1,2.3c0.3,0.2,0.6,0.4,1.1,0.7c-2,2.1-3.5,4.8-5.8,5.8      c-4.2,1.8-2,4.5-1,6.1c1.4,2.1,3.9,3.5,5.8,5.1c-0.7,0.3-1.3,0.5-1.9,0.6c24.6,13.7,52.8,21.5,82.9,21.5      c65.7,0,122.8-37.2,151.3-91.6c-0.5,0.3-1.1,0.7-1.9,1C404.7,336.4,404,336.8,403.1,337.3z" fill="#ACB3BA"/><path d="M379.9,185.5c1.1,1.2,2.3,2.6,3.4,3.9c-1.1,1.3-2.2,2.5-3.7,4.1c-0.8-0.7-2.3-1.3-2.4-2.2      c-0.5-4-6-5.3-5-10c0.1-0.4-1.1-1.1-1.7-1.5c-3.9-2.3-7.8-4.7-11.7-6.9c-0.6-0.3-2.1-0.2-2.3,0.2c-0.4,0.6-0.4,2.1,0.1,2.5      c2.3,1.9,4.8,3.6,7.3,5.3c2,1.3,4.1,2.5,6.1,3.7c-0.1,0.1-0.2,0.3-0.2,0.4c-1.1-0.2-2.2-0.3-3.5-0.5c1,3.8,0.2,5.1-3.1,5.4      c2.2-1.6,2.2-3.1-0.1-4.7c-1.1-0.8-2.3-1.5-3.4-2.3c-2.8-2-5.5-4.3-8.4-6.1c-1.1-0.7-3.1-1.1-4.2-0.6c-2.9,1.1-5.5,2.6-8.8,1.6      c-0.7-0.2-2.8,1.1-2.8,1.5c0.3,2.8-2,2.7-3.4,3.6c-1.6,1.1-3.6,2.2-4.2,3.8c-1.9,5.1-2.6,5.9-8,6.4c-1.4,0.1-2.8,0.9-4.2,1.4      c0.1,0.6,0.1,1.1,0.2,1.7c2.8,0.1,6.2,1.3,8.4,0.2c7.1-3.8,14.6-3.6,22.1-3.7c2.2,0,4.4-0.2,7-0.3c-0.6,2.9-1,5.1-1.5,8.1      c1.5,0.4,4,1,6.4,1.7c1.2,0.3,2.5,0.5,3.6,1.1c2.9,1.4,5.7,3,8.6,4.4c1.7,0.9,2.9,0.3,3.3-1.7c0.6-3.3,3.1-4.7,6.1-3.5      c2,0.8,3.9,1.9,6,2.3c3.4,0.7,6.9,1,10.4,1.3c2,0.2,4,0,6-0.2c1.7-0.2,4.4-0.1,4.9-1.1c1.9-3.4,3.1-7.1,4.6-10.7      c-0.4-0.3-0.7-0.7-1.1-1c-1.8,0.5-3.6,1.3-5.3,1.3c-1.8,0-3.6-1-5.5-1.4c-0.4-0.1-0.9,0.6-1.4,0.8c-0.6,0.2-1.3,0.6-1.9,0.5      c-3.3-0.4-7.7-4.7-8.1-7.9c-0.3-2.7-2.2-3.7-4.6-2.5C382.4,184.2,381.4,184.7,379.9,185.5z" fill="#ACB3BA"/><path d="M408,325.7c0.2,0.9,0.7,1.7,1,2.6c0.3,0.9,0.4,1.7,0.5,2.4c1.9-3.9,3.7-8,5.3-12.1      c-2.3,1.5-4.4,3.4-6.6,5.2C407.8,324.2,407.9,325.1,408,325.7z" fill="#ACB3BA"/><path d="M275.4,87.6c-2.7,0.2-5.4,0.5-8.9,0.8c3.4,1.7,6.9-2.7,9,1.4c5-0.3,10.1-0.6,15.2-1      c-8.5-1.8-17.3-2.9-26.2-3.3c3.6,0.4,7.3,0.8,10.9,1.1C275.4,87,275.4,87.3,275.4,87.6z" fill="#ACB3BA"/><path d="M116.3,169.9c1.7-0.2,3.4-0.4,5.1-0.7c0.7-0.1,1.7-0.8,1.8-0.7c2.5,3.4,5.8,0.6,8.7,1.5      C129.6,164.1,124.5,163.9,116.3,169.9z" fill="#ACB3BA"/><path d="M133,171.9c1.5,2.1,2.9,4.1,4.7,6.6c0.8-1.9,1.3-3.2,1.8-4.5c1.1,0.2,2,0.3,3.2,0.5      C141,171.6,135.2,170.3,133,171.9z" fill="#ACB3BA"/><path d="M157.3,315.6c-5.8-2.1-6.9-7.7-9.4-12.1c-2.2-3.9-3.7-8-7-11.3c-2.4-2.4-1.1-5.5,2.1-7.3      c-2.8-2.5-2.4-6.3,0.5-9.1c6.1-5.9,7-8.2,2.9-16.8c-0.3-0.7-1.8-1.7-1.9-1.6c-1.2,1-2.2,2.1-3.4,3.5c-3.4-1.8-7.3-3.6-10.9-5.9      c-1-0.6-1.2-2.5-1.9-3.7c-2.1-3.7-6.2-3.9-9.6-5.4c-2.2-0.9-4.3-2-6.2-3.4c-1.9-1.4-3.5-2.3-6-1.2c-1.3,0.6-3.2,0.3-4.6-0.2      c-5.1-2.2-10.2-4.5-15.1-7.1c-0.9,7.3-1.5,14.7-1.5,22.2c0,56.3,27.3,106.3,69.4,137.4c-0.6-1.3-1-2.6,0.8-4      c0.5-0.4-0.4-2.8-0.7-4.8c0.3,0,1.4,0,2.6,0c0.8-3.4,1.6-6.8,2.4-10.2c-0.3-0.1-0.7-0.3-1-0.4c-0.7,1.3-1.4,2.7-2,4      c-0.2,0-0.5-0.1-0.7-0.1c0.4-2.4,0.8-4.7,1.2-7.1c0.1-0.6,0.7-1.2,0.6-1.6c-1.5-4.5,2-7.5,3-11.2c0.9-3.7,1-7.7,1.6-11.5      c0.8-5.3,1.8-10.6,2.5-15.9C165.9,322,165.7,318.7,157.3,315.6z" fill="#ACB3BA"/><path d="M131.3,172.1c-5.8,0-8.4,4.8-5.3,9.6c0.7-0.8,2-1.7,1.9-2.2C127.2,176.2,128,173.8,131.3,172.1z" fill="#ACB3BA"/><path d="M420,300.8c0.1,0.4,0.2,0.9,0.4,1.3c2.1-7.4,3.7-15,4.7-22.8c-2.7,2.8-5,6-6.5,9.7      C417,293,418.8,296.9,420,300.8z" fill="#ACB3BA"/><path d="M136,182.2c2.7-0.8,5.4-1.6,8.2-2.4c-0.1-0.4-0.2-0.8-0.3-1.2c-2.7,0.8-5.5,1.6-8.2,2.4      C135.8,181.4,135.9,181.8,136,182.2z" fill="#ACB3BA"/></g><g><path d="M425.1,279.3c1-7.6,1.6-15.4,1.6-23.3c0-2.9-0.1-5.8-0.2-8.7c-3.5-2.9-8.3-4.5-9.2-10      c-0.1-0.8-1.2-1.4-1.7-2.1c-0.8-1.3-1.4-2.6-2.1-4c-0.9-2-1.8-4-2.8-5.9c-1-2.1-2.1-4.2-3.2-6.3c-1.5-2.9-3.1-5.8-4.6-8.9      c1.5,1.5,2.3,4,5.5,3.1c0.7-0.2,2.4,3.1,3.6,4.7c1.3,1.7,2.7,3.3,4,5c0.3,0.4,0.7,0.7,0.7,1.2c0.6,6,6,9.1,8.3,14      c0.4,0.8,0.6,1.6,0.8,2.4c-1.9-21-7.6-41-16.5-59.1c-2.9-0.7-5.6-0.4-8.6,0.7c-2.1,0.8-4.9,0.5-7.3,0c-1.6-0.4-2.4-2.1-1.1-3.9      c1.3-1.9,2.6-3.8,4-5.7c1.6-2.2,5.6-2.8,7.5-1.1c0.4,0.4,0.2,1.4,0.5,2c0.3,0.7,0.9,1.2,1.4,1.8c0.1,0,0.3-0.1,0.4-0.1      c-6.7-12.4-14.9-23.8-24.3-34.1c-0.2,0-0.5,0-0.7,0.1c0.7,1.2,0.8,1.5,1,1.8c0.4,0.9,0.9,1.8,1.3,2.7c-1-0.1-2-0.2-3-0.2      c-1.2,0.1-3-0.1-3.5,0.6c-0.8,1.1-0.8,2.9-1.4,5.4c-2.2,0-5.3-0.9-7.5,0.2c-4.7,2.2-9.6,0.5-14.3,1.4c-1.1,0.2-2.6-1-3.8-1.8      c-0.2-0.1,0-1.2,0.2-1.8c0.5-1.4,1.2-2.7,2-4.6c-6.1,1.7-6.1,1.7-4.7,6.2c0.5,1.7,0.8,3.2-2,3.1c-1.6-0.1-4,0.1-4.8,1.1      c-2,2.4-4.4,3.9-7.3,4.9c-0.7,0.3-1.4,0.7-1.9,1.2c-2,2-4.2,3.5-7.2,2.1c-0.8,4.9-5.5-0.1-7.2,3.5c1.2,0.4,2.4,0.7,3.6,1.3      c3.4,1.6,5.2,3.8,4.6,6.9c-0.7,3.9-3.4,2.5-5.7,2.5c-1.5,0-3-0.2-4.5-0.2c-2.7,0-5.5,0.2-8.2,0.2c0.4,2.6,1.2,4.5,0.7,5.9      c-1.2,3-1.1,5.8,0.4,8.7c0.6,0,1.3-0.2,2,0c1.3,0.4,2.8,0.8,3.6,1.7c0.5,0.6,0.2,2.4-0.3,3.2c-0.9,1.3-2.5,2.2-3.6,3.4      c-1.6,1.8-4.3,3.7-4.4,5.7c-0.1,3.6-1.9,5.3-4.4,6.3c-7,2.8-8.4,9.8-12.2,15.1c-0.3,0.4-0.1,1.4,0.2,1.9c2.5,5,1.6,9.7-0.8,14.4      c1.4,2.7,1,6.1,4.1,8.5c3.7,2.9,6.5,7.1,9.8,10.6c1.2,1.2,2.8,2.1,4.1,3.2c2,1.7,4.1,2.4,6.7,1.1c1.5-0.7,3.5-1.4,5-1      c4.9,1.3,8.9-0.6,13.2-2.3c3.9-1.6,7.6-0.9,8.6,1.7c0.9,2.3,2.2,2.6,4.3,2.1c1.1-0.3,2.4-0.5,3.4,0c2.1,1,3.4,2.6,2.5,5.3      c-1.9,5.7-1.9,10.9,3.8,14.7c1,0.7,1.6,2.3,2,3.5c1,3.4,1.6,6.9,2.9,10.1c1,2.5,0.8,4.2-1,6.3c-3.5,4-3.7,10.5-1.2,15.1      c1.9,3.6,4.4,6.8,4.7,11.3c0.3,3.8,1.2,7.8,4.5,10.9c2.1,2,3.5,5.3,3.8,8.2c0.4,3.7,1.7,5.5,5.4,4.8c2.1-0.4,4.3-1.1,6.4-1      c6.4,0.5,11.7-1.7,15.5-6.6c2.9-3.8,8-6.8,6.5-12.9c0.8-0.5,1.5-0.9,2.3-1.2c0.7-0.3,1.3-0.6,1.9-1c0.7-1.4,1.5-2.9,2.2-4.3      c-0.1-0.7-0.2-1.5-0.5-2.4c-0.3-0.9-0.8-1.7-1-2.6c-0.1-0.6-0.2-1.6,0.2-1.8c2.2-1.8,4.3-3.7,6.6-5.2c2.1-5.4,4-10.9,5.6-16.6      c-0.1-0.4-0.2-0.9-0.4-1.3c-1.1-3.8-2.9-7.8-1.4-11.7C420.1,285.4,422.4,282.1,425.1,279.3z M396,205.9c-3.5-0.3-7-0.6-10.4-1.3      c-2.1-0.4-4-1.5-6-2.3c-3-1.2-5.5,0.2-6.1,3.5c-0.4,2-1.5,2.5-3.3,1.7c-2.9-1.4-5.7-3-8.6-4.4c-1.1-0.5-2.4-0.8-3.6-1.1      c-2.5-0.7-4.9-1.3-6.4-1.7c0.6-3,1-5.2,1.5-8.1c-2.5,0.1-4.7,0.3-7,0.3c-7.6,0.1-15,0-22.1,3.7c-2.1,1.1-5.6-0.1-8.4-0.2      c-0.1-0.6-0.1-1.1-0.2-1.7c1.4-0.5,2.7-1.2,4.2-1.4c5.4-0.6,6.2-1.3,8-6.4c0.6-1.6,2.7-2.7,4.2-3.8c1.4-1,3.7-0.9,3.4-3.6      c0-0.4,2-1.7,2.8-1.5c3.3,1,6-0.5,8.8-1.6c1.2-0.5,3.1-0.1,4.2,0.6c2.9,1.8,5.6,4,8.4,6.1c1.1,0.8,2.3,1.5,3.4,2.3      c2.3,1.6,2.3,3.1,0.1,4.7c3.3-0.3,4.1-1.6,3.1-5.4c1.3,0.2,2.4,0.4,3.5,0.5c0.1-0.1,0.2-0.3,0.2-0.4c-2-1.2-4.1-2.4-6.1-3.7      c-2.5-1.7-5-3.4-7.3-5.3c-0.4-0.4-0.4-1.8-0.1-2.5c0.2-0.4,1.7-0.5,2.3-0.2c4,2.2,7.8,4.5,11.7,6.9c0.7,0.4,1.8,1.1,1.7,1.5      c-0.9,4.6,4.5,6,5,10c0.1,0.8,1.6,1.5,2.4,2.2c1.4-1.6,2.6-2.9,3.7-4.1c-1.1-1.3-2.3-2.7-3.4-3.9c1.4-0.7,2.5-1.3,3.5-1.8      c2.4-1.2,4.3-0.2,4.6,2.5c0.4,3.2,4.8,7.5,8.1,7.9c0.6,0.1,1.3-0.2,1.9-0.5c0.5-0.2,1-0.9,1.4-0.8c1.8,0.4,3.6,1.3,5.5,1.4      c1.8,0,3.5-0.8,5.3-1.3c0.4,0.3,0.7,0.7,1.1,1c-1.5,3.6-2.6,7.4-4.6,10.7c-0.6,1-3.2,0.9-4.9,1.1C400,205.9,397.9,206,396,205.9      z M405,282.2c-0.7,0.9-2.3,1.2-3.5,1.7c-0.4-0.4-0.7-0.8-1.1-1.2c0.8-1.7,1.4-3.5,2.6-4.9c0.4-0.5,2,0.1,3.1,0.1      C405.8,279.4,405.8,281.1,405,282.2z" fill="#FFFFFF"/><path d="M346.6,143.1c1.9-0.2,3.7-1.6,5.6-2.5c0.9,1.3,1.6,2.3,2.2,3.4c1,1.8,1.6,4.3,3.1,5.1      c1.3,0.7,3.6-0.7,5.5-1.1c0.2-0.1,0.5,0.1,0.7-0.1c0.6-0.5,1.6-1,1.6-1.6c0.2-2.9,1.4-4.7,4.3-5.5c0.5-0.1,0.8-1,0.9-1.1      c-1.2-1.6-3.3-3.5-3-4.1c1-1.7,2.9-3,4.5-4.3c0.2-0.1,0.4-0.1,0.6-0.2c-3.4-3.2-7-6.3-10.7-9.2c-3.6,2.6-7.1,5.3-10.8,7.6      c-2.6,1.6-5.7,2.3-8.5,3.5c-3.5,1.6-4.1,3.7-1.5,8.8C341.5,143.1,344.7,143.4,346.6,143.1z" fill="#FFFFFF"/><path d="M244.9,289.8c-2.2-1.3-4.5-2.5-6.8-3.6c-1.6-0.7-3.4-1.3-5.1-1.7c-2.5-0.5-6.5,0.2-7.5-1.2      c-2.9-4.2-7.8-2.5-11.1-4.9c-0.5-0.4-2.1,0.6-3.2,1c-0.6,0.2-1.2,0.4-1.8,0.7c-0.3-0.2-0.6-0.3-0.9-0.5c3.1-2.6,3.8-5,1.9-8.7      c-2.1-4.2-5.5-7-9.3-6.5c-6.9,0.9-9.1-5.2-13.9-7.4c-3.1-1.4-5.1-5.7-9.4-2.8c-0.3,0.2-0.7,0.2-1,0.1c-3.8-1.2-7.6-2.4-11.1-3.6      c-1,0.5-2.2,1.2-4.1,2.2c0.6-1.8,0.8-2.7,1.2-4c-5.2,2.7-11,3.7-13.1,9.9c-2.7-3-5.2-3.9-8.5-2.2c-1,0.5-2.8,0-4-0.6      c-4.2-2.1-3.2-5.9-2.7-9.4c0.6-4.4-0.2-5.5-4.7-5.6c-2.3,0-4.7,0-7.3,0c1.5-4.5,2.8-8.5,4.5-13.9c-3.4,1-7.9,1.3-8.2,2.6      c-1,4.7-4.1,5.4-7.7,5.3c-1.8,0-4.4-0.3-5.1-1.5c-1.8-2.8-3.1-6-3.9-9.2c-0.5-2,0.8-4.3,0.8-6.5c0-4.7,4-8.8,8.7-8.8      c3.5,0,7.4,3.1,10.4-1.4c0.2-0.3,1.1-0.2,1.7-0.1c2.6,0.4,5.3,1.3,7.9,1.1c2.9-0.3,3.7,1.2,4.6,3.4c1.1,2.7,2.5,5.3,3.8,8      c0.6-0.1,1.1-0.2,1.7-0.3c0.1-1.7,0.5-3.4,0.2-5c-0.4-1.9-1.3-3.7-2.2-5.4c-1.3-2.7-0.3-4.9,1.8-6.4c2.6-1.9,5.4-3.3,8.1-5.1      c1-0.6,2.5-1.8,2.4-2.5c-0.6-2.6,0.7-4.3,1.8-6.3c1.7-3,3.3-5.9,7.1-6.6c1.1-0.2,2.2-0.6,2.5-0.7c0.8-1.9,1-4.1,2-4.5      c3.8-1.8,7.9-3.1,11.9-4.6c-0.4,1.2-1.1,1.5-1.7,2c-0.4,0.4-0.5,1.1-0.7,1.7c0.7,0.2,1.5,0.8,2,0.6c4-1.7,7.9-3.5,11.9-5.2      c-0.5-0.7-1-1.4-1.5-2.2c-0.8,1-1.6,2.5-2.1,2.5c-2.4-0.4-4.8-1.1-7.2-1.9c-0.3-0.1-0.5-1.3-0.4-1.9c0.2-1.1,0.7-2.2,1.4-4.3      c-3.8,0.5-7.1,0.9-10.3,1.3c4.5-4,9.9-3.7,15.5-3.5c2.4,0.1,4.8-1,7.2-1.6c1.5-0.4,2.9-0.9,5.4-1.7c-2.4,3.7-4.2,6.3-6.1,9.1      c4.6,0.9,9.3-0.7,13.2,2.2c0.2,0.1,1.1-0.2,1.1-0.4c0.1-0.6,0.2-1.3-0.1-1.8c-0.7-1.2-1.6-2.4-2.3-3.5c-1.7-0.5-3.7-1.1-5.8-1.8      c3.4-5.6,1.6-9.4-4.5-11.3c-2.6-0.8-5.5-1.7-7.3-3.6c-2.6-2.7-4.4-6.2-6.5-9.4c-8.2,6.7-10.5,6.4-12.3-0.3      c-6-3.5-12.2-4.7-18.4-4c-2,2.7,2.9,6.6-1.6,7.8c1.3,2.1,3.8,4.5,3.4,6c-0.5,1.9-3.5,3.1-5.5,4.7c2.4,5.5,2.4,5.5-2,7.2      c-3.4-2-5.7-4.6-5.1-8.2c-4.5-1.2-8.9-2.3-13.1-3.4c-19.8,24.1-33,53.7-37.3,86.1c4.9,2.6,10,4.9,15.1,7.1      c1.4,0.6,3.3,0.8,4.6,0.2c2.5-1.1,4.1-0.2,6,1.2c1.9,1.4,4,2.5,6.2,3.4c3.4,1.5,7.5,1.7,9.6,5.4c0.7,1.2,0.9,3.1,1.9,3.7      c3.7,2.3,7.6,4.1,10.9,5.9c1.2-1.3,2.2-2.5,3.4-3.5c0.2-0.1,1.6,0.8,1.9,1.6c4.1,8.6,3.2,10.9-2.9,16.8      c-2.9,2.8-3.3,6.7-0.5,9.1c-3.2,1.7-4.5,4.8-2.1,7.3c3.3,3.3,4.8,7.4,7,11.3c2.5,4.4,3.6,9.9,9.4,12.1c8.4,3.1,8.6,6.4,7.5,15      c-0.7,5.3-1.7,10.6-2.5,15.9c-0.6,3.8-0.6,7.8-1.6,11.5c-0.9,3.7-4.5,6.8-3,11.2c0.1,0.4-0.5,1-0.6,1.6      c-0.4,2.3-0.8,4.7-1.2,7.1c0.2,0,0.5,0.1,0.7,0.1c0.7-1.3,1.4-2.7,2-4c0.3,0.1,0.7,0.3,1,0.4c-0.8,3.4-1.6,6.8-2.4,10.2      c-1.2,0-2.3,0-2.6,0c0.3,2,1.2,4.4,0.7,4.8c-1.9,1.3-1.4,2.7-0.8,4c5.8,4.3,12,8.3,18.4,11.8c0.6-0.2,1.2-0.4,1.9-0.6      c-1.8-1.5-4.4-2.9-5.8-5.1c-1.1-1.6-3.2-4.3,1-6.1c2.3-1,3.8-3.8,5.8-5.8c-0.6-0.4-0.9-0.5-1.1-0.7c-1-0.8-2.1-1.5-3.1-2.3      c1-0.8,2.1-1.6,3.1-2.4c0.7-0.6,1.8-1.3,2-2.1c0.6-2.4,0.8-5,1.2-7.5c5.2,1,5.2,1,6.1-4.3c2.8-0.4,5.5-0.7,8.2-1.3      c3.2-0.8,4.2-3,2.9-6.1c-0.5-1.2-1.3-2.4-2-3.6c0.9,0.2,1.9,0.4,2.8,0.7c3.3,1.1,6,0.7,8.7-2.1c2.4-2.6,2.9-6.5,6.8-8.5      c2.4-1.2,5.4-4.6,3.8-8.8c-0.2-0.5,0.7-1.6,1.4-2.2c3.3-3,7-5.1,11.6-5.5c1.4-0.1,3.3-1,4-2.1c3.1-4.9,5.5-10,5.1-16.1      c-0.1-1.4,0-3.2,0.8-4.3c2.1-2.8,4.6-5.4,7-8c2.4-2.6,2.6-5.6,1.4-8.7C246.1,290.9,245.5,290.2,244.9,289.8z M127.9,179.5      c0.1,0.6-1.2,1.4-1.9,2.2c-3.1-4.8-0.5-9.7,5.3-9.6C128,173.8,127.2,176.2,127.9,179.5z M144.2,179.8c-2.7,0.8-5.4,1.6-8.2,2.4      c-0.1-0.4-0.2-0.8-0.3-1.3c2.7-0.8,5.5-1.6,8.2-2.4C144,179,144.1,179.4,144.2,179.8z M142.7,174.6c-1.2-0.2-2.1-0.3-3.2-0.5      c-0.5,1.2-1,2.5-1.8,4.5c-1.8-2.5-3.3-4.6-4.7-6.6C135.2,170.3,141,171.6,142.7,174.6z M132,170.1c-3-0.8-6.2,1.9-8.7-1.5      c-0.1-0.1-1.2,0.5-1.8,0.7c-1.7,0.3-3.4,0.5-5.1,0.7C124.5,163.9,129.6,164.1,132,170.1z" fill="#FFFFFF"/><path d="M147,128.4c1.7,0.6,3.3,1,4.7,0.6c3.7-1.1,6.8,0.1,9.7,2c4,2.6,8.6,2.9,13.3,3c-1.1-0.7-2.3-1.4-4.3-2.7      c3,0.7,5,1.1,6.9,1.5c1.3-2.6,0.7-4-2.3-4.8c-1.9-0.5-3.6-0.8-2.9-3.8c4.4,1.3,9,6.2,12.7-0.6c-4.7-1.5-9.4-3-12.8-4      c-0.5-1.9-0.6-3.6-1.1-3.8c-2.7-1-5.4-1.9-8.1-2.7c-2.9,1.9-5.7,3.8-8.5,5.9c2,0.4,3.8,1.8,5.3,2.5      C157.1,127.8,151.2,126.1,147,128.4z" fill="#FFFFFF"/><path d="M285.3,100.4c0-0.3,0-0.5,0-0.8c-2.4-0.7-4.8-1.4-7.7-2.2c5.8-4.1,12.1-5.8,18.4-7.4      c-1.8-0.4-3.5-0.9-5.3-1.2c-5.1,0.3-10.2,0.6-15.2,1c-2.1-4.1-5.6,0.3-9-1.4c3.5-0.3,6.2-0.5,8.9-0.8c0-0.3,0-0.7,0-1      c-3.6-0.3-7.3-0.7-10.9-1.1c-2.8-0.1-5.6-0.2-8.5-0.2c-26.2,0-51,5.9-73.2,16.5c3.8,0.1,7.7,0.1,11.1,2.6      c2.4,1.8,4.9,3.5,7.4,5.2c-0.8,1.2-1.3,2-2.5,3.8c4.2-1.4,7.6-1.7,10.3,1.3c-2.8,0.7-6.3-2.6-7.6,3c2.9-0.5,5.8-0.9,8.6-1.4      c0.2,0.3,0.3,0.7,0.5,1c-1.2,0.7-2.4,1.3-3.6,2.1c-1.2,0.8-3,1.5-3.3,2.6c-0.3,1.1,0.8,2.7,1.5,4c0.5,0.9,1.3,1.5,1.9,2.3      c3,3.8,6.1,7.6,11.2,8.8c1.6,0.4,3.3,0.7,4.8,1.4c2.4,1.1,4.3,1.4,5.6-1.5c0.6-1.4,1.1-2.9,1.9-4.2c1-1.6,2.3-3,3.5-4.5      c-0.2-0.3-0.5-0.6-0.7-0.9c2.5-0.6,5.1-1.1,7.6-1.8c3-0.9,6-1.9,8.9-3c1.8-0.6,3.5-1.6,5.3-1.9c6.1-0.9,12.4-0.9,18.8-4.6      c-2.8-0.3-4.7-0.6-6.4-0.8c0.4-0.7,0.7-1.5,1-2.1c2.8,0.8,5.4,1.5,8.6,2.4c-0.9-2.8-1.5-4.7-2-6.3c2.6-1.2,4.8-2.2,7.3-3.4      c-1.4-0.5-2.3-0.8-3.1-1.1c0-0.2,0.1-0.4,0.1-0.6c0.9-0.1,1.7-0.2,2.6-0.3c0.1-0.3,0.2-0.6,0.3-0.9c-1.6-0.6-3.2-1.3-4.7-1.9      c0-0.2,0-0.4,0-0.7C280.3,100.4,282.8,100.4,285.3,100.4z" fill="#FFFFFF"/></g></g><path d="M202.4,101C202.4,101.1,202.5,101.1,202.4,101C202.2,100.5,202.1,100.3,202.4,101z" fill="#FFFFFF"/><g><path d="M226.1,185.8c0,23-43.6,82.5-43.6,82.5s-43.6-59.6-43.6-82.5s19.5-41.6,43.6-41.6     S226.1,162.9,226.1,185.8z" fill="#F1543F"/><circle cx="182.5" cy="185.1" fill="#FFFFFF" r="21.2"/></g><g><path d="M347.9,131.9c0,10-19,36.1-19,36.1s-19-26-19-36.1c0-10,8.5-18.2,19-18.2     C339.4,113.7,347.9,121.8,347.9,131.9z" fill="#F1543F"/><circle cx="328.8" cy="131.6" fill="#FFFFFF" r="9.3"/></g><path d="M377.9,207c0,7.6-14.4,27.3-14.4,27.3s-14.4-19.7-14.4-27.3c0-7.6,6.5-13.8,14.4-13.8    S377.9,199.4,377.9,207z" fill="#F1543F"/><circle cx="363.5" cy="206.8" fill="#FFFFFF" r="7"/><g><path d="M195.6,336.9c0,5.6-10.7,20.2-10.7,20.2s-10.7-14.6-10.7-20.2c0-5.6,4.8-10.2,10.7-10.2     C190.8,326.7,195.6,331.3,195.6,336.9z" fill="#F1543F"/><circle cx="184.9" cy="336.7" fill="#FFFFFF" r="5.2"/></g><g><path d="M391.8,311.9c0,10.2-19.4,36.7-19.4,36.7S353,322.2,353,311.9c0-10.2,8.7-18.5,19.4-18.5     S391.8,301.7,391.8,311.9z" fill="#F1543F"/><circle cx="372.4" cy="311.6" fill="#FFFFFF" r="9.4"/></g></g></g></svg>