<?xml version="1.0" ?><!DOCTYPE svg  PUBLIC '-//W3C//DTD SVG 1.1//EN'  'http://www.w3.org/Graphics/SVG/1.1/DTD/svg11.dtd'><svg enable-background="new 0 0 512 512" height="512px" id="Слой_1" version="1.1" viewBox="0 0 512 512" width="512px" xml:space="preserve" xmlns="http://www.w3.org/2000/svg" xmlns:xlink="http://www.w3.org/1999/xlink"><g id="Domain_Registration_1_"><path d="M512,256.001c0,141.383-114.617,256-256,256c-141.391,0-256-114.617-256-256   C0,114.614,114.609-0.001,256-0.001C397.383-0.001,512,114.614,512,256.001z" fill="#EB87BF"/><g id="Domain_Registration"><path d="M425.809,203.188c0,5.23-4.242,9.465-9.465,9.465l-321.07,0.006c-5.23,0.004-9.469-4.236-9.465-9.473    l-0.002-64.787c-0.002-5.227,4.236-9.463,9.465-9.465H416.34c5.227,0,9.469,4.234,9.469,9.467V203.188z" fill="#CCD1D9"/><rect fill="#F4F6F9" height="229.496" width="340.004" x="85.806" y="153.548"/><path d="M101.559,138.724c-1.857,0-3.365,1.508-3.365,3.365c-0.002,1.854,1.51,3.367,3.365,3.367    c1.857,0,3.365-1.514,3.365-3.369C104.928,140.231,103.416,138.724,101.559,138.724z" fill="#E6E9ED"/><path d="M117.02,138.724c-1.854,0-3.363,1.508-3.363,3.363c0.002,1.855,1.51,3.369,3.363,3.369    c1.855,0,3.367-1.514,3.367-3.369C120.385,140.231,118.877,138.724,117.02,138.724z" fill="#E6E9ED"/><path d="M132.48,138.726c-1.854-0.002-3.365,1.506-3.365,3.363c0,1.854,1.512,3.367,3.369,3.367    c1.85,0,3.363-1.514,3.367-3.369C135.85,140.231,134.336,138.724,132.48,138.726z" fill="#E6E9ED"/><polygon fill="#FFFFFF" points="103.031,172.485 102.834,195.938 409.168,195.938 409.164,172.485   "/><polygon fill="#4B89DA" points="318.184,172.485 318.125,195.938 409.168,195.938 409.164,172.485   "/><rect fill="#FFFFFF" height="151.227" width="91.012" x="210.43" y="212.661"/><g><polygon fill="#303842" points="122.367,188.063 122.32,188.063 120.32,180.099 117.18,180.095 115.223,188.085 115.178,188.083      113.016,180.097 109.602,180.097 113.334,191.86 116.68,191.86 118.68,183.968 118.729,183.97 120.82,191.86 124.143,191.86      127.852,180.095 124.531,180.095    "/><polygon fill="#303842" points="141.832,188.063 141.785,188.063 139.785,180.097 136.645,180.097 134.688,188.083      134.641,188.085 132.48,180.097 129.068,180.099 132.799,191.86 136.145,191.862 138.146,183.97 138.191,183.966 140.285,191.86      143.605,191.862 147.316,180.095 143.996,180.095    "/><polygon fill="#303842" points="163.455,180.097 161.295,188.063 161.25,188.063 159.25,180.097 156.109,180.097      154.152,188.085 154.105,188.083 151.945,180.097 148.531,180.097 152.264,191.86 155.609,191.862 157.613,183.968      157.656,183.97 159.75,191.86 163.07,191.862 166.779,180.097    "/></g><rect fill="#5D9CEC" height="151.229" width="91.016" x="102.835" y="212.659"/><g><rect fill="#FFFFFF" height="2.406" width="62.447" x="117.117" y="302.032"/><rect fill="#FFFFFF" height="2.402" width="62.449" x="117.116" y="309.384"/><rect fill="#FFFFFF" height="2.402" width="62.447" x="117.117" y="316.731"/><rect fill="#FFFFFF" height="2.402" width="62.449" x="117.119" y="324.089"/><rect fill="#FFFFFF" height="2.402" width="62.449" x="117.119" y="331.435"/></g><g><rect fill="#646C77" height="2.414" width="62.449" x="224.133" y="302.03"/><rect fill="#646C77" height="2.402" width="62.449" x="224.133" y="309.388"/><polygon fill="#646C77" points="286.582,319.142 224.137,319.142 224.129,316.735 286.582,316.735    "/><rect fill="#646C77" height="2.402" width="62.445" x="224.135" y="324.087"/><rect fill="#646C77" height="2.402" width="62.449" x="224.133" y="331.435"/></g><g><path d="M128.949,270.353v4.238l-4.324,0.004v-4.242H128.949z" fill="#F4F6F9"/><path d="M135.83,260.356v1.984l0.082-0.004c0.496-0.82,1.139-1.422,1.93-1.797     c0.787-0.379,1.596-0.563,2.42-0.563c1.047,0,1.906,0.141,2.574,0.422c0.672,0.285,1.197,0.68,1.584,1.184     s0.656,1.121,0.811,1.848c0.16,0.727,0.234,1.531,0.234,2.406l0.002,8.758h-3.908v-8.039c-0.002-1.18-0.186-2.055-0.553-2.629     c-0.367-0.582-1.018-0.871-1.955-0.871c-1.063,0-1.834,0.32-2.313,0.953c-0.48,0.633-0.711,1.672-0.711,3.121v7.461l-3.914,0.004     v-14.238H135.83z" fill="#F4F6F9"/><path d="M152.627,271.177c0.584,0.57,1.426,0.855,2.529,0.855c0.793-0.004,1.467-0.195,2.037-0.594     c0.57-0.395,0.918-0.813,1.047-1.25h3.443c-0.553,1.703-1.398,2.926-2.533,3.66c-1.141,0.734-2.518,1.098-4.127,1.098     c-1.125,0-2.133-0.172-3.033-0.531c-0.898-0.359-1.662-0.867-2.285-1.527c-0.625-0.66-1.102-1.457-1.445-2.371     c-0.34-0.914-0.508-1.926-0.508-3.027c0-1.066,0.176-2.059,0.523-2.977c0.346-0.914,0.842-1.707,1.484-2.379     c0.645-0.672,1.408-1.195,2.303-1.582c0.887-0.387,1.875-0.574,2.959-0.574c1.209,0,2.268,0.23,3.164,0.699     c0.898,0.469,1.641,1.098,2.215,1.887c0.58,0.789,0.996,1.688,1.254,2.695c0.256,1.008,0.35,2.07,0.275,3.164h-10.27     C151.715,269.696,152.035,270.61,152.627,271.177z M157.043,263.692c-0.467-0.516-1.18-0.77-2.133-0.77     c-0.625,0-1.145,0.102-1.557,0.313s-0.744,0.473-0.988,0.781c-0.25,0.316-0.426,0.648-0.525,0.992     c-0.102,0.352-0.162,0.664-0.178,0.938l6.357,0.004C157.836,264.962,157.51,264.204,157.043,263.692z" fill="#F4F6F9"/><path d="M172.061,260.356l0.002,2.617h-2.863v7.047c-0.002,0.664,0.109,1.102,0.328,1.324     c0.221,0.223,0.662,0.328,1.32,0.328c0.223,0,0.434-0.012,0.633-0.027c0.205-0.016,0.396-0.043,0.58-0.078l0.002,3.027     c-0.332,0.055-0.701,0.086-1.104,0.105c-0.402,0.027-0.799,0.031-1.182,0.031c-0.607,0-1.182-0.043-1.721-0.125     c-0.545-0.082-1.02-0.242-1.432-0.48c-0.416-0.242-0.742-0.578-0.979-1.023c-0.24-0.438-0.361-1.016-0.361-1.73l0.002-8.398     h-2.367l-0.002-2.617l2.371-0.004l-0.004-4.262l3.914-0.004l-0.002,4.27H172.061z" fill="#F4F6F9"/></g><polygon fill="#FFFFFF" id="check_2_" points="156.328,229.532 145.604,240.306 140.355,235.032 136.51,238.896 145.602,248.028     160.174,233.396   "/><rect fill="#5D9CEC" height="151.232" width="91.012" x="318.141" y="212.659"/><g><path d="M342.52,270.353l0.004,4.242h-4.32l-0.004-4.242H342.52z" fill="#FFFFFF"/><path d="M345.77,264.392c0.352-0.926,0.844-1.715,1.488-2.367c0.641-0.656,1.414-1.156,2.313-1.52     c0.898-0.352,1.91-0.527,3.027-0.527c1.125,0,2.137,0.172,3.043,0.531c0.91,0.359,1.684,0.859,2.328,1.516     c0.645,0.652,1.137,1.438,1.488,2.367c0.348,0.93,0.523,1.961,0.523,3.098s-0.176,2.164-0.523,3.082     c-0.352,0.922-0.844,1.703-1.484,2.355c-0.648,0.648-1.422,1.152-2.332,1.496c-0.906,0.352-1.918,0.523-3.043,0.523     c-1.117,0.004-2.133-0.172-3.027-0.523c-0.898-0.344-1.672-0.844-2.313-1.492c-0.645-0.656-1.137-1.438-1.488-2.359     c-0.348-0.918-0.523-1.945-0.523-3.078C345.246,266.353,345.422,265.321,345.77,264.392z M349.324,269.153     c0.109,0.543,0.297,1.031,0.563,1.461c0.27,0.43,0.621,0.773,1.063,1.035c0.438,0.254,0.992,0.383,1.648,0.379     c0.664,0.004,1.219-0.125,1.668-0.383s0.809-0.602,1.074-1.031s0.453-0.918,0.563-1.461c0.113-0.539,0.164-1.09,0.168-1.664     c-0.004-0.566-0.055-1.129-0.168-1.68c-0.109-0.551-0.297-1.039-0.563-1.457c-0.266-0.422-0.625-0.77-1.074-1.031     c-0.449-0.27-1.004-0.398-1.668-0.402c-0.656,0.004-1.211,0.137-1.648,0.395c-0.438,0.27-0.793,0.617-1.063,1.039     c-0.266,0.414-0.453,0.906-0.563,1.461c-0.109,0.547-0.164,1.109-0.164,1.676C349.16,268.063,349.215,268.614,349.324,269.153z" fill="#FFFFFF"/><path d="M366.227,260.356v2.645h0.059c0.18-0.438,0.43-0.852,0.742-1.223c0.313-0.379,0.664-0.699,1.07-0.965     s0.836-0.473,1.297-0.621c0.457-0.145,0.934-0.215,1.43-0.215c0.258,0,0.543,0.047,0.852,0.137v3.633     c-0.18-0.035-0.398-0.07-0.656-0.098c-0.258-0.031-0.508-0.043-0.742-0.043c-0.719,0-1.328,0.121-1.82,0.359     c-0.496,0.238-0.898,0.566-1.195,0.98c-0.305,0.406-0.523,0.891-0.648,1.438c-0.125,0.555-0.195,1.156-0.195,1.797v6.414     l-3.906-0.004v-14.234H366.227z" fill="#FFFFFF"/><path d="M385.902,275.638c-0.16,0.734-0.492,1.418-1.008,2.051c-0.516,0.637-1.258,1.172-2.234,1.609     c-0.973,0.438-2.273,0.664-3.906,0.664c-0.695,0-1.406-0.086-2.133-0.266c-0.727-0.172-1.391-0.441-1.984-0.809     c-0.598-0.367-1.094-0.84-1.484-1.418c-0.395-0.578-0.625-1.273-0.68-2.078h3.883c0.188,0.734,0.543,1.242,1.078,1.527     c0.531,0.285,1.145,0.426,1.844,0.426c1.102,0,1.906-0.328,2.41-0.992c0.504-0.66,0.746-1.492,0.727-2.504v-1.871h-0.051     c-0.426,0.758-1.027,1.309-1.805,1.664c-0.781,0.359-1.602,0.539-2.465,0.539c-1.066,0-1.98-0.188-2.754-0.563     c-0.77-0.379-1.406-0.898-1.898-1.547c-0.496-0.652-0.859-1.414-1.09-2.281s-0.344-1.797-0.344-2.77     c0-0.918,0.137-1.801,0.398-2.66c0.266-0.852,0.66-1.602,1.168-2.254c0.516-0.652,1.156-1.168,1.918-1.555     s1.637-0.574,2.629-0.574c0.938,0,1.758,0.172,2.461,0.516c0.711,0.352,1.305,0.938,1.781,1.766h0.051v-1.902l3.719-0.004     l-0.004,13.328C386.129,274.255,386.051,274.903,385.902,275.638z M380.543,270.899c0.422-0.215,0.773-0.512,1.047-0.879     c0.277-0.367,0.484-0.785,0.617-1.254c0.141-0.469,0.207-0.961,0.207-1.469c0-0.59-0.051-1.145-0.16-1.668     c-0.113-0.52-0.297-0.984-0.555-1.391c-0.258-0.402-0.594-0.727-1.016-0.965c-0.422-0.234-0.957-0.352-1.602-0.352     c-0.547,0-1.023,0.102-1.414,0.324c-0.395,0.223-0.727,0.52-0.992,0.898c-0.266,0.371-0.461,0.809-0.578,1.293     c-0.117,0.488-0.18,0.992-0.18,1.531c0,0.508,0.051,1.023,0.152,1.523c0.098,0.504,0.277,0.961,0.523,1.363     s0.574,0.734,0.977,0.992c0.406,0.262,0.91,0.387,1.512,0.387C379.637,271.231,380.121,271.122,380.543,270.899z" fill="#FFFFFF"/></g><polygon fill="#FFFFFF" id="check_1_" points="371.633,229.532 360.91,240.302 355.66,235.032 351.816,238.896 360.902,248.028     375.48,233.396   "/><g><path d="M227.934,270.478v4.242l-4.32-0.004l-0.002-4.238H227.934z" fill="#303842"/><path d="M237.902,263.044c-0.625,0.004-1.152,0.145-1.57,0.426c-0.426,0.281-0.766,0.648-1.031,1.102     c-0.266,0.445-0.457,0.941-0.57,1.488c-0.109,0.543-0.164,1.074-0.164,1.605c0,0.52,0.055,1.043,0.164,1.574     s0.289,1.012,0.543,1.445c0.246,0.43,0.578,0.785,1,1.059c0.418,0.273,0.938,0.414,1.543,0.414c0.938,0,1.656-0.266,2.164-0.781     c0.5-0.523,0.82-1.23,0.945-2.109l3.773-0.004c-0.258,1.891-0.992,3.34-2.203,4.324c-1.211,0.988-2.762,1.488-4.652,1.492     c-1.066-0.004-2.043-0.184-2.934-0.543c-0.891-0.355-1.648-0.855-2.266-1.5c-0.629-0.641-1.117-1.406-1.461-2.293     c-0.352-0.895-0.527-1.875-0.527-2.938c0.004-1.102,0.16-2.121,0.488-3.07c0.313-0.945,0.789-1.762,1.414-2.449     s1.383-1.227,2.281-1.613c0.898-0.383,1.93-0.578,3.086-0.578c0.848,0,1.656,0.109,2.438,0.336c0.781,0.219,1.477,0.551,2.094,1     c0.613,0.453,1.117,1.008,1.5,1.68s0.605,1.469,0.66,2.383h-3.828C240.531,263.86,239.566,263.044,237.902,263.044z" fill="#303842"/><path d="M246.988,264.513c0.344-0.922,0.84-1.711,1.484-2.363c0.641-0.648,1.41-1.156,2.313-1.516     c0.898-0.355,1.906-0.539,3.027-0.539s2.137,0.184,3.043,0.539c0.906,0.359,1.684,0.867,2.324,1.516     c0.645,0.648,1.141,1.438,1.488,2.363c0.348,0.93,0.523,1.961,0.523,3.102c0,1.137-0.18,2.164-0.523,3.078     c-0.352,0.922-0.844,1.707-1.488,2.355c-0.641,0.656-1.418,1.156-2.324,1.508c-0.906,0.344-1.922,0.52-3.039,0.52     c-1.125,0.004-2.133-0.176-3.031-0.52c-0.902-0.352-1.672-0.852-2.313-1.508c-0.648-0.648-1.141-1.434-1.488-2.355     c-0.348-0.918-0.527-1.941-0.523-3.078C246.457,266.474,246.637,265.446,246.988,264.513z M250.535,269.282     c0.113,0.539,0.297,1.023,0.563,1.461c0.27,0.422,0.625,0.77,1.063,1.031c0.445,0.25,0.992,0.383,1.652,0.383     s1.215-0.133,1.664-0.391c0.449-0.254,0.809-0.602,1.074-1.031c0.266-0.422,0.453-0.914,0.563-1.457s0.168-1.094,0.164-1.664     c0.004-0.566-0.055-1.129-0.164-1.68c-0.109-0.555-0.297-1.035-0.563-1.461c-0.266-0.422-0.625-0.762-1.07-1.031     c-0.453-0.266-1.008-0.398-1.664-0.398c-0.664,0-1.211,0.133-1.656,0.398c-0.438,0.266-0.793,0.609-1.063,1.031     c-0.266,0.422-0.449,0.906-0.563,1.461c-0.109,0.551-0.164,1.109-0.164,1.68C250.371,268.188,250.426,268.735,250.535,269.282z" fill="#303842"/><path d="M267.52,260.485v1.926h0.059c0.512-0.738,1.129-1.309,1.855-1.707c0.727-0.406,1.559-0.609,2.496-0.609     c0.895,0,1.719,0.18,2.461,0.527c0.746,0.348,1.309,0.961,1.691,1.84c0.426-0.617,1-1.172,1.723-1.648     c0.727-0.477,1.586-0.719,2.574-0.719c0.754,0,1.453,0.094,2.098,0.277c0.637,0.184,1.191,0.477,1.645,0.879     c0.461,0.406,0.82,0.934,1.078,1.586c0.258,0.648,0.383,1.438,0.383,2.352v9.527h-3.906v-8.063c0-0.48-0.023-0.934-0.055-1.348     c-0.039-0.43-0.141-0.797-0.305-1.105c-0.168-0.309-0.406-0.563-0.727-0.746c-0.328-0.18-0.758-0.273-1.313-0.273     c-0.547,0-0.996,0.105-1.336,0.313c-0.336,0.219-0.602,0.496-0.797,0.828c-0.191,0.344-0.32,0.727-0.383,1.156     c-0.066,0.438-0.102,0.867-0.102,1.309l0.004,7.934h-3.91v-7.988c0-0.418-0.008-0.84-0.031-1.254     c-0.016-0.41-0.094-0.789-0.23-1.141c-0.137-0.348-0.363-0.629-0.691-0.84c-0.313-0.211-0.793-0.316-1.414-0.316     c-0.188,0-0.43,0.039-0.727,0.125c-0.305,0.078-0.602,0.238-0.883,0.465c-0.285,0.234-0.531,0.559-0.734,0.996     c-0.199,0.43-0.301,0.992-0.301,1.691v8.258l-3.91,0.004v-14.234H267.52z" fill="#303842"/></g><polygon fill="#5D9CEC" id="cross_2_" points="264.551,232.743 261.559,229.751 255.355,235.954 249.152,229.751 246.16,232.743     252.367,238.946 246.16,245.149 249.152,248.142 255.355,241.938 261.563,248.142 264.551,245.149 258.348,238.946   "/><g><polygon fill="#FFFFFF" points="394.867,303.239 332.422,303.235 332.418,300.833 394.871,300.833    "/><rect fill="#FFFFFF" height="2.402" width="62.453" x="332.418" y="308.185"/><rect fill="#FFFFFF" height="2.398" width="62.453" x="332.418" y="315.536"/><rect fill="#FFFFFF" height="2.406" width="62.449" x="332.422" y="322.884"/><rect fill="#FFFFFF" height="2.402" width="62.449" x="332.422" y="330.235"/></g></g><path d="M423.039,131.712c1.707,1.711,2.77,4.076,2.77,6.689v64.787c0,0.006,0,0.012,0,0.012v179.844H85.807   l124.875,124.875c14.693,2.625,29.795,4.074,45.24,4.078h0.156C397.426,511.954,512,397.36,512,256.001   c0-12.977-0.984-25.719-2.848-38.172L423.039,131.712z" fill="#D670AC"/></g></svg>