<?xml version="1.0" ?><svg id="Слой_1" style="enable-background:new 0 0 128 128;" version="1.1" viewBox="0 0 128 128" xml:space="preserve" xmlns="http://www.w3.org/2000/svg" xmlns:xlink="http://www.w3.org/1999/xlink"><style type="text/css">
	.st0{fill:#D07C40;}
	.st1{fill:#EFEFEF;}
	.st2{fill:#26A6D1;}
	.st3{fill:#EFC75E;}
	.st4{fill:#E8C15B;}
	.st5{fill:#D6D9DB;}
	.st6{fill:#E2574C;}
</style><path class="st0" d="M0,51l64-38l64,38v56H0V51z"/><path class="st1" d="M14,3h100c2.2,0,4,1.8,4,4v70c0,2.2-1.8,4-4,4H14c-2.2,0-4-1.8-4-4V7C10,4.8,11.8,3,14,3z"/><path class="st2" d="M105.6,11l6.4-8h2c2.2,0,4,1.8,4,4v4H105.6z M53.6,11L60,3h14l-6.4,8H53.6z M10,11V7c0-2.2,1.8-4,4-4h10l-6.4,8  H10z"/><path class="st3" d="M128,119c0,3.3-2.7,6-6,6H6c-3.3,0-6-2.7-6-6v-9c0,0,0,0,0,0V51l64,28l64-28L128,119L128,119z"/><path class="st4" d="M128,119c0,3.3-2.7,6-6,6H6c-3.3,0-6-2.7-6-6l0-12l128-56L128,119L128,119z"/><g><g><path class="st5" d="M40.7,38.5l0.8,4.2l-6.4-10l-9,14C26,48,31.8,49,39,49c7.2,0,13-1,13-2.3L44.1,35L40.7,38.5z M41.5,33    c1.4,0,2.5-1.1,2.5-2.5c0-1.4-1.1-2.5-2.5-2.5c-1.4,0-2.5,1.1-2.5,2.5C39,31.9,40.1,33,41.5,33z M62,32h40c1.1,0,2-0.9,2-2    c0-1.1-0.9-2-2-2H62c-1.1,0-2,0.9-2,2C60,31.1,60.9,32,62,32z M102,36H62c-1.1,0-2,0.9-2,2c0,1.1,0.9,2,2,2h40c1.1,0,2-0.9,2-2    C104,36.9,103.1,36,102,36z M92,44H62c-1.1,0-2,0.9-2,2c0,1.1,0.9,2,2,2h30c1.1,0,2-0.9,2-2C94,44.9,93.1,44,92,44z"/></g></g><path class="st6" d="M79.6,11L86,3h14l-6.4,8H79.6z M27.6,11L34,3h14l-6.4,8H27.6z"/></svg>