<?xml version="1.0" ?><!DOCTYPE svg  PUBLIC '-//W3C//DTD SVG 1.1//EN'  'http://www.w3.org/Graphics/SVG/1.1/DTD/svg11.dtd'><svg enable-background="new 0 0 512 512" height="512px" id="Слой_1" version="1.1" viewBox="0 0 512 512" width="512px" xml:space="preserve" xmlns="http://www.w3.org/2000/svg" xmlns:xlink="http://www.w3.org/1999/xlink"><g id="Hosting_1_"><path d="M512,256.001c0,141.383-114.617,256-256,256c-141.391,0-256-114.617-256-256   C0,114.614,114.609-0.001,256-0.001C397.383-0.001,512,114.614,512,256.001z" fill="#AC92EA"/><g id="Hosting"><g><path d="M430,298.31V168.153c0-9.453-7.66-17.107-17.109-17.105H223.992c-9.441,0-17.098,7.656-17.098,17.107     l-0.004,130.158L430,298.31z" fill="#43454F"/><g><path d="M412.891,201.226c0,2.32-2.184,4.18-4.883,4.18H228.875c-2.695,0-4.883-1.879-4.883-4.203v-28.826      c0-2.326,2.188-4.209,4.883-4.209h179.137c2.695,0,4.879,1.885,4.879,4.211V201.226z" fill="#CCD1D9"/><rect fill="#E5E8EC" height="102.088" width="188.898" x="223.992" y="179.114"/><path d="M232.113,172.521c-0.957-0.004-1.73,0.674-1.734,1.5c0.004,0.824,0.781,1.496,1.734,1.494      c0.957,0,1.738-0.67,1.738-1.494C233.852,173.194,233.07,172.521,232.113,172.521z" fill="#E6E9ED"/><path d="M240.09,172.521c-0.957-0.002-1.738,0.676-1.738,1.498c0,0.824,0.777,1.498,1.738,1.496      c0.957,0,1.734-0.67,1.734-1.492C241.824,173.194,241.047,172.521,240.09,172.521z" fill="#E6E9ED"/><path d="M248.063,172.521c-0.957,0-1.734,0.674-1.734,1.498c0,0.822,0.777,1.496,1.734,1.496      c0.957,0.002,1.734-0.674,1.73-1.494C249.797,173.194,249.02,172.517,248.063,172.521z" fill="#E6E9ED"/></g><polygon fill="#CCD1D9" points="351.77,340.337 285.121,340.337 289.375,322.103 347.516,322.103    "/><path d="M206.891,298.313l0.004,6.684c0,9.449,7.656,17.105,17.098,17.105h188.898     c9.449-0.004,17.109-7.664,17.109-17.109v-6.684L206.891,298.313z" fill="#E6E9ED"/><path d="M276.504,352.767c-3.434-0.008-6.215-2.789-6.219-6.215l0,0c0.004-3.434,2.785-6.215,6.215-6.215h83.887     c3.43,0,6.215,2.785,6.215,6.215l0,0c0,3.426-2.781,6.215-6.219,6.215H276.504z" fill="#E6E9ED"/><rect fill="#EC5564" height="4.23" width="37.656" x="328.453" y="219.066"/><rect fill="#F4F6F9" height="102.088" width="188.898" x="223.992" y="179.116"/><g><polygon fill="#4A89DC" points="233.238,188.378 233.129,228.028 403.625,228.028 403.625,188.38     "/><rect fill="#FFFFFF" height="1.287" width="114.875" x="260.953" y="203.408"/><rect fill="#FFFFFF" height="1.287" width="57.465" x="289.656" y="207.338"/><rect fill="#FFFFFF" height="1.281" width="28.75" x="304.016" y="211.27"/></g><g><rect fill="#FFFFFF" height="34.773" width="50.652" x="352.973" y="237.29"/><circle cx="378.299" cy="249.876" fill="#5D9CEC" r="7.229"/><polygon fill="#656D78" points="395.688,263.036 360.914,263.04 360.914,261.747 395.688,261.751     "/><polygon fill="#656D78" points="384.379,266.966 372.215,266.962 372.215,265.677 384.383,265.673     "/></g><g><rect fill="#FFFFFF" height="34.773" width="50.656" x="293.051" y="237.288"/><path d="M325.609,249.88c0,3.996-3.238,7.223-7.23,7.223s-7.23-3.234-7.23-7.227s3.238-7.23,7.227-7.227      C322.371,242.649,325.605,245.884,325.609,249.88z" fill="#5D9CEC"/><rect fill="#656D78" height="1.293" width="34.77" x="300.992" y="261.747"/><polygon fill="#656D78" points="324.465,266.966 312.293,266.966 312.297,265.673 324.465,265.681     "/></g><g><rect fill="#FFFFFF" height="34.773" width="50.656" x="233.129" y="237.288"/><path d="M265.688,249.88c0,3.996-3.242,7.223-7.23,7.223c-3.992,0-7.23-3.234-7.23-7.227s3.238-7.23,7.227-7.227      C262.449,242.649,265.684,245.884,265.688,249.88z" fill="#5D9CEC"/><rect fill="#656D78" height="1.293" width="34.77" x="241.07" y="261.747"/><polygon fill="#656D78" points="264.543,266.966 252.371,266.966 252.375,265.673 264.543,265.681     "/></g></g><g><rect fill="#303842" height="158.359" width="218.227" x="90" y="235.009"/><g><rect fill="#434A54" height="49.438" width="218.227" x="89.998" y="343.931"/><g><polygon fill="#303842" points="126.906,378.524 106.285,378.521 119.113,364.267 139.738,364.267      "/><polygon fill="#303842" points="160.355,378.524 139.734,378.521 152.563,364.267 173.184,364.267      "/><polygon fill="#303842" points="193.805,378.524 173.184,378.521 186.016,364.267 206.633,364.263      "/></g><path d="M285.348,371.392c0-5.191-4.215-9.398-9.398-9.406c-5.191,0.004-9.402,4.211-9.402,9.406      c-0.004,5.188,4.207,9.398,9.402,9.398C281.137,380.79,285.348,376.579,285.348,371.392z" fill="#4A89DC"/></g><g><rect fill="#434A54" height="49.438" width="218.227" x="90" y="289.472"/><g><polygon fill="#303842" points="126.906,324.06 106.285,324.06 119.117,309.802 139.738,309.802      "/><polygon fill="#303842" points="160.352,324.06 139.738,324.056 152.566,309.802 173.184,309.802      "/><polygon fill="#303842" points="193.805,324.056 173.188,324.06 186.016,309.802 206.637,309.802      "/></g><path d="M285.344,316.931c0.004-5.191-4.207-9.398-9.395-9.398c-5.191,0-9.402,4.203-9.402,9.398      s4.211,9.406,9.402,9.402C281.137,326.333,285.348,322.118,285.344,316.931z" fill="#4A89DC"/></g><polygon fill="#303842" points="278.93,200.405 119.301,200.405 90,235.009 308.227,235.009    "/><g><rect fill="#434A54" height="49.438" width="218.227" x="90" y="235.009"/><g><polygon fill="#303842" points="126.906,269.603 106.285,269.603 119.117,255.345 139.734,255.345      "/><polygon fill="#303842" points="160.355,269.603 139.738,269.603 152.566,255.345 173.184,255.345      "/><polygon fill="#303842" points="193.805,269.603 173.188,269.603 186.012,255.345 206.633,255.345      "/></g><path d="M285.348,262.474c0-5.199-4.215-9.402-9.398-9.402c-5.191,0-9.402,4.211-9.402,9.402      c0,5.188,4.211,9.398,9.402,9.395C281.137,271.868,285.348,267.661,285.348,262.474z" fill="#4A89DC"/></g></g></g><path d="M512,256.001c0-4.453-0.117-8.879-0.34-13.273l-87.953-87.955l-0.125,0.123   c3.887,3.135,6.418,7.877,6.418,13.258V298.31v6.684c0,9.445-7.66,17.105-17.109,17.109h-65.375l4.254,18.234l-33.328,0.004   l41.945-0.004c3.43,0,6.215,2.785,6.215,6.215c0,3.426-2.781,6.215-6.219,6.215h-52.16l0.004,40.602H90l113.137,113.137   c17.063,3.582,34.738,5.496,52.863,5.496C397.383,512.001,512,397.384,512,256.001z" fill="#967ADA"/></g></svg>