<?xml version="1.0" encoding="UTF-8" standalone="no"?>
<svg
   xmlns:dc="http://purl.org/dc/elements/1.1/"
   xmlns:cc="http://creativecommons.org/ns#"
   xmlns:rdf="http://www.w3.org/1999/02/22-rdf-syntax-ns#"
   xmlns:svg="http://www.w3.org/2000/svg"
   xmlns="http://www.w3.org/2000/svg"
   xmlns:sodipodi="http://sodipodi.sourceforge.net/DTD/sodipodi-0.dtd"
   xmlns:inkscape="http://www.inkscape.org/namespaces/inkscape"
   enable-background="new 0 0 512 512"
   height="512px"
   id="Слой_1"
   version="1.1"
   viewBox="0 0 512 512"
   width="512px"
   xml:space="preserve"
   inkscape:version="0.92.1 unknown"
   sodipodi:docname="ci.svg"><metadata
     id="metadata57"><rdf:RDF><cc:Work
         rdf:about=""><dc:format>image/svg+xml</dc:format><dc:type
           rdf:resource="http://purl.org/dc/dcmitype/StillImage" /><dc:title /></cc:Work></rdf:RDF></metadata><defs
     id="defs55" /><sodipodi:namedview
     pagecolor="#ffffff"
     bordercolor="#666666"
     borderopacity="1"
     objecttolerance="10"
     gridtolerance="10"
     guidetolerance="10"
     inkscape:pageopacity="0"
     inkscape:pageshadow="2"
     inkscape:window-width="776"
     inkscape:window-height="480"
     id="namedview53"
     showgrid="false"
     inkscape:zoom="0.4609375"
     inkscape:cx="256"
     inkscape:cy="256"
     inkscape:window-x="0"
     inkscape:window-y="25"
     inkscape:window-maximized="0"
     inkscape:current-layer="Слой_1" /><g
     id="Code_Optimization_1_"><g
       id="Code_Optimization"><g
         id="g7"><g
           id="g9"><path
             d="M427.285,203.191c0,5.229-4.234,9.471-9.465,9.473l-321.066-0.002c-5.234-0.002-9.469-4.236-9.469-9.465      v-64.789c0-5.232,4.234-9.467,9.469-9.467l321.066-0.006c5.23-0.002,9.465,4.232,9.465,9.469V203.191z"
             fill="#CCD1D9"
             id="path11" /><rect
             fill="#E5E8EC"
             height="229.5"
             width="340"
             x="87.285"
             y="153.551"
             id="rect13" /><path
             d="M103.035,138.727c-1.852,0-3.367,1.512-3.367,3.363c0,1.859,1.516,3.365,3.367,3.367      c1.867-0.004,3.363-1.51,3.367-3.363C106.398,140.238,104.898,138.725,103.035,138.727z"
             fill="#E6E9ED"
             id="path15" /><path
             d="M118.5,138.725c-1.852,0-3.367,1.514-3.367,3.371c0.004,1.854,1.512,3.363,3.367,3.361      c1.859-0.004,3.363-1.508,3.363-3.359C121.863,140.238,120.355,138.725,118.5,138.725z"
             fill="#E6E9ED"
             id="path17" /><path
             d="M133.957,138.725c-1.852,0-3.359,1.51-3.363,3.365c0,1.859,1.512,3.367,3.363,3.367      c1.859-0.004,3.367-1.508,3.367-3.363C137.324,140.236,135.813,138.725,133.957,138.725z"
             fill="#E6E9ED"
             id="path19" /></g><rect
           fill="#424953"
           height="8.203"
           width="63.871"
           x="105.984"
           y="170.852"
           id="rect21" /><rect
           fill="#9ED36A"
           height="8.209"
           width="31.934"
           x="124.914"
           y="189.782"
           id="rect23" /><rect
           fill="#FB6D51"
           height="8.199"
           width="83.863"
           x="143.844"
           y="208.719"
           id="rect25" /><rect
           fill="#FECD57"
           height="8.199"
           width="219.289"
           x="143.846"
           y="227.654"
           id="rect27" /><rect
           fill="#FB6D51"
           height="8.203"
           width="83.863"
           x="143.844"
           y="246.582"
           id="rect29" /><rect
           fill="#9ED36A"
           height="8.199"
           width="102.793"
           x="124.914"
           y="265.52"
           id="rect31" /><rect
           fill="#46CEAD"
           height="8.203"
           width="171.996"
           x="143.844"
           y="284.449"
           id="rect33" /><rect
           fill="#FECD57"
           height="8.203"
           width="228.801"
           x="162.781"
           y="303.383"
           id="rect35" /><rect
           fill="#FB6D51"
           height="8.207"
           width="44.941"
           x="143.844"
           y="322.311"
           id="rect37" /><rect
           fill="#9ED36A"
           height="8.203"
           width="100.684"
           x="124.914"
           y="341.246"
           id="rect39" /><rect
           fill="#424953"
           height="8.203"
           width="63.871"
           x="105.984"
           y="360.176"
           id="rect41" /></g><path
         d="M377.434,271.883l-6.039-2.449c-7.723-4.785-11.121-14.582-7.602-23.285    c1.484-3.668,3.984-6.629,7.031-8.664l6.648-2.824c0.008,0,0.016-0.016,0.023-0.016h-0.008l-9.938-23.395l-0.027-0.051    c-0.105,0.059-0.207,0.127-0.32,0.203l-6.031,2.555c-8.859,2.078-18.18-2.449-21.852-11.105    c-1.547-3.633-1.871-7.496-1.152-11.105l2.695-6.684c0,0,0.004,0,0.016-0.008l-0.012,0.002l-23.578-9.531l-0.063-0.025    c-0.031,0.141-0.07,0.279-0.094,0.416l-2.434,6.035c-4.809,7.721-14.602,11.104-23.316,7.59c-3.668-1.479-6.633-3.98-8.676-7.033    l-2.82-6.641c0,0,0,0,0-0.01l-23.422,9.926l-0.055,0.029c0.059,0.107,0.129,0.221,0.199,0.316l2.566,6.039    c2.07,8.842-2.461,18.158-11.117,21.828c-3.648,1.549-7.504,1.879-11.121,1.154l-6.668-2.699c-0.008,0.002-0.023,0.002-0.023-0.01    v0.012l0,0l-9.527,23.574l-0.02,0.055c0.129,0.02,0.266,0.055,0.402,0.094l6.039,2.434c7.727,4.785,11.121,14.582,7.594,23.301    c-1.484,3.656-3.98,6.621-7.027,8.668l-6.641,2.805c-0.012,0.012-0.02,0.012-0.023,0.012h0.004l9.934,23.398h0.004l0.027,0.07    c0.105-0.07,0.211-0.145,0.324-0.211l6.035-2.555c8.848-2.078,18.172,2.457,21.844,11.109c1.547,3.633,1.867,7.488,1.156,11.098    l-2.695,6.676c-0.008,0.012-0.016,0.008-0.016,0.027l23.59,9.512l0.059,0.023c0.027-0.141,0.055-0.273,0.102-0.414l2.438-6.023    c4.793-7.727,14.582-11.113,23.305-7.59c3.672,1.48,6.625,3.969,8.68,7.039l2.813,6.621c0,0.008,0.008,0.016,0.008,0.016l0,0    l23.414-9.938l0.063-0.023c-0.078-0.102-0.137-0.211-0.211-0.313l-2.559-6.035c-2.07-8.848,2.457-18.168,11.117-21.816    c3.637-1.566,7.496-1.883,11.109-1.176l6.68,2.699c0.02,0,0.02,0.012,0.023,0.016l9.527-23.574l0.023-0.074    C377.703,271.941,377.57,271.902,377.434,271.883z M311.277,282.305c-15.629,6.621-33.672-0.66-40.309-16.281    c-6.629-15.621,0.656-33.645,16.289-40.273c15.629-6.633,33.672,0.664,40.309,16.281    C334.199,257.641,326.906,275.672,311.277,282.305z"
         fill="#424953"
         id="path43" /><path
         d="M299.266,207.996c-25.418,0-46.016,20.605-46.016,46.023c0,25.422,20.602,46.023,46.016,46.023    c25.422,0,46.027-20.602,46.031-46.023C345.297,228.605,324.688,207.996,299.266,207.996z M311.277,282.305    c-15.629,6.621-33.672-0.66-40.309-16.281c-6.629-15.621,0.656-33.645,16.289-40.273c15.629-6.633,33.672,0.664,40.309,16.281    C334.199,257.641,326.906,275.672,311.277,282.305z"
         fill="#303842"
         id="path45" /><path
         d="M427.285,351.316V335.41h-9.016c-0.758-2.902-1.883-5.652-3.375-8.18l6.367-6.375L410,309.621l-6.316,6.32    c-2.563-1.531-5.352-2.703-8.305-3.469l-0.004-8.953h-15.91v8.953c-2.93,0.754-5.676,1.906-8.219,3.41l-6.34-6.332l-11.25,11.242    l6.336,6.336c-1.504,2.555-2.672,5.324-3.426,8.285h-8.859l-0.004,15.902l8.91-0.004c0.758,2.926,1.922,5.691,3.441,8.238    l-6.32,6.305l11.254,11.254l6.375-6.363c2.488,1.477,5.211,2.598,8.102,3.352v8.953h15.91v-8.953    c2.926-0.754,5.68-1.922,8.207-3.398l6.344,6.32l11.25-11.227l-6.336-6.355c1.484-2.496,2.629-5.215,3.387-8.121H427.285z     M387.414,355.035c-6.496,0.004-11.762-5.25-11.762-11.75c0-6.488,5.266-11.758,11.762-11.758    c6.504,0.004,11.758,5.27,11.758,11.758C399.172,349.785,393.918,355.043,387.414,355.035z"
         fill="#424953"
         id="path47" /><path
         d="M311.73,254.02c0,6.883-5.578,12.457-12.465,12.453c-6.879,0-12.457-5.57-12.457-12.453    c0-6.879,5.578-12.453,12.457-12.453C306.152,241.563,311.73,247.141,311.73,254.02z"
         fill="#303842"
         id="path49" /></g></g></svg>