<?xml version="1.0" encoding="UTF-8" standalone="no"?>
<svg
   xmlns:dc="http://purl.org/dc/elements/1.1/"
   xmlns:cc="http://creativecommons.org/ns#"
   xmlns:rdf="http://www.w3.org/1999/02/22-rdf-syntax-ns#"
   xmlns:svg="http://www.w3.org/2000/svg"
   xmlns="http://www.w3.org/2000/svg"
   xmlns:sodipodi="http://sodipodi.sourceforge.net/DTD/sodipodi-0.dtd"
   xmlns:inkscape="http://www.inkscape.org/namespaces/inkscape"
   enable-background="new 0 0 128 128"
   id="Layer_1"
   version="1.1"
   viewBox="0 0 128 128"
   xml:space="preserve"
   inkscape:version="0.92.1 unknown"
   width="100%"
   height="100%"
   sodipodi:docname="cloud.svg"><metadata
     id="metadata141"><rdf:RDF><cc:Work
         rdf:about=""><dc:format>image/svg+xml</dc:format><dc:type
           rdf:resource="http://purl.org/dc/dcmitype/StillImage" /><dc:title /></cc:Work></rdf:RDF></metadata><defs
     id="defs139" /><sodipodi:namedview
     pagecolor="#ffffff"
     bordercolor="#666666"
     borderopacity="1"
     objecttolerance="10"
     gridtolerance="10"
     guidetolerance="10"
     inkscape:pageopacity="0"
     inkscape:pageshadow="2"
     inkscape:window-width="640"
     inkscape:window-height="480"
     id="namedview137"
     showgrid="false"
     inkscape:zoom="1.84375"
     inkscape:cx="64"
     inkscape:cy="64"
     inkscape:window-x="0"
     inkscape:window-y="25"
     inkscape:window-maximized="0"
     inkscape:current-layer="Layer_1" /><g
     id="g3"><g
       id="g9"><g
         id="g11"><path
           d="M90.9,39.7c-0.4,0-0.7,0-1.1,0c0,0,0,0,0,0c0-7.5-6.1-13.6-13.6-13.6c-2.5,0-4.8,0.7-6.8,1.8     c-3.3-5.5-9.3-9.1-16.2-9.1c-10.5,0-19,8.5-19,19c0,0.9,0.1,1.8,0.2,2.6c-7.1,2.1-12.3,8.6-12.3,16.4c0,9.4,7.6,17,17,17     c-1.1,0,51.8,0,51.8,0c9.4,0,17-7.6,17-17S100.3,39.7,90.9,39.7z"
           fill="#FFFFFF"
           id="path13" /><path
           d="M91.9,41.7c-0.3,0-0.7,0-1,0c0,0,0,0,0,0c0-7.1-5.8-12.9-12.9-12.9c-2.4,0-4.6,0.6-6.5,1.7     c-3.1-5.1-8.8-8.6-15.3-8.6c-9.9,0-17.9,8-17.9,17.9c0,0.8,0.1,1.7,0.2,2.5c-6.7,1.9-11.6,8.1-11.6,15.4     c0,8.9,7.2,16.1,16.1,16.1c-1,0,48.9,0,48.9,0c8.9,0,16.1-7.2,16.1-16.1C107.9,48.9,100.7,41.7,91.9,41.7z"
           fill="#E5E8EC"
           id="path15" /></g><g
         id="g17"><path
           d="M91.3,47.8c-0.3,0-0.6,0-0.8,0c0,0,0,0,0,0c0-5.8-4.7-10.4-10.4-10.4c-1.9,0-3.7,0.5-5.2,1.4     c-2.5-4.2-7.1-6.9-12.4-6.9c-8,0-14.5,6.5-14.5,14.5c0,0.7,0.1,1.3,0.1,2c-5.4,1.6-9.4,6.6-9.4,12.5c0,7.2,5.8,13,13,13     c-0.8,0,39.6,0,39.6,0c7.2,0,13-5.8,13-13C104.3,53.6,98.5,47.8,91.3,47.8z"
           fill="#FFFFFF"
           id="path19" /><path
           d="M92.1,49.2c-0.3,0-0.5,0-0.8,0c0,0,0,0,0,0c0-5.4-4.4-9.8-9.8-9.8c-1.8,0-3.5,0.5-4.9,1.3     c-2.4-3.9-6.7-6.6-11.7-6.6c-7.5,0-13.7,6.1-13.7,13.7c0,0.6,0,1.3,0.1,1.9c-5.1,1.5-8.9,6.2-8.9,11.8c0,6.8,5.5,12.3,12.3,12.3     c-0.8,0,37.3,0,37.3,0c6.8,0,12.3-5.5,12.3-12.3C104.3,54.7,98.8,49.2,92.1,49.2z"
           fill="#E5E8EC"
           id="path21" /></g></g><g
       id="g23"><path
         d="M89.4,56.7H40.6c-1.2,0-2.2,1-2.2,2.2V71c0,1.2,1,2.2,2.2,2.2h48.8c1.2,0,2.2-1,2.2-2.2V58.9    C91.6,57.7,90.6,56.7,89.4,56.7z"
         fill="#616B77"
         id="path25" /><g
         id="g27"><circle
           cx="46.8"
           cy="64.9"
           fill="#FFFFFF"
           r="5.1"
           id="circle29" /><circle
           cx="46.8"
           cy="64.9"
           fill="#EF4C45"
           r="2.9"
           id="circle31" /></g><g
         id="g33"><g
           id="g35"><path
             d="M62.7,62h-0.3c-0.7,0-1.2-0.5-1.2-1.2v-0.3c0-0.7,0.5-1.2,1.2-1.2h0.3c0.7,0,1.2,0.5,1.2,1.2v0.3      C63.9,61.4,63.4,62,62.7,62z"
             fill="#CED4DF"
             id="path37" /><path
             d="M67.6,62h-0.3c-0.7,0-1.2-0.5-1.2-1.2v-0.3c0-0.7,0.5-1.2,1.2-1.2h0.3c0.7,0,1.2,0.5,1.2,1.2v0.3      C68.8,61.4,68.3,62,67.6,62z"
             fill="#CED4DF"
             id="path39" /><path
             d="M72.5,62h-0.3c-0.7,0-1.2-0.5-1.2-1.2v-0.3c0-0.7,0.5-1.2,1.2-1.2h0.3c0.7,0,1.2,0.5,1.2,1.2v0.3      C73.7,61.4,73.2,62,72.5,62z"
             fill="#CED4DF"
             id="path41" /><path
             d="M77.4,62h-0.3c-0.7,0-1.2-0.5-1.2-1.2v-0.3c0-0.7,0.5-1.2,1.2-1.2h0.3c0.7,0,1.2,0.5,1.2,1.2v0.3      C78.6,61.4,78.1,62,77.4,62z"
             fill="#CED4DF"
             id="path43" /><path
             d="M82.3,62H82c-0.7,0-1.2-0.5-1.2-1.2v-0.3c0-0.7,0.5-1.2,1.2-1.2h0.3c0.7,0,1.2,0.5,1.2,1.2v0.3      C83.5,61.4,83,62,82.3,62z"
             fill="#CED4DF"
             id="path45" /><path
             d="M87.2,62h-0.3c-0.7,0-1.2-0.5-1.2-1.2v-0.3c0-0.7,0.5-1.2,1.2-1.2h0.3c0.7,0,1.2,0.5,1.2,1.2v0.3      C88.4,61.4,87.9,62,87.2,62z"
             fill="#CED4DF"
             id="path47" /></g><g
           id="g49"><path
             d="M62.7,66.3h-0.3c-0.7,0-1.2-0.5-1.2-1.2v-0.3c0-0.7,0.5-1.2,1.2-1.2h0.3c0.7,0,1.2,0.5,1.2,1.2v0.3      C63.9,65.8,63.4,66.3,62.7,66.3z"
             fill="#CED4DF"
             id="path51" /><path
             d="M67.6,66.3h-0.3c-0.7,0-1.2-0.5-1.2-1.2v-0.3c0-0.7,0.5-1.2,1.2-1.2h0.3c0.7,0,1.2,0.5,1.2,1.2v0.3      C68.8,65.8,68.3,66.3,67.6,66.3z"
             fill="#CED4DF"
             id="path53" /><path
             d="M72.5,66.3h-0.3c-0.7,0-1.2-0.5-1.2-1.2v-0.3c0-0.7,0.5-1.2,1.2-1.2h0.3c0.7,0,1.2,0.5,1.2,1.2v0.3      C73.7,65.8,73.2,66.3,72.5,66.3z"
             fill="#CED4DF"
             id="path55" /><path
             d="M77.4,66.3h-0.3c-0.7,0-1.2-0.5-1.2-1.2v-0.3c0-0.7,0.5-1.2,1.2-1.2h0.3c0.7,0,1.2,0.5,1.2,1.2v0.3      C78.6,65.8,78.1,66.3,77.4,66.3z"
             fill="#CED4DF"
             id="path57" /><path
             d="M82.3,66.3H82c-0.7,0-1.2-0.5-1.2-1.2v-0.3c0-0.7,0.5-1.2,1.2-1.2h0.3c0.7,0,1.2,0.5,1.2,1.2v0.3      C83.5,65.8,83,66.3,82.3,66.3z"
             fill="#CED4DF"
             id="path59" /><path
             d="M87.2,66.3h-0.3c-0.7,0-1.2-0.5-1.2-1.2v-0.3c0-0.7,0.5-1.2,1.2-1.2h0.3c0.7,0,1.2,0.5,1.2,1.2v0.3      C88.4,65.8,87.9,66.3,87.2,66.3z"
             fill="#CED4DF"
             id="path61" /></g><g
           id="g63"><path
             d="M62.7,70.6h-0.3c-0.7,0-1.2-0.5-1.2-1.2v-0.3c0-0.7,0.5-1.2,1.2-1.2h0.3c0.7,0,1.2,0.5,1.2,1.2v0.3      C63.9,70.1,63.4,70.6,62.7,70.6z"
             fill="#CED4DF"
             id="path65" /><path
             d="M67.6,70.6h-0.3c-0.7,0-1.2-0.5-1.2-1.2v-0.3c0-0.7,0.5-1.2,1.2-1.2h0.3c0.7,0,1.2,0.5,1.2,1.2v0.3      C68.8,70.1,68.3,70.6,67.6,70.6z"
             fill="#CED4DF"
             id="path67" /><path
             d="M72.5,70.6h-0.3c-0.7,0-1.2-0.5-1.2-1.2v-0.3c0-0.7,0.5-1.2,1.2-1.2h0.3c0.7,0,1.2,0.5,1.2,1.2v0.3      C73.7,70.1,73.2,70.6,72.5,70.6z"
             fill="#CED4DF"
             id="path69" /><path
             d="M77.4,70.6h-0.3c-0.7,0-1.2-0.5-1.2-1.2v-0.3c0-0.7,0.5-1.2,1.2-1.2h0.3c0.7,0,1.2,0.5,1.2,1.2v0.3      C78.6,70.1,78.1,70.6,77.4,70.6z"
             fill="#CED4DF"
             id="path71" /><path
             d="M82.3,70.6H82c-0.7,0-1.2-0.5-1.2-1.2v-0.3c0-0.7,0.5-1.2,1.2-1.2h0.3c0.7,0,1.2,0.5,1.2,1.2v0.3      C83.5,70.1,83,70.6,82.3,70.6z"
             fill="#CED4DF"
             id="path73" /><path
             d="M87.2,70.6h-0.3c-0.7,0-1.2-0.5-1.2-1.2v-0.3c0-0.7,0.5-1.2,1.2-1.2h0.3c0.7,0,1.2,0.5,1.2,1.2v0.3      C88.4,70.1,87.9,70.6,87.2,70.6z"
             fill="#CED4DF"
             id="path75" /></g></g><path
         d="M89.4,77H40.6c-1.2,0-2.2,1-2.2,2.2v12.1c0,1.2,1,2.2,2.2,2.2h48.8c1.2,0,2.2-1,2.2-2.2V79.2    C91.6,78,90.6,77,89.4,77z"
         fill="#616B77"
         id="path77" /><g
         id="g79"><circle
           cx="46.8"
           cy="85.2"
           fill="#FFFFFF"
           r="5.1"
           id="circle81" /><circle
           cx="46.8"
           cy="85.2"
           fill="#EF4C45"
           r="2.9"
           id="circle83" /></g><g
         id="g85"><g
           id="g87"><path
             d="M62.7,82.3h-0.3c-0.7,0-1.2-0.5-1.2-1.2v-0.3c0-0.7,0.5-1.2,1.2-1.2h0.3c0.7,0,1.2,0.5,1.2,1.2v0.3      C63.9,81.7,63.4,82.3,62.7,82.3z"
             fill="#CED4DF"
             id="path89" /><path
             d="M67.6,82.3h-0.3c-0.7,0-1.2-0.5-1.2-1.2v-0.3c0-0.7,0.5-1.2,1.2-1.2h0.3c0.7,0,1.2,0.5,1.2,1.2v0.3      C68.8,81.7,68.3,82.3,67.6,82.3z"
             fill="#CED4DF"
             id="path91" /><path
             d="M72.5,82.3h-0.3c-0.7,0-1.2-0.5-1.2-1.2v-0.3c0-0.7,0.5-1.2,1.2-1.2h0.3c0.7,0,1.2,0.5,1.2,1.2v0.3      C73.7,81.7,73.2,82.3,72.5,82.3z"
             fill="#CED4DF"
             id="path93" /><path
             d="M77.4,82.3h-0.3c-0.7,0-1.2-0.5-1.2-1.2v-0.3c0-0.7,0.5-1.2,1.2-1.2h0.3c0.7,0,1.2,0.5,1.2,1.2v0.3      C78.6,81.7,78.1,82.3,77.4,82.3z"
             fill="#CED4DF"
             id="path95" /><path
             d="M82.3,82.3H82c-0.7,0-1.2-0.5-1.2-1.2v-0.3c0-0.7,0.5-1.2,1.2-1.2h0.3c0.7,0,1.2,0.5,1.2,1.2v0.3      C83.5,81.7,83,82.3,82.3,82.3z"
             fill="#CED4DF"
             id="path97" /><path
             d="M87.2,82.3h-0.3c-0.7,0-1.2-0.5-1.2-1.2v-0.3c0-0.7,0.5-1.2,1.2-1.2h0.3c0.7,0,1.2,0.5,1.2,1.2v0.3      C88.4,81.7,87.9,82.3,87.2,82.3z"
             fill="#CED4DF"
             id="path99" /></g><g
           id="g101"><path
             d="M62.7,86.6h-0.3c-0.7,0-1.2-0.5-1.2-1.2V85c0-0.7,0.5-1.2,1.2-1.2h0.3c0.7,0,1.2,0.5,1.2,1.2v0.3      C63.9,86,63.4,86.6,62.7,86.6z"
             fill="#CED4DF"
             id="path103" /><path
             d="M67.6,86.6h-0.3c-0.7,0-1.2-0.5-1.2-1.2V85c0-0.7,0.5-1.2,1.2-1.2h0.3c0.7,0,1.2,0.5,1.2,1.2v0.3      C68.8,86,68.3,86.6,67.6,86.6z"
             fill="#CED4DF"
             id="path105" /><path
             d="M72.5,86.6h-0.3c-0.7,0-1.2-0.5-1.2-1.2V85c0-0.7,0.5-1.2,1.2-1.2h0.3c0.7,0,1.2,0.5,1.2,1.2v0.3      C73.7,86,73.2,86.6,72.5,86.6z"
             fill="#CED4DF"
             id="path107" /><path
             d="M77.4,86.6h-0.3c-0.7,0-1.2-0.5-1.2-1.2V85c0-0.7,0.5-1.2,1.2-1.2h0.3c0.7,0,1.2,0.5,1.2,1.2v0.3      C78.6,86,78.1,86.6,77.4,86.6z"
             fill="#CED4DF"
             id="path109" /><path
             d="M82.3,86.6H82c-0.7,0-1.2-0.5-1.2-1.2V85c0-0.7,0.5-1.2,1.2-1.2h0.3c0.7,0,1.2,0.5,1.2,1.2v0.3      C83.5,86,83,86.6,82.3,86.6z"
             fill="#CED4DF"
             id="path111" /><path
             d="M87.2,86.6h-0.3c-0.7,0-1.2-0.5-1.2-1.2V85c0-0.7,0.5-1.2,1.2-1.2h0.3c0.7,0,1.2,0.5,1.2,1.2v0.3      C88.4,86,87.9,86.6,87.2,86.6z"
             fill="#CED4DF"
             id="path113" /></g><g
           id="g115"><path
             d="M62.7,90.9h-0.3c-0.7,0-1.2-0.5-1.2-1.2v-0.3c0-0.7,0.5-1.2,1.2-1.2h0.3c0.7,0,1.2,0.5,1.2,1.2v0.3      C63.9,90.3,63.4,90.9,62.7,90.9z"
             fill="#CED4DF"
             id="path117" /><path
             d="M67.6,90.9h-0.3c-0.7,0-1.2-0.5-1.2-1.2v-0.3c0-0.7,0.5-1.2,1.2-1.2h0.3c0.7,0,1.2,0.5,1.2,1.2v0.3      C68.8,90.3,68.3,90.9,67.6,90.9z"
             fill="#CED4DF"
             id="path119" /><path
             d="M72.5,90.9h-0.3c-0.7,0-1.2-0.5-1.2-1.2v-0.3c0-0.7,0.5-1.2,1.2-1.2h0.3c0.7,0,1.2,0.5,1.2,1.2v0.3      C73.7,90.3,73.2,90.9,72.5,90.9z"
             fill="#CED4DF"
             id="path121" /><path
             d="M77.4,90.9h-0.3c-0.7,0-1.2-0.5-1.2-1.2v-0.3c0-0.7,0.5-1.2,1.2-1.2h0.3c0.7,0,1.2,0.5,1.2,1.2v0.3      C78.6,90.3,78.1,90.9,77.4,90.9z"
             fill="#CED4DF"
             id="path123" /><path
             d="M82.3,90.9H82c-0.7,0-1.2-0.5-1.2-1.2v-0.3c0-0.7,0.5-1.2,1.2-1.2h0.3c0.7,0,1.2,0.5,1.2,1.2v0.3      C83.5,90.3,83,90.9,82.3,90.9z"
             fill="#CED4DF"
             id="path125" /><path
             d="M87.2,90.9h-0.3c-0.7,0-1.2-0.5-1.2-1.2v-0.3c0-0.7,0.5-1.2,1.2-1.2h0.3c0.7,0,1.2,0.5,1.2,1.2v0.3      C88.4,90.3,87.9,90.9,87.2,90.9z"
             fill="#CED4DF"
             id="path127" /></g></g><rect
         fill="#444D5B"
         height="3.9"
         width="44.4"
         x="42.8"
         y="73.1"
         id="rect129" /><path
         d="M81.1,102.3H67v-8.8h-3v8.8H49.9c-0.8,0-1.5,0.7-1.5,1.5v0c0,0.8,0.7,1.5,1.5,1.5h31.2    c0.8,0,1.5-0.7,1.5-1.5S81.9,102.3,81.1,102.3z"
         fill="#444D5B"
         id="path131" /><circle
         cx="65.5"
         cy="103.8"
         fill="#FFFFFF"
         r="5.3"
         id="circle133" /><circle
         cx="65.5"
         cy="103.8"
         fill="#FFCC04"
         r="2.8"
         id="circle135" /></g></g></svg>