<?xml version="1.0" encoding="UTF-8" standalone="no"?>
<svg
   xmlns:dc="http://purl.org/dc/elements/1.1/"
   xmlns:cc="http://creativecommons.org/ns#"
   xmlns:rdf="http://www.w3.org/1999/02/22-rdf-syntax-ns#"
   xmlns:svg="http://www.w3.org/2000/svg"
   xmlns="http://www.w3.org/2000/svg"
   xmlns:sodipodi="http://sodipodi.sourceforge.net/DTD/sodipodi-0.dtd"
   xmlns:inkscape="http://www.inkscape.org/namespaces/inkscape"
   id="Layer_1"
   style="enable-background:new 0 0 512 512;"
   version="1.1"
   viewBox="0 0 512 512"
   xml:space="preserve"
   inkscape:version="0.48.4 r9939"
   width="100%"
   height="100%"
   sodipodi:docname="domain3.svg"><metadata
     id="metadata39"><rdf:RDF><cc:Work
         rdf:about=""><dc:format>image/svg+xml</dc:format><dc:type
           rdf:resource="http://purl.org/dc/dcmitype/StillImage" /><dc:title></dc:title></cc:Work></rdf:RDF></metadata><defs
     id="defs37" /><sodipodi:namedview
     pagecolor="#ffffff"
     bordercolor="#666666"
     borderopacity="1"
     objecttolerance="10"
     gridtolerance="10"
     guidetolerance="10"
     inkscape:pageopacity="0"
     inkscape:pageshadow="2"
     inkscape:window-width="1920"
     inkscape:window-height="1030"
     id="namedview35"
     showgrid="false"
     inkscape:zoom="0.921875"
     inkscape:cx="336.93213"
     inkscape:cy="296.49365"
     inkscape:window-x="0"
     inkscape:window-y="0"
     inkscape:window-maximized="1"
     inkscape:current-layer="g5" /><style
     type="text/css"
     id="style3">
	.st0{fill:#334D5C;}
	.st1{opacity:0.1;}
	.st2{fill:#EBF0F3;}
	.st3{fill:#E56353;}
	.st4{fill:#D15241;}
	.st5{fill:#CE412D;}
	.st6{fill:#FFFFFF;}
	.st7{fill:#64798A;}
	.st8{fill:#45B39C;}
	.st9{fill:#FCD462;}
	.st10{fill:#DC8744;}
	.st11{fill:#3A556A;}
	.st12{fill:#44C4A1;}
	.st13{fill:#27A2DB;}
	.st14{fill:#D5D6DB;}
	.st15{fill:#EA8953;}
	.st16{fill:#EFC84A;}
	.st17{fill:#2F4859;}
	.st18{fill:#F6C358;}
	.st19{fill:#C1C3C9;}
	.st20{fill:#E1E6E9;}
	.st21{fill:#2D93BA;}
	.st22{fill:#3EA69B;}
	.st23{opacity:0.25;fill:#FFFFFF;}
	.st24{fill:#E05B49;}
	.st25{fill:#31978C;}
	.st26{fill:#1C75A1;}
	.st27{opacity:0.25;fill:#27A2DB;}
	.st28{fill:none;}
</style><g
     id="g5"><g
       id="g11"><path
         class="st7"
         d="M380.1,144.7c0-4.1-3.2-7.5-7.1-7.5H139c-3.9,0-7.1,3.3-7.1,7.5v161.9h248.2V144.7z"
         id="path13" /><rect
         class="st9"
         height="139.8"
         width="219.9"
         x="146.1"
         y="152"
         id="rect15" /><path
         class="st2"
         d="M131.9,306.6v27.5c0,4.1,3.2,7.5,7.1,7.5H373c3.9,0,7.1-3.3,7.1-7.5v-27.5H131.9z"
         id="path17" /><ellipse
         class="st7"
         cx="256"
         cy="324.1"
         rx="9.7"
         ry="10.1"
         id="ellipse19" /><rect
         class="st20"
         height="21.2"
         width="70.8"
         x="220.6"
         y="341.5"
         id="rect21" /><polygon
         class="st14"
         points="291.4,362.8 220.6,341.5 291.4,341.5   "
         id="polygon23" /><polygon
         class="st2"
         points="291.4,362.8 220.6,362.8 211.5,374.8 300.5,374.8   "
         id="polygon25" /><g
         id="g27"><path
           class="st7"
           d="M189.6,238.9h-8.2l-11.8-34h7.4l8.4,25.7l8.4-25.7h7.4l8.4,25.7l8.4-25.7h7.4l-11.8,34h-8.2l-8.1-23.3     L189.6,238.9z"
           id="path29" /><path
           class="st7"
           d="M247.9,238.9h-8.2l-11.8-34h7.4l8.4,25.7l8.4-25.7h7.4l8.4,25.7l8.4-25.7h7.4l-11.8,34h-8.2l-8.1-23.3     L247.9,238.9z"
           id="path31" /><path
           class="st7"
           d="M306.3,238.9h-8.2l-11.8-34h7.4l8.4,25.7l8.4-25.7h7.4l8.4,25.7l8.4-25.7h7.4l-11.8,34h-8.2l-8.1-23.3     L306.3,238.9z"
           id="path33" /></g></g></g></svg>