<?xml version="1.0" encoding="UTF-8" standalone="no"?>
<svg
   xmlns:dc="http://purl.org/dc/elements/1.1/"
   xmlns:cc="http://creativecommons.org/ns#"
   xmlns:rdf="http://www.w3.org/1999/02/22-rdf-syntax-ns#"
   xmlns:svg="http://www.w3.org/2000/svg"
   xmlns="http://www.w3.org/2000/svg"
   xmlns:sodipodi="http://sodipodi.sourceforge.net/DTD/sodipodi-0.dtd"
   xmlns:inkscape="http://www.inkscape.org/namespaces/inkscape"
   enable-background="new 0 0 512 512"
   height="512px"
   id="Слой_1"
   version="1.1"
   viewBox="0 0 512 512"
   width="512px"
   xml:space="preserve"
   inkscape:version="0.92.1 unknown"
   sodipodi:docname="errors.svg"><metadata
     id="metadata99"><rdf:RDF><cc:Work
         rdf:about=""><dc:format>image/svg+xml</dc:format><dc:type
           rdf:resource="http://purl.org/dc/dcmitype/StillImage" /><dc:title /></cc:Work></rdf:RDF></metadata><defs
     id="defs97" /><sodipodi:namedview
     pagecolor="#ffffff"
     bordercolor="#666666"
     borderopacity="1"
     objecttolerance="10"
     gridtolerance="10"
     guidetolerance="10"
     inkscape:pageopacity="0"
     inkscape:pageshadow="2"
     inkscape:window-width="1920"
     inkscape:window-height="1123"
     id="namedview95"
     showgrid="false"
     inkscape:zoom="0.4609375"
     inkscape:cx="260.33898"
     inkscape:cy="256"
     inkscape:window-x="0"
     inkscape:window-y="25"
     inkscape:window-maximized="1"
     inkscape:current-layer="Слой_1" /><g
     id="Bug_Fix_1_"><g
       id="Bug_Fix"><g
         id="g7"><g
           id="g9"><path
             d="M388.845,212.076c0,4.352-3.523,7.873-7.875,7.873l-267.096,0.006c-4.348,0-7.873-3.525-7.873-7.879      l-0.002-53.9c0.002-4.344,3.527-7.875,7.875-7.875H380.97c4.352,0.002,7.875,3.523,7.875,7.875V212.076z"
             fill="#CCD1D9"
             id="path11" /><rect
             fill="#E5E8EC"
             height="190.918"
             width="282.844"
             x="106"
             y="170.776"
             id="rect13" /><path
             d="M119.106,158.441c-1.545,0.004-2.803,1.258-2.803,2.805c0.002,1.543,1.26,2.797,2.801,2.797      c1.547,0,2.803-1.254,2.799-2.795C121.903,159.701,120.649,158.445,119.106,158.441z"
             fill="#E6E9ED"
             id="path15" /><circle
             cx="131.968"
             cy="161.243"
             fill="#E6E9ED"
             r="2.8"
             id="circle17" /><path
             d="M144.833,158.445c-1.547-0.002-2.803,1.254-2.803,2.801c-0.002,1.543,1.26,2.797,2.801,2.797      c1.547,0,2.797-1.252,2.799-2.795C147.63,159.701,146.374,158.443,144.833,158.445z"
             fill="#E6E9ED"
             id="path19" /></g><rect
           fill="#424953"
           height="6.828"
           width="53.135"
           x="121.554"
           y="185.17"
           id="rect21" /><rect
           fill="#9ED36A"
           height="6.824"
           width="26.566"
           x="137.306"
           y="200.919"
           id="rect23" /><rect
           fill="#FB6D51"
           height="6.828"
           width="69.762"
           x="153.055"
           y="216.668"
           id="rect25" /><rect
           fill="#FECD57"
           height="6.82"
           width="182.426"
           x="153.056"
           y="232.422"
           id="rect27" /><rect
           fill="#FB6D51"
           height="6.824"
           width="69.762"
           x="153.055"
           y="248.168"
           id="rect29" /><rect
           fill="#9ED36A"
           height="6.832"
           width="85.512"
           x="137.305"
           y="263.918"
           id="rect31" /><rect
           fill="#46CEAD"
           height="6.82"
           width="143.078"
           x="153.056"
           y="279.672"
           id="rect33" /><polygon
           fill="#FECD57"
           points="359.138,302.242 168.802,302.242 168.804,295.422 359.134,295.422    "
           id="polygon35" /><rect
           fill="#FB6D51"
           height="6.824"
           width="37.383"
           x="153.056"
           y="311.168"
           id="rect37" /><rect
           fill="#9ED36A"
           height="6.828"
           width="83.754"
           x="137.306"
           y="326.914"
           id="rect39" /><rect
           fill="#424953"
           height="6.82"
           width="53.135"
           x="121.554"
           y="342.672"
           id="rect41" /><g
           id="g43"><polygon
             fill="#C44155"
             points="333.173,257.754 330.817,258.711 323.106,239.734 325.47,238.773     "
             id="polygon45" /><polygon
             fill="#C44155"
             points="328.485,266.039 329.446,263.68 310.47,255.977 309.509,258.336     "
             id="polygon47" /><polygon
             fill="#C44155"
             points="313.696,247.793 315.501,245.996 330.896,261.391 329.095,263.191     "
             id="polygon49" /><polygon
             fill="#C44155"
             points="333.845,258.426 332.892,260.781 351.868,268.488 352.829,266.129     "
             id="polygon51" /><rect
             fill="#C44155"
             height="20.484"
             transform="matrix(-0.9267 0.3759 -0.3759 -0.9267 739.2332 400.0293)"
             width="2.546"
             x="329.322"
             y="261.883"
             id="rect53" /><rect
             fill="#C44155"
             height="21.771"
             transform="matrix(-0.7063 0.7079 -0.7079 -0.7063 765.6816 220.9666)"
             width="2.544"
             x="335.735"
             y="258.419"
             id="rect55" /><g
             id="g57"><polygon
               fill="#C44155"
               points="342.868,251.051 340.321,251.051 340.321,228.664 342.86,228.672      "
               id="polygon59" /><rect
               fill="#C44155"
               height="2.547"
               width="22.379"
               x="340.321"
               y="248.508"
               id="rect61" /></g><path
             d="M342.985,268.961c-8.133,8.141-21.367,8.102-25.02,4.445c-3.656-3.648-3.695-16.883,4.441-25.031      c8.137-8.133,19.344-10.117,25.023-4.438C353.114,249.625,351.126,260.828,342.985,268.961z"
             fill="#EC5564"
             id="path63" /><path
             d="M337.595,253.781c3.664,3.664,8.164,5.57,11.813,5.355c0.328-0.895,0.594-1.793,0.797-2.676      c-2.945,0.656-7.391-1.055-10.813-4.48c-3.418-3.418-5.133-7.863-4.484-10.813c-0.883,0.199-1.777,0.469-2.672,0.801      C332.024,245.617,333.927,250.109,337.595,253.781z"
             fill="#C44155"
             id="path65" /><path
             d="M317.185,272.391c0.238,0.391,0.496,0.73,0.781,1.016c0.281,0.281,0.629,0.547,1.02,0.781l20.438-20.438      l-1.801-1.801L317.185,272.391z"
             fill="#C44155"
             id="path67" /></g><rect
           fill="#EC5564"
           height="6.82"
           width="60.742"
           x="274.524"
           y="232.422"
           id="rect69" /></g><g
         id="g71"><path
           d="M391.224,290.434l54.543,54.504c1.09,1.082-1.727,5.664-6.289,10.234     c-4.563,4.559-9.141,7.375-10.23,6.289l-54.543-54.492L391.224,290.434z"
           fill="#303842"
           id="path73" /><path
           d="M439.478,355.172c-4.563,4.559-9.141,7.375-10.23,6.289l-54.543-54.492l8.262-8.273L439.478,355.172z"
           fill="#434A54"
           id="path75" /><path
           d="M374.704,306.969c1.094,1.086,5.672-1.734,10.234-6.301s7.375-9.152,6.285-10.234     c-1.09-1.09-5.664,1.734-10.223,6.297C376.438,301.297,373.618,305.875,374.704,306.969z"
           fill="#222930"
           id="path77" /><g
           opacity="0.2"
           id="g79"><path
             d="M288.681,283.613c21.867,21.848,57.305,21.836,79.156-0.031c21.848-21.867,21.836-57.305-0.031-79.156      c-21.867-21.85-57.305-21.832-79.152,0.029C266.798,226.32,266.813,261.766,288.681,283.613z"
             fill="#FFFFFF"
             id="path81" /></g><path
           d="M371.853,275.953l16.938,16.918c0.48,0.488-1.734,3.48-4.945,6.699c-3.219,3.219-6.219,5.445-6.703,4.961     l-16.938-16.922L371.853,275.953z"
           fill="#D7DCE0"
           id="path83" /><path
           d="M367.806,204.426c-21.867-21.85-57.305-21.832-79.152,0.029c-21.855,21.865-21.84,57.311,0.027,79.158     s57.305,21.836,79.156-0.031C389.685,261.715,389.673,226.277,367.806,204.426z M364.7,280.445     c-9.73,9.734-22.672,15.105-36.441,15.109c-13.762,0.004-26.707-5.348-36.445-15.078c-9.734-9.738-15.102-22.676-15.109-36.441     c0-13.766,5.355-26.707,15.082-36.443c9.727-9.738,22.672-15.105,36.438-15.111c13.77-0.006,26.711,5.354,36.449,15.076     c9.734,9.736,15.102,22.67,15.105,36.439S374.431,270.711,364.7,280.445z"
           fill="#303842"
           id="path85" /><path
           d="M383.845,299.57c-3.219,3.219-6.219,5.445-6.703,4.961l-16.938-16.922l5.828-5.832L383.845,299.57z"
           fill="#E5E8EC"
           id="path87" /><path
           d="M345.634,289.047c0.148-0.145,0.324-0.258,0.508-0.328c0,0,0.004,0,0.008-0.008     c5.973-2.383,11.453-5.996,16.137-10.68l0,0l0,0c4.68-4.68,8.277-10.164,10.664-16.141c0,0,0.004-0.008,0.008-0.016     c0.074-0.18,0.18-0.344,0.328-0.496c0.582-0.582,1.512-0.578,2.09,0.004l4.43,4.426c-2.719,6.457-6.711,12.512-11.969,17.773l0,0     l0,0c-5.258,5.262-11.313,9.254-17.766,11.988l-4.434-4.43C345.063,290.566,345.056,289.625,345.634,289.047z"
           fill="#434A54"
           id="path89" /><path
           d="M330.427,213.348c-1.648-0.207-3.328-0.328-5.027-0.328     c-22.211,0.002-40.203,18.004-40.203,40.203l10.063,0.004C295.259,232.727,310.603,215.82,330.427,213.348z"
           fill="#FFFFFF"
           opacity="0.5"
           id="path91" /></g></g></g></svg>