<?xml version="1.0" encoding="UTF-8" standalone="no"?>
<svg
   xmlns:dc="http://purl.org/dc/elements/1.1/"
   xmlns:cc="http://creativecommons.org/ns#"
   xmlns:rdf="http://www.w3.org/1999/02/22-rdf-syntax-ns#"
   xmlns:svg="http://www.w3.org/2000/svg"
   xmlns="http://www.w3.org/2000/svg"
   xmlns:sodipodi="http://sodipodi.sourceforge.net/DTD/sodipodi-0.dtd"
   xmlns:inkscape="http://www.inkscape.org/namespaces/inkscape"
   enable-background="new 0 0 512 512"
   height="512px"
   id="Слой_1"
   version="1.1"
   viewBox="0 0 512 512"
   width="512px"
   xml:space="preserve"
   inkscape:version="0.92.1 unknown"
   sodipodi:docname="files.svg"><metadata
     id="metadata89"><rdf:RDF><cc:Work
         rdf:about=""><dc:format>image/svg+xml</dc:format><dc:type
           rdf:resource="http://purl.org/dc/dcmitype/StillImage" /><dc:title /></cc:Work></rdf:RDF></metadata><defs
     id="defs87" /><sodipodi:namedview
     pagecolor="#ffffff"
     bordercolor="#666666"
     borderopacity="1"
     objecttolerance="10"
     gridtolerance="10"
     guidetolerance="10"
     inkscape:pageopacity="0"
     inkscape:pageshadow="2"
     inkscape:window-width="959"
     inkscape:window-height="1123"
     id="namedview85"
     showgrid="false"
     inkscape:zoom="1.3037281"
     inkscape:cx="104.56587"
     inkscape:cy="190.90751"
     inkscape:window-x="960"
     inkscape:window-y="25"
     inkscape:window-maximized="0"
     inkscape:current-layer="Слой_1" /><g
     id="Cloud_Server_1_"><g
       id="Cloud_Server"><g
         id="g7"><rect
           fill="#303842"
           height="61.41"
           width="24.129"
           x="243.935"
           y="339.297"
           id="rect9" /><rect
           fill="#434A54"
           height="61.414"
           width="12.063"
           x="255.999"
           y="340.502"
           id="rect11" /></g><g
         id="g13"><path
           d="M371.784,185.531c-10.906-41.889-48.992-72.816-94.297-72.814c-41.246-0.002-76.498,25.625-90.719,61.818     c-4.775-1.5-9.859-2.311-15.133-2.311c-27.846,0.002-50.422,22.572-50.42,50.42c-0.002,2.34,0.172,4.648,0.484,6.906     c-21.107,10.023-35.701,31.523-35.699,56.438c-0.002,34.227,27.527,62.004,61.654,62.434c0,0,193.875,0.02,194.141,0.02     c46.508,0,84.203-37.703,84.203-84.203C425.999,228.293,403.476,197.617,371.784,185.531z"
           fill="#E6E9ED"
           id="path15" /><g
           id="g17"><rect
             fill="#303842"
             height="149.361"
             width="205.838"
             x="153.084"
             y="158.518"
             id="rect19" /><g
             id="g21"><polygon
               fill="#434A54"
               points="358.921,307.879 153.083,307.879 153.085,261.25 358.917,261.25      "
               id="polygon23" /><g
               id="g25"><polygon
                 fill="#303842"
                 points="187.896,293.871 168.448,293.871 180.546,280.426 199.997,280.426       "
                 id="polygon27" /><polygon
                 fill="#303842"
                 points="219.444,293.867 199.997,293.871 212.095,280.426 231.546,280.426       "
                 id="polygon29" /><polygon
                 fill="#303842"
                 points="250.999,293.871 231.546,293.871 243.647,280.426 263.093,280.426       "
                 id="polygon31" /></g><path
               d="M337.335,287.148c0-4.895-3.969-8.867-8.867-8.867c-4.891,0-8.859,3.973-8.859,8.867       s3.969,8.867,8.859,8.867C333.366,296.016,337.335,292.043,337.335,287.148z"
               fill="#4A89DC"
               id="path33" /></g><g
             id="g35"><rect
               fill="#434A54"
               height="46.629"
               width="205.838"
               x="153.083"
               y="209.883"
               id="rect37" /><g
               id="g39"><polygon
                 fill="#303842"
                 points="187.897,242.504 168.446,242.504 180.548,229.059 199.997,229.059       "
                 id="polygon41" /><polygon
                 fill="#303842"
                 points="219.444,242.504 199.997,242.504 212.095,229.059 231.542,229.059       "
                 id="polygon43" /><polygon
                 fill="#303842"
                 points="250.999,242.504 231.546,242.504 243.647,229.059 263.093,229.059       "
                 id="polygon45" /></g><path
               d="M337.335,235.781c0-4.895-3.969-8.865-8.867-8.867c-4.895,0-8.863,3.973-8.863,8.871       c0.004,4.895,3.973,8.863,8.863,8.863C333.366,244.652,337.335,240.676,337.335,235.781z"
               fill="#4A89DC"
               id="path47" /></g><polygon
             fill="#303842"
             points="331.28,125.879 180.716,125.879 153.085,158.518 358.921,158.518     "
             id="polygon49" /><g
             id="g51"><rect
               fill="#434A54"
               height="46.629"
               width="205.838"
               x="153.084"
               y="158.517"
               id="rect53" /><g
               id="g55"><polygon
                 fill="#303842"
                 points="187.897,191.143 168.446,191.143 180.546,177.693 199.997,177.695       "
                 id="polygon57" /><polygon
                 fill="#303842"
                 points="219.444,191.141 199.997,191.141 212.095,177.695 231.546,177.695       "
                 id="polygon59" /><polygon
                 fill="#303842"
                 points="250.999,191.141 231.546,191.141 243.647,177.693 263.093,177.695       "
                 id="polygon61" /></g><path
               d="M337.335,184.416c0-4.895-3.969-8.867-8.867-8.865c-4.891,0-8.863,3.969-8.863,8.865       c0,4.898,3.973,8.867,8.863,8.867C333.366,193.285,337.335,189.316,337.335,184.416z"
               fill="#4A89DC"
               id="path63" /></g></g><path
           d="M347.78,264.863c-18.969,0-35.059,12.109-41.082,29c-7.199-4.883-15.863-7.758-25.215-7.758     c-11.441,0-21.859,4.297-29.797,11.336c-8.945-23.477-31.654-40.164-58.27-40.164c-34.436,0-62.352,27.914-62.348,62.348     c-0.002,2.371,0.148,4.707,0.404,7.004l58.545,0.004v13.309h62.336c2.199-6.367,3.41-13.195,3.41-20.316     c0-1.398-0.063-2.777-0.148-4.152h49.078c0.008,0.066,0.016,0.133,0.023,0.195l86.117,0.004c0.383-2.328,0.594-4.723,0.594-7.156     C391.429,284.406,371.882,264.863,347.78,264.863z"
           fill="#CBD0D8"
           id="path65" /><path
           d="M398.491,315.074c0-24.109-19.547-43.652-43.656-43.652c-21.773,0-39.777,15.965-43.063,36.82     c-7.992-7.301-18.609-11.77-30.289-11.77c-11.387,0-21.766,4.254-29.684,11.227c-11.902-21.621-34.9-36.273-61.328-36.273     c-36.686,0-66.764,28.238-69.725,64.16h38.59v4.355l198.682,0.004l-0.004-13.352h38.93     C397.948,322.922,398.491,319.063,398.491,315.074z"
           fill="#E6E9ED"
           id="path67" /></g><g
         id="g69"><g
           id="g71"><rect
             fill="#303842"
             height="24.125"
             width="209.527"
             x="151.237"
             y="382.611"
             id="rect73" /><rect
             fill="#434A54"
             height="12.063"
             width="209.527"
             x="151.237"
             y="394.676"
             id="rect75" /></g><rect
           fill="#CBD0D8"
           height="24.125"
           width="46.648"
           x="232.679"
           y="382.613"
           id="rect77" /><rect
           fill="#E6E9ED"
           height="12.063"
           width="46.648"
           x="232.679"
           y="394.676"
           id="rect79" /></g></g></g></svg>