<?xml version="1.0" encoding="UTF-8" standalone="no"?>
<svg
   xmlns:dc="http://purl.org/dc/elements/1.1/"
   xmlns:cc="http://creativecommons.org/ns#"
   xmlns:rdf="http://www.w3.org/1999/02/22-rdf-syntax-ns#"
   xmlns:svg="http://www.w3.org/2000/svg"
   xmlns="http://www.w3.org/2000/svg"
   xmlns:sodipodi="http://sodipodi.sourceforge.net/DTD/sodipodi-0.dtd"
   xmlns:inkscape="http://www.inkscape.org/namespaces/inkscape"
   height="128px"
   id="Layer_1"
   style="enable-background:new 0 0 128 128;"
   version="1.1"
   viewBox="0 0 128 128"
   width="128px"
   xml:space="preserve"
   inkscape:version="0.92.1 unknown"
   sodipodi:docname="ssl.svg"><metadata
     id="metadata35"><rdf:RDF><cc:Work
         rdf:about=""><dc:format>image/svg+xml</dc:format><dc:type
           rdf:resource="http://purl.org/dc/dcmitype/StillImage" /><dc:title /></cc:Work></rdf:RDF></metadata><defs
     id="defs33" /><sodipodi:namedview
     pagecolor="#ffffff"
     bordercolor="#666666"
     borderopacity="1"
     objecttolerance="10"
     gridtolerance="10"
     guidetolerance="10"
     inkscape:pageopacity="0"
     inkscape:pageshadow="2"
     inkscape:window-width="1088"
     inkscape:window-height="863"
     id="namedview31"
     showgrid="false"
     inkscape:zoom="1.84375"
     inkscape:cx="-28.474576"
     inkscape:cy="64"
     inkscape:window-x="0"
     inkscape:window-y="25"
     inkscape:window-maximized="0"
     inkscape:current-layer="Layer_1" /><g
     id="g3"><path
       d="M98.953,98c0,3.3-2.7,6-6,6h-58c-3.3,0-6-2.7-6-6V62c0-3.3,2.7-6,6-6h58c3.3,0,6,2.7,6,6V98z"
       style="fill:#E6E6E6;"
       id="path9" /><path
       d="M98.953,98c0,3.3-2.7,6-6,6h-58c-3.3,0-6-2.7-6-6V62c0-3.3,2.7-6,6-6h58c3.3,0,6,2.7,6,6V98z"
       style="fill:#B3B3B3;"
       id="path11" /><path
       d="M92.953,56h-4c3.3,0,6,2.7,6,6v36c0,3.3-2.7,6-6,6h4c3.3,0,6-2.7,6-6V62   C98.953,58.7,96.253,56,92.953,56z"
       style="fill:#999999;"
       id="path13" /><path
       d="M47.953,56V41c0-8.822,7.178-16,16-16s16,7.178,16,16v15h6V41c0-12.131-9.869-22-22-22   s-22,9.869-22,22v15H47.953z"
       style="fill:#E6E6E6;"
       id="path15" /><path
       d="M63.953,19c-12.131,0-22,9.869-22,22v3c1.656,0,3-1.343,3-3c0-10.477,8.523-19,19-19s19,8.523,19,19   c0,1.657,1.344,3,3,3v-3C85.953,28.869,76.084,19,63.953,19z"
       style="fill:#F5F5F5;"
       id="path17" /><rect
       height="4"
       style="fill:#F5F5F5;"
       width="70"
       x="28.953"
       y="61"
       id="rect19" /><rect
       height="4"
       style="fill:#F5F5F5;"
       width="70"
       x="28.953"
       y="95"
       id="rect21" /><rect
       height="1"
       style="fill:#CCCCCC;"
       width="6"
       x="41.953"
       y="55"
       id="rect23" /><rect
       height="1"
       style="fill:#CCCCCC;"
       width="6"
       x="79.953"
       y="55"
       id="rect25" /><path
       d="M57.785,81.38c0.193,0.446,0.29,0.983,0.29,1.612c0,0.697-0.121,1.351-0.363,1.959   c-0.241,0.607-0.593,1.139-1.052,1.591c-0.46,0.453-1.025,0.81-1.7,1.067c-0.674,0.26-1.438,0.39-2.296,0.39   c-0.471,0-0.949-0.048-1.438-0.146c-0.486-0.098-0.959-0.233-1.414-0.41c-0.457-0.176-0.885-0.385-1.285-0.627   c-0.401-0.241-0.75-0.51-1.047-0.809l1.035-1.638c0.076-0.125,0.185-0.226,0.321-0.302c0.14-0.075,0.287-0.113,0.446-0.113   c0.207,0,0.416,0.066,0.627,0.197s0.449,0.275,0.716,0.436c0.267,0.159,0.571,0.305,0.917,0.436s0.753,0.197,1.225,0.197   c0.636,0,1.129-0.141,1.481-0.421s0.528-0.724,0.528-1.332c0-0.353-0.098-0.64-0.29-0.86c-0.193-0.221-0.447-0.404-0.763-0.549   c-0.314-0.146-0.672-0.273-1.072-0.385c-0.401-0.109-0.813-0.232-1.233-0.367c-0.422-0.136-0.833-0.302-1.233-0.498   c-0.4-0.197-0.758-0.457-1.072-0.778s-0.569-0.722-0.764-1.203c-0.192-0.479-0.289-1.073-0.289-1.778   c0-0.566,0.113-1.119,0.342-1.658s0.563-1.02,1.006-1.441c0.441-0.421,0.984-0.758,1.628-1.012   c0.644-0.252,1.379-0.377,2.208-0.377c0.463,0,0.914,0.035,1.354,0.108c0.438,0.073,0.854,0.181,1.25,0.321   c0.394,0.142,0.762,0.311,1.104,0.508s0.648,0.42,0.918,0.669l-0.871,1.627c-0.104,0.166-0.213,0.291-0.326,0.374   s-0.262,0.124-0.441,0.124c-0.158,0-0.329-0.05-0.512-0.149c-0.185-0.101-0.392-0.213-0.623-0.338   c-0.23-0.123-0.496-0.236-0.793-0.337c-0.297-0.1-0.636-0.149-1.017-0.149c-0.655,0-1.146,0.14-1.467,0.419   c-0.321,0.28-0.481,0.659-0.481,1.135c0,0.304,0.098,0.558,0.29,0.757c0.193,0.201,0.447,0.374,0.763,0.52   c0.314,0.145,0.674,0.277,1.078,0.398c0.403,0.121,0.816,0.256,1.238,0.404c0.421,0.148,0.834,0.322,1.238,0.523   c0.404,0.2,0.764,0.457,1.078,0.768C57.337,80.557,57.592,80.936,57.785,81.38z M68.26,80.246   c-0.313-0.311-0.674-0.566-1.078-0.768c-0.403-0.201-0.816-0.375-1.237-0.523c-0.423-0.148-0.835-0.283-1.239-0.404   s-0.764-0.254-1.078-0.398c-0.314-0.146-0.568-0.318-0.762-0.52c-0.193-0.199-0.29-0.453-0.29-0.757   c0-0.478,0.16-0.854,0.481-1.135c0.32-0.28,0.811-0.419,1.467-0.419c0.381,0,0.719,0.05,1.017,0.15   c0.297,0.101,0.562,0.213,0.793,0.336c0.231,0.125,0.438,0.237,0.622,0.338s0.354,0.149,0.514,0.149   c0.18,0,0.326-0.042,0.439-0.124c0.113-0.083,0.225-0.208,0.327-0.374l0.87-1.627c-0.27-0.249-0.575-0.472-0.918-0.669   c-0.342-0.197-0.709-0.366-1.104-0.508c-0.395-0.143-0.811-0.249-1.25-0.321c-0.438-0.073-0.89-0.108-1.354-0.108   c-0.828,0-1.564,0.125-2.207,0.377c-0.644,0.252-1.187,0.59-1.629,1.012c-0.441,0.422-0.776,0.902-1.006,1.441   c-0.228,0.539-0.342,1.092-0.342,1.658c0,0.705,0.098,1.299,0.29,1.778c0.193,0.479,0.447,0.881,0.763,1.203   c0.314,0.321,0.672,0.581,1.072,0.778c0.401,0.196,0.813,0.362,1.234,0.498c0.421,0.135,0.832,0.256,1.232,0.367   s0.758,0.239,1.073,0.385c0.313,0.145,0.568,0.328,0.763,0.549c0.193,0.221,0.289,0.508,0.289,0.861   c0,0.607-0.176,1.051-0.527,1.332c-0.352,0.279-0.848,0.42-1.482,0.42c-0.471,0-0.878-0.066-1.224-0.197   c-0.347-0.131-0.651-0.276-0.917-0.436c-0.268-0.158-0.506-0.304-0.717-0.436c-0.211-0.133-0.42-0.197-0.627-0.197   c-0.158,0-0.308,0.038-0.445,0.114c-0.139,0.075-0.245,0.176-0.321,0.301l-1.036,1.638c0.297,0.297,0.646,0.567,1.047,0.809   c0.4,0.242,0.83,0.451,1.285,0.628c0.456,0.176,0.928,0.313,1.415,0.409s0.966,0.146,1.437,0.146c0.856,0,1.623-0.13,2.297-0.39   c0.674-0.258,1.24-0.614,1.699-1.067s0.812-0.983,1.053-1.591c0.242-0.607,0.363-1.262,0.363-1.959   c0-0.629-0.098-1.167-0.291-1.612C68.828,80.936,68.574,80.557,68.26,80.246z M74.953,85V73h-4v15h9v-3H74.953z"
       style="fill:#F5F5F5;"
       id="path27" /><path
       d="M56.785,80.38c0.193,0.446,0.29,0.983,0.29,1.612c0,0.697-0.121,1.351-0.363,1.959   c-0.241,0.607-0.593,1.139-1.052,1.591c-0.46,0.453-1.025,0.81-1.7,1.067c-0.674,0.26-1.438,0.39-2.296,0.39   c-0.471,0-0.949-0.048-1.438-0.146c-0.486-0.098-0.959-0.233-1.414-0.41c-0.457-0.176-0.885-0.385-1.285-0.627   c-0.401-0.241-0.75-0.51-1.047-0.809l1.035-1.638c0.076-0.125,0.185-0.226,0.321-0.302c0.14-0.075,0.287-0.113,0.446-0.113   c0.207,0,0.416,0.066,0.627,0.197s0.449,0.275,0.716,0.436c0.267,0.159,0.571,0.305,0.917,0.436s0.753,0.197,1.225,0.197   c0.636,0,1.129-0.141,1.481-0.421s0.528-0.724,0.528-1.332c0-0.353-0.098-0.64-0.29-0.86c-0.193-0.221-0.447-0.404-0.763-0.549   c-0.314-0.146-0.672-0.273-1.072-0.385c-0.401-0.109-0.813-0.232-1.233-0.367c-0.422-0.136-0.833-0.302-1.233-0.498   c-0.4-0.197-0.758-0.457-1.072-0.778s-0.569-0.722-0.764-1.203c-0.192-0.479-0.289-1.073-0.289-1.778   c0-0.566,0.113-1.119,0.342-1.658s0.563-1.02,1.006-1.441c0.441-0.421,0.984-0.758,1.628-1.012   c0.644-0.252,1.379-0.377,2.208-0.377c0.463,0,0.914,0.035,1.354,0.108c0.438,0.073,0.854,0.181,1.25,0.321   c0.394,0.142,0.762,0.311,1.104,0.508s0.648,0.42,0.918,0.669l-0.871,1.627c-0.104,0.166-0.213,0.291-0.326,0.374   s-0.262,0.124-0.441,0.124c-0.158,0-0.329-0.05-0.512-0.149c-0.185-0.101-0.392-0.213-0.623-0.338   c-0.23-0.123-0.496-0.236-0.793-0.337c-0.297-0.1-0.636-0.149-1.017-0.149c-0.655,0-1.146,0.14-1.467,0.419   c-0.321,0.28-0.481,0.659-0.481,1.135c0,0.304,0.098,0.558,0.29,0.757c0.193,0.201,0.447,0.374,0.763,0.52   c0.314,0.145,0.674,0.277,1.078,0.398c0.403,0.121,0.816,0.256,1.238,0.404c0.421,0.148,0.834,0.322,1.238,0.523   c0.404,0.2,0.764,0.457,1.078,0.768C56.337,79.557,56.592,79.936,56.785,80.38z M67.26,79.246   c-0.313-0.311-0.674-0.566-1.078-0.768c-0.403-0.201-0.816-0.375-1.237-0.523c-0.423-0.148-0.835-0.283-1.239-0.404   s-0.764-0.254-1.078-0.398c-0.314-0.146-0.568-0.318-0.762-0.52c-0.193-0.199-0.29-0.453-0.29-0.757   c0-0.478,0.16-0.854,0.481-1.135c0.32-0.28,0.811-0.419,1.467-0.419c0.381,0,0.719,0.05,1.017,0.15   c0.297,0.101,0.562,0.213,0.793,0.336c0.231,0.125,0.438,0.237,0.622,0.338s0.354,0.149,0.514,0.149   c0.18,0,0.326-0.042,0.439-0.124c0.113-0.083,0.225-0.208,0.327-0.374l0.87-1.627c-0.27-0.249-0.575-0.472-0.918-0.669   c-0.342-0.197-0.709-0.366-1.104-0.508c-0.395-0.143-0.811-0.249-1.25-0.321c-0.438-0.073-0.89-0.108-1.354-0.108   c-0.828,0-1.564,0.125-2.207,0.377c-0.644,0.252-1.187,0.59-1.629,1.012c-0.441,0.422-0.776,0.902-1.006,1.441   c-0.228,0.539-0.342,1.092-0.342,1.658c0,0.705,0.098,1.299,0.29,1.778c0.193,0.479,0.447,0.881,0.763,1.203   c0.314,0.321,0.672,0.581,1.072,0.778c0.401,0.196,0.813,0.362,1.234,0.498c0.421,0.135,0.832,0.256,1.232,0.367   s0.758,0.239,1.073,0.385c0.313,0.145,0.568,0.328,0.763,0.549c0.193,0.221,0.289,0.508,0.289,0.861   c0,0.607-0.176,1.051-0.527,1.332c-0.352,0.279-0.848,0.42-1.482,0.42c-0.471,0-0.878-0.066-1.224-0.197   c-0.347-0.131-0.651-0.276-0.917-0.436c-0.268-0.158-0.506-0.304-0.717-0.436c-0.211-0.133-0.42-0.197-0.627-0.197   c-0.158,0-0.308,0.038-0.445,0.114c-0.139,0.075-0.245,0.176-0.321,0.301l-1.036,1.638c0.297,0.297,0.646,0.567,1.047,0.809   c0.4,0.242,0.83,0.451,1.285,0.628c0.456,0.176,0.928,0.313,1.415,0.409s0.966,0.146,1.437,0.146c0.856,0,1.623-0.13,2.297-0.39   c0.674-0.258,1.24-0.614,1.699-1.067s0.812-0.983,1.053-1.591c0.242-0.607,0.363-1.262,0.363-1.959   c0-0.629-0.098-1.167-0.291-1.612C67.828,79.936,67.574,79.557,67.26,79.246z M73.953,84V72h-4v15h9v-3H73.953z"
       style="fill:#8C8C8C;"
       id="path29" /></g></svg>