<?xml version="1.0" encoding="UTF-8" standalone="no"?>
<svg
   xmlns:dc="http://purl.org/dc/elements/1.1/"
   xmlns:cc="http://creativecommons.org/ns#"
   xmlns:rdf="http://www.w3.org/1999/02/22-rdf-syntax-ns#"
   xmlns:svg="http://www.w3.org/2000/svg"
   xmlns="http://www.w3.org/2000/svg"
   xmlns:sodipodi="http://sodipodi.sourceforge.net/DTD/sodipodi-0.dtd"
   xmlns:inkscape="http://www.inkscape.org/namespaces/inkscape"
   height="22mm"
   style="shape-rendering:geometricPrecision; text-rendering:geometricPrecision; image-rendering:optimizeQuality; fill-rule:evenodd; clip-rule:evenodd"
   version="1.0"
   viewBox="0 0 4610 4610"
   width="22mm"
   xml:space="preserve"
   id="svg2"
   inkscape:version="0.92.1 unknown"
   sodipodi:docname="static.svg"><metadata
     id="metadata35"><rdf:RDF><cc:Work
         rdf:about=""><dc:format>image/svg+xml</dc:format><dc:type
           rdf:resource="http://purl.org/dc/dcmitype/StillImage" /><dc:title /></cc:Work></rdf:RDF></metadata><sodipodi:namedview
     pagecolor="#ffffff"
     bordercolor="#666666"
     borderopacity="1"
     objecttolerance="10"
     gridtolerance="10"
     guidetolerance="10"
     inkscape:pageopacity="0"
     inkscape:pageshadow="2"
     inkscape:window-width="640"
     inkscape:window-height="480"
     id="namedview33"
     showgrid="false"
     inkscape:zoom="3.0274746"
     inkscape:cx="38.976379"
     inkscape:cy="38.976379"
     inkscape:window-x="0"
     inkscape:window-y="25"
     inkscape:window-maximized="0"
     inkscape:current-layer="svg2" /><defs
     id="defs4"><style
       type="text/css"
       id="style6">
    .fil5 {fill:#EBECEC}
    .fil6 {fill:#004F59}
    .fil3 {fill:#D14747}
    .fil2 {fill:#E84F4F}
    .fil1 {fill:#F5BE18}
    .fil4 {fill:#F7F7F8}
    .fil0 {fill:#FFD630}
    .fil7 {fill:gray;fill-rule:nonzero}
   </style></defs><g
     id="Copy_x0020_of_x0020_Copy_x0020_of_x0020_circles" /><g
     id="icons"><g
       id="_520377784"><path
         class="fil2"
         d="M1149 1252l2312 0c74,0 134,60 134,134l0 1278c0,74 -60,134 -134,134l-2312 0c-74,0 -134,-60 -134,-134l0 -1278c0,-74 60,-134 134,-134z"
         id="path15" /><path
         class="fil3"
         d="M3556 1291c24,24 39,58 39,95l0 1278c0,74 -60,134 -134,134l-2312 0c-45,0 -85,-22 -109,-57l2516 -1450z"
         id="path17" /><path
         class="fil4"
         d="M1141 1352l2328 0 0 1345 -2328 0 0 -1345z"
         id="path19" /><path
         class="fil3"
         d="M1004 2848l1295 0 11 0 1295 0c34,0 231,289 264,329 21,25 8,44 -25,43l-1540 -4 -1540 4c-33,0 -46,-18 -25,-43 33,-40 230,-329 264,-329z"
         id="path21" /><path
         class="fil2"
         d="M1004 2848c-34,0 -231,289 -264,329 -21,25 -8,44 25,43l1540 -4 1540 4c23,0 36,-9 35,-22l-2876 -350z"
         id="path23" /><path
         class="fil3"
         d="M871 3356c-33,0 -133,-91 -139,-136l-2 -19c1038,0 2112,0 3150,0l-2 19c-5,45 -95,136 -128,136 -962,3 -1917,3 -2879,0z"
         id="path25" /><path
         class="fil5"
         d="M2056 3072l137 0 259 0 137 0 43 111 -180 0 -259 0 -180 0 43 -111z"
         id="path27" /><path
         class="fil6"
         d="M1600 2798l169 0 0 50 -169 0 0 -50zm1240 0l169 0 0 50 -169 0 0 -50z"
         id="path29" /></g><path
       class="fil7"
       d="M1380 2285l0 -518 105 0 0 204 204 0 0 -204 105 0 0 518 -105 0 0 -226 -204 0 0 226 -105 0zm639 0l0 -430 -153 0 0 -88 411 0 0 88 -153 0 0 430 -105 0zm324 0l0 -518 157 0 93 353 92 -353 157 0 0 518 -97 0 0 -408 -102 408 -101 0 -102 -408 0 408 -97 0zm607 0l0 -514 105 0 0 426 260 0 0 88 -365 0z"
       id="path31" /></g></svg>