<?xml version="1.0" encoding="UTF-8" standalone="no"?>
<svg
   xmlns:dc="http://purl.org/dc/elements/1.1/"
   xmlns:cc="http://creativecommons.org/ns#"
   xmlns:rdf="http://www.w3.org/1999/02/22-rdf-syntax-ns#"
   xmlns:svg="http://www.w3.org/2000/svg"
   xmlns="http://www.w3.org/2000/svg"
   xmlns:sodipodi="http://sodipodi.sourceforge.net/DTD/sodipodi-0.dtd"
   xmlns:inkscape="http://www.inkscape.org/namespaces/inkscape"
   id="Layer_1"
   style="enable-background:new 0 0 512 512;"
   version="1.1"
   viewBox="0 0 512 512"
   xml:space="preserve"
   sodipodi:docname="vc.svg"
   inkscape:version="0.92.1 unknown"><metadata
     id="metadata4597"><rdf:RDF><cc:Work
         rdf:about=""><dc:format>image/svg+xml</dc:format><dc:type
           rdf:resource="http://purl.org/dc/dcmitype/StillImage" /></cc:Work></rdf:RDF></metadata><defs
     id="defs4595" /><sodipodi:namedview
     pagecolor="#ffffff"
     bordercolor="#666666"
     borderopacity="1"
     objecttolerance="10"
     gridtolerance="10"
     guidetolerance="10"
     inkscape:pageopacity="0"
     inkscape:pageshadow="2"
     inkscape:window-width="1121"
     inkscape:window-height="755"
     id="namedview4593"
     showgrid="false"
     inkscape:zoom="0.4609375"
     inkscape:cx="256"
     inkscape:cy="256"
     inkscape:window-x="0"
     inkscape:window-y="25"
     inkscape:window-maximized="0"
     inkscape:current-layer="Layer_1" /><style
     type="text/css"
     id="style4544">
	.st0{fill:#82D0D8;}
	.st1{fill:#002833;}
	.st2{fill:#FFFFFF;}
	.st3{fill:#004259;}
	.st4{fill:#B4D36A;}
	.st5{fill:#EAC653;}
	.st6{fill:#FF5F5F;}
	.st7{fill:#30A2B5;}
	.st8{fill:#1B7C96;}
</style><g
     id="g4590"><g
       id="g4576"><path
         class="st1"
         d="M452,173c0-8.8-7.2-16-16-16H128c-8.8,0-16,7.2-16,16v220c0,8.8,7.2,16,16,16h308c8.8,0,16-7.2,16-16V173z"
         id="path4548" /><rect
         class="st2"
         height="200"
         width="308"
         x="128"
         y="193"
         id="rect4550" /><path
         class="st3"
         d="M400,121c0-8.8-7.2-16-16-16H76c-8.8,0-16,7.2-16,16v220c0,8.8,7.2,16,16,16h308c8.8,0,16-7.2,16-16V121z"
         id="path4552" /><rect
         class="st2"
         height="200"
         width="308"
         x="76"
         y="141"
         id="rect4554" /><circle
         class="st4"
         cx="82.7"
         cy="122.6"
         r="8"
         id="circle4556" /><circle
         class="st5"
         cx="106.7"
         cy="122.6"
         r="8"
         id="circle4558" /><circle
         class="st6"
         cx="130.7"
         cy="122.6"
         r="8"
         id="circle4560" /><g
         id="g4574"><path
           class="st7"
           d="M360,237c0-2.2-1.8-4-4-4H104c-2.2,0-4,1.8-4,4v24c0,2.2,1.8,4,4,4h252c2.2,0,4-1.8,4-4V237z"
           id="path4562" /><path
           class="st7"
           d="M360,281c0-2.2-1.8-4-4-4H104c-2.2,0-4,1.8-4,4l0,0c0,2.2,1.8,4,4,4h252C358.2,285,360,283.2,360,281     L360,281z"
           id="path4564" /><path
           class="st7"
           d="M260,301c0-2.2-1.8-4-4-4H104c-2.2,0-4,1.8-4,4l0,0c0,2.2,1.8,4,4,4h152C258.2,305,260,303.2,260,301     L260,301z"
           id="path4566" /><path
           class="st7"
           d="M109.3,186.4l16.3-16.3c1.6-1.6,1.6-4.1,0-5.7c-1.6-1.6-4.1-1.6-5.7,0l-18.3,18.3c-3.6,3.6-1,6.4,0,7.4     l18.3,18.3c1.6,1.6,4.1,1.6,5.7,0c1.6-1.6,1.6-4.1,0-5.7L109.3,186.4z"
           id="path4568" /><path
           class="st7"
           d="M209.2,186.4l-16.3-16.3c-1.6-1.6-1.6-4.1,0-5.7c1.6-1.6,4.1-1.6,5.7,0l18.3,18.3c3.6,3.6,1,6.4,0,7.4     l-18.3,18.3c-1.6,1.6-4.1,1.6-5.7,0c-1.6-1.6-1.6-4.1,0-5.7L209.2,186.4z"
           id="path4570" /><path
           class="st7"
           d="M158.5,160.8c-2-0.8-4.4,0.1-5.2,2.2l-17.9,44c-0.8,2,0.1,4.4,2.2,5.2c2,0.8,4.4-0.1,5.2-2.2l17.9-44     C161.5,164,160.5,161.6,158.5,160.8z"
           id="path4572" /></g></g><g
       id="g4588"><path
         class="st0"
         d="M369,469.4c-48.5,0.4-88.3-38.7-88.7-87.3c-0.4-48.5,38.7-88.3,87.3-88.7c48.5-0.4,88.3,38.7,88.7,87.3    C456.7,429.2,417.5,469,369,469.4z"
         id="path4578" /><path
         class="st2"
         d="M368.9,461.5c-44.2,0.4-80.4-35.3-80.8-79.5s35.3-80.4,79.5-80.8s80.4,35.3,80.8,79.5    S413.1,461.1,368.9,461.5z"
         id="path4580" /><path
         class="st8"
         d="M368.9,453.7C329,454,296.3,421.8,296,382c-0.3-39.9,31.8-72.6,71.7-72.9c39.9-0.3,72.6,31.8,72.9,71.7    C440.9,420.6,408.7,453.3,368.9,453.7z"
         id="path4582" /><path
         class="st2"
         d="M368.4,431.5c-23.6,0.2-43.7-17.3-46.8-40.7l-0.1-0.8l10.6-3.7l0.1,1.3c1.5,18.7,17.3,33.3,36.1,33.1    c12-0.1,23.1-6.1,29.7-16.1l0.5-0.8l0,0l3.4-5l-9.1-6.3c-1-0.7-1.2-1.5-1.2-2c0-0.5,0.3-1.1,1.3-1.6l25.6-9c0.3-0.1,0.6-0.2,1-0.2    c0.6,0,1.1,0.2,1.4,0.6c0.4,0.5,0.6,1.1,0.6,1.9l0.6,26.8c-0.1,1.5-1,2.1-1.7,2.1l0,0c-0.5,0-1-0.2-1.5-0.6l-8.1-5.6l-4.6,6.6l0,0    C397.6,424,383.5,431.4,368.4,431.5z"
         id="path4584" /><path
         class="st2"
         d="M317,383c-0.6,0-1.1-0.2-1.4-0.6c-0.4-0.5-0.6-1.1-0.6-1.9l-0.6-26.8c0.1-1.5,1-2.1,1.7-2.1    c0.5,0,1,0.2,1.5,0.5l8.1,5.6l4.5-6.5l0,0c8.7-12.4,22.8-19.9,38-20c23.6-0.2,43.7,17.3,46.8,40.7l0.1,0.8l-10.6,3.7l-0.1-1.3    c-1.5-18.7-17.3-33.3-36.1-33.1c-12,0.1-23.1,6.1-29.7,16.1L338,359l0,0l-3.4,4.9l9.1,6.3c1,0.7,1.2,1.5,1.2,2    c0,0.5-0.3,1.1-1.3,1.6l-25.6,9C317.7,382.9,317.3,383,317,383L317,383z"
         id="path4586" /></g></g></svg>