<?xml version="1.0" ?><!DOCTYPE svg  PUBLIC '-//W3C//DTD SVG 1.1//EN'  'http://www.w3.org/Graphics/SVG/1.1/DTD/svg11.dtd'><svg height="128px" id="Layer_1" style="enable-background:new 0 0 128 128;" version="1.1" viewBox="0 0 128 128" width="128px" xml:space="preserve" xmlns="http://www.w3.org/2000/svg" xmlns:xlink="http://www.w3.org/1999/xlink"><g><circle cx="64" cy="64" r="64" style="fill:#88C5CC;"/><path d="M95,101c0,1.1-0.9,2-2,2H35c-1.1,0-2-0.9-2-2V27c0-1.1,0.9-2,2-2h58c1.1,0,2,0.9,2,2V101z" style="fill:#99602E;"/><rect height="70" style="fill:#F5F5F5;" width="54" x="37" y="29"/><path d="M70,23h-2c0-2.762-2.238-5-5-5c-2.761,0-5,2.238-5,5h-2c-1.1,0-2,0.9-2,2v6c0,1.1,0.9,2,2,2h14   c1.1,0,2-0.9,2-2v-6C72,23.9,71.1,23,70,23z M63,25c-1.104,0-2-0.896-2-2s0.896-2,2-2s2,0.896,2,2S64.104,25,63,25z" style="fill:#263740;"/><g><path d="M51,40v10H41c0,5.521,4.477,10,10,10s10-4.479,10-10S56.523,40,51,40z" style="fill:#263740;"/><path d="M50,39c-5.523,0-10,4.479-10,10h10V39z" style="fill:#88C5CC;"/></g><rect height="4" style="fill:#88C5CC;" width="20" x="67" y="41"/><rect height="2" style="fill:#263740;" width="20" x="67" y="47"/><rect height="2" style="fill:#263740;" width="20" x="67" y="51"/><rect height="2" style="fill:#263740;" width="20" x="67" y="55"/><rect height="2" style="fill:#263740;" width="20" x="67" y="59"/><rect height="25" style="fill:#B3B3B3;" width="1" x="41" y="72"/><rect height="1" style="fill:#B3B3B3;" width="48" x="39" y="94"/><path d="M87,93H43c0,0,33-4,44-21C87,78,87,93,87,93z" style="fill:#E16B5A;"/></g></svg>