<?xml version="1.0" ?><svg id="Layer_1" style="enable-background:new 0 0 512 512;" version="1.1" viewBox="0 0 512 512" xml:space="preserve" xmlns="http://www.w3.org/2000/svg" xmlns:xlink="http://www.w3.org/1999/xlink"><style type="text/css">
	.st0{fill:#334D5C;}
	.st1{opacity:0.1;}
	.st2{fill:#EBF0F3;}
	.st3{fill:#E56353;}
	.st4{fill:#D15241;}
	.st5{fill:#CE412D;}
	.st6{fill:#FFFFFF;}
	.st7{fill:#64798A;}
	.st8{fill:#45B39C;}
	.st9{fill:#FCD462;}
	.st10{fill:#DC8744;}
	.st11{fill:#3A556A;}
	.st12{fill:#44C4A1;}
	.st13{fill:#27A2DB;}
	.st14{fill:#D5D6DB;}
	.st15{fill:#EA8953;}
	.st16{fill:#EFC84A;}
	.st17{fill:#2F4859;}
	.st18{fill:#F6C358;}
	.st19{fill:#C1C3C9;}
	.st20{fill:#E1E6E9;}
	.st21{fill:#2D93BA;}
	.st22{fill:#3EA69B;}
	.st23{opacity:0.25;fill:#FFFFFF;}
	.st24{fill:#E05B49;}
	.st25{fill:#31978C;}
	.st26{fill:#1C75A1;}
	.st27{opacity:0.25;fill:#27A2DB;}
	.st28{fill:none;}
</style><g><circle class="st24" cx="256" cy="256" r="256"/><path class="st1" d="M373,137.2H139c-3.9,0-7.1,3.4-7.1,7.5v189.4c0,2.4,1.1,4.5,2.8,5.9l167.8,167.8   c113.8-20.9,201.3-117,208.9-234.9L378.2,139.6C376.9,138.1,375,137.2,373,137.2z"/><g><path class="st7" d="M380.1,144.7c0-4.1-3.2-7.5-7.1-7.5H139c-3.9,0-7.1,3.3-7.1,7.5v161.9h248.2V144.7z"/><rect class="st9" height="139.8" width="219.9" x="146.1" y="152"/><path class="st2" d="M131.9,306.6v27.5c0,4.1,3.2,7.5,7.1,7.5H373c3.9,0,7.1-3.3,7.1-7.5v-27.5H131.9z"/><ellipse class="st7" cx="256" cy="324.1" rx="9.7" ry="10.1"/><rect class="st20" height="21.2" width="70.8" x="220.6" y="341.5"/><polygon class="st14" points="291.4,362.8 220.6,341.5 291.4,341.5   "/><polygon class="st2" points="291.4,362.8 220.6,362.8 211.5,374.8 300.5,374.8   "/><g><path class="st7" d="M189.6,238.9h-8.2l-11.8-34h7.4l8.4,25.7l8.4-25.7h7.4l8.4,25.7l8.4-25.7h7.4l-11.8,34h-8.2l-8.1-23.3     L189.6,238.9z"/><path class="st7" d="M247.9,238.9h-8.2l-11.8-34h7.4l8.4,25.7l8.4-25.7h7.4l8.4,25.7l8.4-25.7h7.4l-11.8,34h-8.2l-8.1-23.3     L247.9,238.9z"/><path class="st7" d="M306.3,238.9h-8.2l-11.8-34h7.4l8.4,25.7l8.4-25.7h7.4l8.4,25.7l8.4-25.7h7.4l-11.8,34h-8.2l-8.1-23.3     L306.3,238.9z"/></g></g></g></svg>