<?xml version="1.0" ?><!DOCTYPE svg  PUBLIC '-//W3C//DTD SVG 1.1//EN'  'http://www.w3.org/Graphics/SVG/1.1/DTD/svg11.dtd'><svg enable-background="new 0 0 512 512" id="Layer_1" version="1.1" viewBox="0 0 512 512" xml:space="preserve" xmlns="http://www.w3.org/2000/svg" xmlns:xlink="http://www.w3.org/1999/xlink"><g><circle cx="256" cy="256" fill="#FD8469" r="252.2"/><g><path d="M381.2,134H130.8c-16.3,0-29.6,13.2-29.6,29.6v184.8c0,16.3,13.2,29.6,29.6,29.6h250.5    c16.3,0,29.6-13.2,29.6-29.6V163.6C410.8,147.3,397.6,134,381.2,134z" fill="#FFFFFF"/><path d="M101.2,187.6v-23.5c0-16.7,13.5-30.2,30.2-30.2h249.3c16.7,0,30.2,13.5,30.2,30.2v23.5H101.2z" fill="#324A5E"/><circle cx="372.8" cy="162.4" fill="#FFFFFF" r="10.1"/><circle cx="334.8" cy="162.4" fill="#FFFFFF" r="10.1"/><circle cx="296.9" cy="162.4" fill="#FFFFFF" r="10.1"/><g><path d="M223.6,284.3c-0.8-0.8-1.2-1.8-1.2-3s0.4-2.2,1.2-3c0.8-0.8,1.8-1.2,3-1.2c1.2,0,2.2,0.4,3,1.2     s1.2,1.8,1.2,3s-0.4,2.2-1.2,3s-1.8,1.2-3,1.2C225.4,285.5,224.4,285.1,223.6,284.3z" fill="#4CDBC4"/><path d="M248.9,279.3c2.4,0,4.5-1.2,6.4-3.5l4.2,4.7c-3.3,3.4-6.8,5.1-10.6,5.1c-3.8,0-7-1.2-9.7-3.6     c-2.6-2.4-3.9-5.6-3.9-9.5c0-3.9,1.3-7.1,4-9.5c2.7-2.4,5.8-3.7,9.5-3.7c1.8,0,3.7,0.4,5.6,1.1c1.9,0.8,3.5,1.9,4.9,3.4l-3.7,4.8     c-0.8-1-1.8-1.7-3-2.3c-1.2-0.5-2.4-0.8-3.5-0.8c-1.9,0-3.5,0.6-4.8,1.8c-1.3,1.2-2,2.9-2,5.1c0,2.2,0.7,3.8,2,5     C245.6,278.7,247.1,279.3,248.9,279.3z" fill="#4CDBC4"/><path d="M289.3,272.4c0,3.7-1.3,6.8-3.8,9.3c-2.6,2.5-5.8,3.8-9.6,3.8c-3.9,0-7.1-1.3-9.6-3.8     c-2.6-2.5-3.8-5.6-3.8-9.3c0-3.7,1.3-6.8,3.8-9.3c2.6-2.5,5.8-3.8,9.6-3.8c3.9,0,7.1,1.3,9.6,3.8     C288,265.6,289.3,268.8,289.3,272.4z M269.5,272.4c0,2.1,0.6,3.8,1.8,5.1c1.2,1.3,2.7,2,4.5,2c1.8,0,3.4-0.7,4.5-2     c1.2-1.3,1.8-3,1.8-5.1c0-2.1-0.6-3.8-1.8-5.1c-1.2-1.3-2.7-2-4.5-2c-1.8,0-3.4,0.7-4.5,2C270.1,268.7,269.5,270.4,269.5,272.4z" fill="#4CDBC4"/><path d="M317.9,271.4v13.7h-7.1v-13.9c0-2-0.3-3.5-0.9-4.4c-0.6-0.9-1.6-1.4-3-1.4c-1.4,0-2.6,0.5-3.6,1.5     c-1.1,1-1.6,2.5-1.6,4.5v13.7h-7.1v-25.4h7.1v2.9c2-2.2,4.2-3.3,6.7-3.3c1.6,0,3.1,0.5,4.4,1.4c1.3,0.9,2.3,2.1,3,3.5     c1-1.5,2.3-2.7,3.9-3.6c1.7-0.9,3.3-1.3,5-1.3c3,0,5.4,0.9,7.2,2.7c1.8,1.8,2.7,4.4,2.7,7.7v15.5h-7.1v-13.9     c0-3.9-1.4-5.9-4.3-5.9c-1.4,0-2.6,0.5-3.7,1.5C318.4,268,317.9,269.5,317.9,271.4z" fill="#4CDBC4"/></g><g><path d="M223.6,336.8c-0.8-0.8-1.2-1.8-1.2-3s0.4-2.2,1.2-3c0.8-0.8,1.8-1.2,3-1.2c1.2,0,2.2,0.4,3,1.2     s1.2,1.8,1.2,3s-0.4,2.2-1.2,3s-1.8,1.2-3,1.2C225.4,338,224.4,337.6,223.6,336.8z" fill="#4CDBC4"/><path d="M243.8,323.4v14.2h-7.1v-25.4h7.1v2.8c2.1-2.2,4.6-3.3,7.2-3.3c2.7,0,4.9,0.9,6.7,2.8     c1.8,1.9,2.7,4.4,2.7,7.6v15.5h-7.1v-14.4c0-3.9-1.4-5.9-4.3-5.9c-1.4,0-2.7,0.5-3.7,1.5C244.4,319.9,243.8,321.4,243.8,323.4z" fill="#4CDBC4"/><path d="M289,333.9c-2.9,2.7-6.2,4.1-10.1,4.1c-3.9,0-7.1-1.2-9.6-3.6c-2.5-2.4-3.8-5.6-3.8-9.6     c0-4,1.3-7.2,3.9-9.6c2.6-2.4,5.6-3.5,9.1-3.5c3.5,0,6.5,1.1,8.9,3.2c2.4,2.1,3.7,5,3.7,8.7v3.8h-18.5c0.2,1.4,0.9,2.5,2.2,3.4     c1.2,0.9,2.6,1.3,4.2,1.3c2.5,0,4.5-0.8,6.1-2.5L289,333.9z M282.2,318.8c-1-0.8-2.2-1.2-3.6-1.2c-1.4,0-2.7,0.4-3.9,1.3     c-1.2,0.9-1.8,2-2,3.5h11.2C283.7,320.8,283.2,319.6,282.2,318.8z" fill="#4CDBC4"/><path d="M304.4,317.2v11.4c0,1,0.3,1.7,0.8,2.3c0.5,0.6,1.1,0.8,1.8,0.8c1.3,0,2.4-0.6,3.4-1.8l2.6,5     c-2.2,2-4.5,3-7,3s-4.5-0.8-6.2-2.4c-1.7-1.6-2.5-3.8-2.5-6.6v-11.7h-3v-5.1h3v-7.6h7.1v7.6h6.1v5.1H304.4z" fill="#4CDBC4"/></g><rect fill="#FF7058" height="29.7" width="29.7" x="177.4" y="256"/><rect fill="#54C0EB" height="29.7" width="29.7" x="177.4" y="311.7"/><g><path d="M208.6,232.3h-7.3l-8.7-25.4h7.3l5,15.4l5-15.4h6.9l5,15.4l5-15.4h7.4l-8.7,25.4H218l-4.7-13.9     L208.6,232.3z" fill="#54C0EB"/><path d="M251.3,232.3h-7.3l-8.7-25.4h7.3l5,15.4l5-15.4h6.9l5,15.4l5-15.4h7.4l-8.7,25.4h-7.4l-4.7-13.9     L251.3,232.3z" fill="#54C0EB"/><path d="M293.9,232.3h-7.3l-8.7-25.4h7.3l5,15.4l5-15.4h6.9l5,15.4l5-15.4h7.4l-8.7,25.4h-7.4l-4.7-13.9     L293.9,232.3z" fill="#54C0EB"/></g></g></g></svg>