<?xml version="1.0" ?><!DOCTYPE svg  PUBLIC '-//W3C//DTD SVG 1.1//EN'  'http://www.w3.org/Graphics/SVG/1.1/DTD/svg11.dtd'><svg enable-background="new 0 0 512 512" height="512px" id="Слой_1" version="1.1" viewBox="0 0 512 512" width="512px" xml:space="preserve" xmlns="http://www.w3.org/2000/svg" xmlns:xlink="http://www.w3.org/1999/xlink"><g id="Cloud_Server_1_"><path d="M511.999,256c0,141.387-114.617,256-256,256C114.61,512,0.001,397.387,0.001,256   C0.001,114.615,114.61,0,255.999,0C397.382,0,511.999,114.615,511.999,256z" fill="#5E9CEA"/><g id="Cloud_Server"><g><rect fill="#303842" height="61.41" width="24.129" x="243.935" y="339.297"/><rect fill="#434A54" height="61.414" width="12.063" x="255.999" y="340.502"/></g><g><path d="M371.784,185.531c-10.906-41.889-48.992-72.816-94.297-72.814c-41.246-0.002-76.498,25.625-90.719,61.818     c-4.775-1.5-9.859-2.311-15.133-2.311c-27.846,0.002-50.422,22.572-50.42,50.42c-0.002,2.34,0.172,4.648,0.484,6.906     c-21.107,10.023-35.701,31.523-35.699,56.438c-0.002,34.227,27.527,62.004,61.654,62.434c0,0,193.875,0.02,194.141,0.02     c46.508,0,84.203-37.703,84.203-84.203C425.999,228.293,403.476,197.617,371.784,185.531z" fill="#E6E9ED"/><g><rect fill="#303842" height="149.361" width="205.838" x="153.084" y="158.518"/><g><polygon fill="#434A54" points="358.921,307.879 153.083,307.879 153.085,261.25 358.917,261.25      "/><g><polygon fill="#303842" points="187.896,293.871 168.448,293.871 180.546,280.426 199.997,280.426       "/><polygon fill="#303842" points="219.444,293.867 199.997,293.871 212.095,280.426 231.546,280.426       "/><polygon fill="#303842" points="250.999,293.871 231.546,293.871 243.647,280.426 263.093,280.426       "/></g><path d="M337.335,287.148c0-4.895-3.969-8.867-8.867-8.867c-4.891,0-8.859,3.973-8.859,8.867       s3.969,8.867,8.859,8.867C333.366,296.016,337.335,292.043,337.335,287.148z" fill="#4A89DC"/></g><g><rect fill="#434A54" height="46.629" width="205.838" x="153.083" y="209.883"/><g><polygon fill="#303842" points="187.897,242.504 168.446,242.504 180.548,229.059 199.997,229.059       "/><polygon fill="#303842" points="219.444,242.504 199.997,242.504 212.095,229.059 231.542,229.059       "/><polygon fill="#303842" points="250.999,242.504 231.546,242.504 243.647,229.059 263.093,229.059       "/></g><path d="M337.335,235.781c0-4.895-3.969-8.865-8.867-8.867c-4.895,0-8.863,3.973-8.863,8.871       c0.004,4.895,3.973,8.863,8.863,8.863C333.366,244.652,337.335,240.676,337.335,235.781z" fill="#4A89DC"/></g><polygon fill="#303842" points="331.28,125.879 180.716,125.879 153.085,158.518 358.921,158.518     "/><g><rect fill="#434A54" height="46.629" width="205.838" x="153.084" y="158.517"/><g><polygon fill="#303842" points="187.897,191.143 168.446,191.143 180.546,177.693 199.997,177.695       "/><polygon fill="#303842" points="219.444,191.141 199.997,191.141 212.095,177.695 231.546,177.695       "/><polygon fill="#303842" points="250.999,191.141 231.546,191.141 243.647,177.693 263.093,177.695       "/></g><path d="M337.335,184.416c0-4.895-3.969-8.867-8.867-8.865c-4.891,0-8.863,3.969-8.863,8.865       c0,4.898,3.973,8.867,8.863,8.867C333.366,193.285,337.335,189.316,337.335,184.416z" fill="#4A89DC"/></g></g><path d="M347.78,264.863c-18.969,0-35.059,12.109-41.082,29c-7.199-4.883-15.863-7.758-25.215-7.758     c-11.441,0-21.859,4.297-29.797,11.336c-8.945-23.477-31.654-40.164-58.27-40.164c-34.436,0-62.352,27.914-62.348,62.348     c-0.002,2.371,0.148,4.707,0.404,7.004l58.545,0.004v13.309h62.336c2.199-6.367,3.41-13.195,3.41-20.316     c0-1.398-0.063-2.777-0.148-4.152h49.078c0.008,0.066,0.016,0.133,0.023,0.195l86.117,0.004c0.383-2.328,0.594-4.723,0.594-7.156     C391.429,284.406,371.882,264.863,347.78,264.863z" fill="#CBD0D8"/><path d="M398.491,315.074c0-24.109-19.547-43.652-43.656-43.652c-21.773,0-39.777,15.965-43.063,36.82     c-7.992-7.301-18.609-11.77-30.289-11.77c-11.387,0-21.766,4.254-29.684,11.227c-11.902-21.621-34.9-36.273-61.328-36.273     c-36.686,0-66.764,28.238-69.725,64.16h38.59v4.355l198.682,0.004l-0.004-13.352h38.93     C397.948,322.922,398.491,319.063,398.491,315.074z" fill="#E6E9ED"/></g><g><g><rect fill="#303842" height="24.125" width="209.527" x="151.237" y="382.611"/><rect fill="#434A54" height="12.063" width="209.527" x="151.237" y="394.676"/></g><rect fill="#CBD0D8" height="24.125" width="46.648" x="232.679" y="382.613"/><rect fill="#E6E9ED" height="12.063" width="46.648" x="232.679" y="394.676"/></g></g><path d="M175.368,382.613h57.311h11.254l0.004-16.344l-0.004-0.008l0.004-14.094v-3.738   c-4.641,0-9.25,0-13.844-0.004c-35.695,0-68.689-0.004-79.074-0.004c-0.188,0-0.422,0-0.594-0.004   c-0.988,0.004-1.756,0.004-2.213,0c-0.33,0.004-0.557,0.004-0.557,0.004c-2.307-0.031-4.574-0.207-6.813-0.477   c-0.701-0.09-1.381-0.23-2.076-0.34c-1.533-0.242-3.059-0.508-4.555-0.855c-0.766-0.176-1.508-0.398-2.262-0.605   c-1.412-0.387-2.809-0.805-4.18-1.281c-0.711-0.258-1.41-0.523-2.109-0.797c-1.408-0.555-2.785-1.156-4.141-1.805   c-0.596-0.285-1.191-0.57-1.775-0.875c-1.49-0.773-2.934-1.609-4.35-2.496c-0.4-0.254-0.811-0.484-1.201-0.746   c-1.789-1.172-3.514-2.422-5.164-3.766c-0.004-0.004-0.01-0.008-0.014-0.008c-3.521-2.875-6.715-6.125-9.535-9.688   c0-0.004-0.004-0.004-0.004-0.004l-0.324,0.324l57.605,57.609H175.368z" fill="#4B89DA"/><path d="M507.819,301.887L333.452,127.518l-0.422,0.424l3.305,3.902l1.668,1.967   c0.02,0.016,0.035,0.033,0.051,0.047c8.125,6.459,15.203,14.176,20.914,22.877c0.117,0.172,0.211,0.355,0.324,0.531   c1.301,2.01,2.559,4.059,3.711,6.17c0.293,0.531,0.531,1.098,0.816,1.635c0.93,1.781,1.859,3.566,2.68,5.412   c0.516,1.145,0.93,2.334,1.398,3.498c0.516,1.291,1.078,2.557,1.539,3.873c0.883,2.516,1.668,5.076,2.348,7.678   c31.691,12.086,54.215,42.762,54.215,78.707c0,46.5-37.695,84.203-84.203,84.203c-0.008,0-0.148,0-0.414,0c-0.109,0-0.25,0-0.414,0   c-0.227,0-0.422,0-0.75,0c-7.086-0.004-37.5-0.008-72.156-0.008v34.18l11.266-0.004h81.438v12.066v12.063h-76.355h-5.082h-46.648   h-81.441l105.246,105.25C381.976,511.754,486.214,421.207,507.819,301.887z" fill="#4B89DA"/></g></svg>