<?xml version="1.0" encoding="UTF-8" standalone="no"?>
<!-- Created with Inkscape (http://www.inkscape.org/) -->

<svg
   xmlns:dc="http://purl.org/dc/elements/1.1/"
   xmlns:cc="http://creativecommons.org/ns#"
   xmlns:rdf="http://www.w3.org/1999/02/22-rdf-syntax-ns#"
   xmlns:svg="http://www.w3.org/2000/svg"
   xmlns="http://www.w3.org/2000/svg"
   xmlns:sodipodi="http://sodipodi.sourceforge.net/DTD/sodipodi-0.dtd"
   xmlns:inkscape="http://www.inkscape.org/namespaces/inkscape"
   id="svg2"
   version="1.1"
   inkscape:version="0.91 r"
   xml:space="preserve"
   width="390"
   height="318.10806"
   viewBox="0 0 390 318.10806"
   sodipodi:docname="rocket.svg"><metadata
     id="metadata8"><rdf:RDF><cc:Work
         rdf:about=""><dc:format>image/svg+xml</dc:format><dc:type
           rdf:resource="http://purl.org/dc/dcmitype/StillImage" /><dc:title /></cc:Work></rdf:RDF></metadata><defs
     id="defs6"><clipPath
       clipPathUnits="userSpaceOnUse"
       id="clipPath20"><path
         d="M 0,800 800,800 800,0 0,0 0,800 Z"
         id="path22"
         inkscape:connector-curvature="0" /></clipPath><clipPath
       clipPathUnits="userSpaceOnUse"
       id="clipPath152"><path
         d="M 0,800 800,800 800,0 0,0 0,800 Z"
         id="path154"
         inkscape:connector-curvature="0" /></clipPath><clipPath
       clipPathUnits="userSpaceOnUse"
       id="clipPath156"><path
         d="M 800,0 0,0 0,800 800,800 800,0 Z"
         id="path158"
         inkscape:connector-curvature="0" /></clipPath><radialGradient
       fx="0"
       fy="0"
       cx="0"
       cy="0"
       r="1"
       gradientUnits="userSpaceOnUse"
       gradientTransform="matrix(563.45984,0,0,-563.45984,400,400)"
       spreadMethod="pad"
       id="radialGradient164"><stop
         style="stop-opacity:0;stop-color:#ffffff"
         offset="0"
         id="stop166" /><stop
         style="stop-opacity:0;stop-color:#ffffff"
         offset="0.4888388"
         id="stop168" /><stop
         style="stop-opacity:0.29999237;stop-color:#ffffff"
         offset="1"
         id="stop170" /></radialGradient><mask
       maskUnits="userSpaceOnUse"
       x="0"
       y="0"
       width="1"
       height="1"
       id="mask172"><g
         id="g174"><g
           id="g176"><g
             id="g178"><g
               id="g180"><path
                 d="m -32768,32767 65535,0 0,-65535 -65535,0 0,65535 z"
                 style="fill:url(#radialGradient164);stroke:none"
                 id="path182"
                 inkscape:connector-curvature="0" /></g></g></g></g></mask><radialGradient
       fx="0"
       fy="0"
       cx="0"
       cy="0"
       r="1"
       gradientUnits="userSpaceOnUse"
       gradientTransform="matrix(563.45984,0,0,-563.45984,400,400)"
       spreadMethod="pad"
       id="radialGradient184"><stop
         style="stop-opacity:1;stop-color:#ffffff"
         offset="0"
         id="stop186" /><stop
         style="stop-opacity:1;stop-color:#ffffff"
         offset="0.4888388"
         id="stop188" /><stop
         style="stop-opacity:1;stop-color:#1d1e1c"
         offset="1"
         id="stop190" /></radialGradient><clipPath
       clipPathUnits="userSpaceOnUse"
       id="clipPath222"><path
         d="M 0,800 800,800 800,0 0,0 0,800 Z"
         id="path224"
         inkscape:connector-curvature="0" /></clipPath><clipPath
       clipPathUnits="userSpaceOnUse"
       id="clipPath364"><path
         d="m 599.879,617.7 c 1.907,-1.983 4.24,-3.463 6.788,-4.341 l 0,0 21.612,10.111 c 0.959,2.518 1.317,5.257 1.018,7.992 l 0,0 -29.418,-13.762 z"
         id="path366"
         inkscape:connector-curvature="0" /></clipPath><linearGradient
       x1="0"
       y1="0"
       x2="1"
       y2="0"
       gradientUnits="userSpaceOnUse"
       gradientTransform="matrix(29.418596,13.760941,13.760941,-29.418596,601.32129,614.61572)"
       spreadMethod="pad"
       id="linearGradient376"><stop
         style="stop-opacity:0;stop-color:#ffffff"
         offset="0"
         id="stop378" /><stop
         style="stop-opacity:1;stop-color:#ffffff"
         offset="1"
         id="stop380" /></linearGradient><mask
       maskUnits="userSpaceOnUse"
       x="0"
       y="0"
       width="1"
       height="1"
       id="mask382"><g
         id="g384"><g
           id="g386"><g
             id="g388"><g
               id="g390"><path
                 d="m -32768,32767 65535,0 0,-65535 -65535,0 0,65535 z"
                 style="fill:url(#linearGradient376);stroke:none"
                 id="path392"
                 inkscape:connector-curvature="0" /></g></g></g></g></mask><linearGradient
       x1="0"
       y1="0"
       x2="1"
       y2="0"
       gradientUnits="userSpaceOnUse"
       gradientTransform="matrix(29.418596,13.760941,13.760941,-29.418596,601.32129,614.61572)"
       spreadMethod="pad"
       id="linearGradient398"><stop
         style="stop-opacity:1;stop-color:#ffffff"
         offset="0"
         id="stop400" /><stop
         style="stop-opacity:1;stop-color:#ffffff"
         offset="1"
         id="stop402" /></linearGradient><clipPath
       clipPathUnits="userSpaceOnUse"
       id="clipPath410"><path
         d="m 595.376,626.542 c 0.257,-1.433 0.682,-2.858 1.33,-4.24 l 0,0 c 0.054,-0.118 0.125,-0.226 0.184,-0.341 l 0,0 31.053,14.527 c -0.053,0.12 -0.09,0.241 -0.147,0.359 l 0,0 c -0.646,1.382 -1.466,2.621 -2.401,3.739 l 0,0 -30.019,-14.044 z"
         id="path412"
         inkscape:connector-curvature="0" /></clipPath><linearGradient
       x1="0"
       y1="0"
       x2="1"
       y2="0"
       gradientUnits="userSpaceOnUse"
       gradientTransform="matrix(31.090878,14.543172,14.543172,-31.090878,595.85449,624.12158)"
       spreadMethod="pad"
       id="linearGradient422"><stop
         style="stop-opacity:0;stop-color:#ffffff"
         offset="0"
         id="stop424" /><stop
         style="stop-opacity:1;stop-color:#ffffff"
         offset="1"
         id="stop426" /></linearGradient><mask
       maskUnits="userSpaceOnUse"
       x="0"
       y="0"
       width="1"
       height="1"
       id="mask428"><g
         id="g430"><g
           id="g432"><g
             id="g434"><g
               id="g436"><path
                 d="m -32768,32767 65535,0 0,-65535 -65535,0 0,65535 z"
                 style="fill:url(#linearGradient422);stroke:none"
                 id="path438"
                 inkscape:connector-curvature="0" /></g></g></g></g></mask><linearGradient
       x1="0"
       y1="0"
       x2="1"
       y2="0"
       gradientUnits="userSpaceOnUse"
       gradientTransform="matrix(31.090878,14.543172,14.543172,-31.090878,595.85449,624.12158)"
       spreadMethod="pad"
       id="linearGradient444"><stop
         style="stop-opacity:1;stop-color:#ffffff"
         offset="0"
         id="stop446" /><stop
         style="stop-opacity:1;stop-color:#ffffff"
         offset="1"
         id="stop448" /></linearGradient><clipPath
       clipPathUnits="userSpaceOnUse"
       id="clipPath456"><path
         d="M 0,800 800,800 800,0 0,0 0,800 Z"
         id="path458"
         inkscape:connector-curvature="0" /></clipPath></defs><sodipodi:namedview
     pagecolor="#ffffff"
     bordercolor="#666666"
     borderopacity="1"
     objecttolerance="10"
     gridtolerance="10"
     guidetolerance="10"
     inkscape:pageopacity="0"
     inkscape:pageshadow="2"
     inkscape:window-width="1920"
     inkscape:window-height="1123"
     id="namedview4"
     showgrid="false"
     fit-margin-top="0"
     fit-margin-left="90"
     fit-margin-right="0"
     fit-margin-bottom="0"
     inkscape:zoom="1.888"
     inkscape:cx="170.46021"
     inkscape:cy="137.93929"
     inkscape:window-x="0"
     inkscape:window-y="25"
     inkscape:window-maximized="1"
     inkscape:current-layer="g10" /><g
     id="g10"
     inkscape:groupmode="layer"
     inkscape:label="02"
     transform="matrix(1.25,0,0,-1.25,-260,658.70378)"><g
       id="g4661"
       transform="matrix(0.41144178,0,0,0.41144178,235.42329,235.25837)"><g
         id="g16" /><g
         transform="translate(384.0479,90.458)"
         id="g210"><path
           inkscape:connector-curvature="0"
           id="path212"
           style="fill:#666666;fill-opacity:1;fill-rule:nonzero;stroke:none"
           d="m 0,0 -132.632,0 16.076,119.771 100.479,0 L 0,0 Z" /></g><g
         transform="translate(378.8682,129.042)"
         id="g214"><path
           inkscape:connector-curvature="0"
           id="path216"
           style="fill:#4d4d4d;fill-opacity:1;fill-rule:nonzero;stroke:none"
           d="m 0,0 -10.897,81.187 -100.479,0 L -122.273,0 0,0 Z" /></g><g
         id="g218"><g
           clip-path="url(#clipPath222)"
           id="g220"><g
             transform="translate(527.1387,175.6631)"
             id="g226"><path
               inkscape:connector-curvature="0"
               id="path228"
               style="fill:#333333;fill-opacity:1;fill-rule:nonzero;stroke:none"
               d="m 0,0 c 0,-4.438 -3.6,-8.038 -8.038,-8.038 l -402.72,0 c -4.439,0 -8.038,3.6 -8.038,8.038 l 0,290.987 c 0,4.439 3.599,8.038 8.038,8.038 l 402.72,0 C -3.6,299.025 0,295.426 0,290.987 L 0,0 Z" /></g><g
             transform="translate(108.3428,222.2852)"
             id="g230"><path
               inkscape:connector-curvature="0"
               id="path232"
               style="fill:#666666;fill-opacity:1;fill-rule:nonzero;stroke:none"
               d="m 0,0 0,-46.622 c 0,-4.439 3.599,-8.038 8.038,-8.038 l 402.72,0 c 4.438,0 8.038,3.599 8.038,8.038 L 418.796,0 0,0 Z" /></g><path
             inkscape:connector-curvature="0"
             id="path234"
             style="fill:#03a9f4;fill-opacity:1;fill-rule:nonzero;stroke:none"
             d="m 507.847,222.285 -380.212,0 0,237.13 380.212,0 0,-237.13 z" /><g
             transform="translate(400.7544,97.6924)"
             id="g236"><path
               inkscape:connector-curvature="0"
               id="path238"
               style="fill:#4d4d4d;fill-opacity:1;fill-rule:nonzero;stroke:none"
               d="m 0,0 -166.045,0 c -3.996,0 -7.235,-3.24 -7.235,-7.234 l 180.515,0 C 7.235,-3.24 3.996,0 0,0" /></g><g
             transform="translate(267.7114,303.2588)"
             id="g240"><path
               inkscape:connector-curvature="0"
               id="path242"
               style="fill:#f1f1f1;fill-opacity:1;fill-rule:nonzero;stroke:none"
               d="m 0,0 c -0.618,3.222 -2.097,6.153 -4.193,8.59 3.099,2.557 5.73,5.607 7.757,9.027 1.473,-1.863 3.152,-3.569 4.996,-5.1 C 7.643,9.689 7.146,6.687 7.146,3.574 7.146,3.044 7.202,2.525 7.23,2.003 4.711,1.59 2.284,0.928 0,0 m 238.115,-20.548 c 0.119,1.11 0.181,2.235 0.181,3.373 0,18.095 -15.466,32.763 -34.546,32.763 -11.399,0 -21.477,-5.257 -27.769,-13.33 -1.455,0.564 -3.004,0.95 -4.616,1.149 -1.887,19.326 -19.025,34.46 -39.896,34.46 -9.309,0 -17.877,-3.011 -24.679,-8.06 -5.397,9.356 -15.871,15.703 -27.91,15.703 -4.481,0 -8.742,-0.884 -12.608,-2.469 -2.758,15.77 -17.2,27.798 -34.61,27.798 -1.442,0 -2.86,-0.092 -4.255,-0.252 -0.219,14.921 -13.034,26.955 -28.82,26.955 -11.326,0 -21.121,-6.196 -25.836,-15.208 -0.968,0.187 -1.969,0.286 -2.995,0.286 -8.289,0 -15.009,-6.374 -15.009,-14.236 0,-1.399 0.221,-2.745 0.617,-4.022 -8.106,-4.1 -14.355,-11.06 -17.257,-19.462 -1.807,0.395 -3.685,0.61 -5.617,0.61 -12.317,0 -22.542,-8.468 -24.574,-19.598 -15.28,-6.342 -25.959,-20.799 -25.959,-37.627 0,-1.203 0.065,-2.389 0.172,-3.567 -16.364,-9.155 -27.35,-26.036 -27.35,-45.36 0,-7.201 1.529,-14.062 4.288,-20.312 l 382.316,0 c 7.876,7.332 12.767,17.539 12.767,28.832 0,12.782 -6.267,24.17 -16.035,31.574" /></g><g
             transform="translate(524.1006,541.4243)"
             id="g244"><path
               inkscape:connector-curvature="0"
               id="path246"
               style="fill:none;stroke:#f1f1f1;stroke-width:45;stroke-linecap:butt;stroke-linejoin:miter;stroke-miterlimit:10;stroke-dasharray:none;stroke-opacity:1"
               d="m 0,0 -56.984,-56.984 c -93.301,-93.301 -290.93,-77.976 -154.93,-224.824" /></g><g
             transform="translate(156.0845,222.3047)"
             id="g248"><path
               inkscape:connector-curvature="0"
               id="path250"
               style="fill:#e5e5e5;fill-opacity:1;fill-rule:nonzero;stroke:none"
               d="m 0,0 c -5.947,5.838 -9.64,13.965 -9.64,22.957 0,10.177 4.731,19.243 12.108,25.139 -0.09,0.883 -0.137,1.778 -0.137,2.685 0,14.408 11.679,26.086 26.086,26.086 8.606,0 16.216,-4.185 20.966,-10.613 1.1,0.449 2.269,0.757 3.488,0.915 1.423,15.389 14.364,27.437 30.124,27.437 14.053,0 25.866,-9.581 29.27,-22.565 1.077,0.188 2.179,0.305 3.31,0.305 5.001,0 9.539,-1.936 12.948,-5.077 0,0.01 -0.002,0.021 -0.002,0.034 0,13.349 10.823,24.173 24.174,24.173 13.35,0 24.173,-10.824 24.173,-24.173 0,-0.423 -0.041,-0.835 -0.063,-1.253 1.902,-0.328 3.735,-0.855 5.46,-1.593 1.282,7.056 7.446,12.41 14.873,12.41 5.224,0 9.831,-2.647 12.549,-6.676 5.45,10.475 16.393,17.632 29.015,17.632 18.057,0 32.696,-14.638 32.696,-32.694 0,-0.959 -0.05,-1.903 -0.131,-2.84 12.357,-7.291 20.651,-20.731 20.651,-36.115 0,-5.735 -1.153,-11.197 -3.237,-16.174 L 0,0 Z" /></g><g
             transform="translate(524.1006,541.4243)"
             id="g252"><path
               inkscape:connector-curvature="0"
               id="path254"
               style="fill:none;stroke:#e5e5e5;stroke-width:34;stroke-linecap:butt;stroke-linejoin:miter;stroke-miterlimit:10;stroke-dasharray:none;stroke-opacity:1"
               d="m 0,0 -56.984,-56.984 c -93.301,-93.301 -290.93,-77.976 -154.93,-224.824" /></g><g
             transform="translate(524.1006,541.4243)"
             id="g256"><path
               inkscape:connector-curvature="0"
               id="path258"
               style="fill:none;stroke:#f1f1f1;stroke-width:19;stroke-linecap:butt;stroke-linejoin:miter;stroke-miterlimit:10;stroke-dasharray:none;stroke-opacity:1"
               d="m 0,0 -56.984,-56.984 c -93.301,-93.301 -290.93,-77.976 -154.93,-224.824" /></g><g
             transform="translate(524.5049,510.3477)"
             id="g260"><path
               inkscape:connector-curvature="0"
               id="path262"
               style="fill:#f6921e;fill-opacity:1;fill-rule:nonzero;stroke:none"
               d="M 0,0 -13.295,18.186 -31.48,31.48 c 0,0 -25.909,-24.055 -25.909,-57.388 C -24.056,-25.908 0,0 0,0" /></g><g
             transform="translate(520.7422,515.4951)"
             id="g264"><path
               inkscape:connector-curvature="0"
               id="path266"
               style="fill:#faaf3b;fill-opacity:1;fill-rule:nonzero;stroke:none"
               d="m 0,0 -9.532,13.039 -13.039,9.532 c 0,0 -18.576,-17.247 -18.576,-41.148 C -17.247,-18.577 0,0 0,0" /></g><g
             transform="translate(517.6816,519.6807)"
             id="g268"><path
               inkscape:connector-curvature="0"
               id="path270"
               style="fill:#fbed21;fill-opacity:1;fill-rule:nonzero;stroke:none"
               d="m 0,0 -6.472,8.853 -8.852,6.471 c 0,0 -12.613,-11.709 -12.613,-27.936 C -11.71,-12.612 0,0 0,0" /></g><g
             transform="translate(536.8242,607.4102)"
             id="g272"><path
               inkscape:connector-curvature="0"
               id="path274"
               style="fill:#9c2024;fill-opacity:1;fill-rule:nonzero;stroke:none"
               d="m 0,0 c 0,0 -12.949,6.129 -29.717,-10.638 -16.768,-16.768 -50.303,-50.303 -50.303,-50.303 0,0 27.944,20.231 44.915,3.26 C -18.135,-74.652 0,0 0,0" /></g><g
             transform="translate(590.085,554.1484)"
             id="g276"><path
               inkscape:connector-curvature="0"
               id="path278"
               style="fill:#9c2024;fill-opacity:1;fill-rule:nonzero;stroke:none"
               d="m 0,0 c 0,0 6.131,-12.951 -10.638,-29.718 -16.767,-16.767 -50.301,-50.303 -50.301,-50.303 0,0 20.231,27.944 3.259,44.915 C -74.65,-18.136 0,0 0,0" /></g><g
             transform="translate(524.5049,510.3477)"
             id="g280"><path
               inkscape:connector-curvature="0"
               id="path282"
               style="fill:#e5e5e5;fill-opacity:1;fill-rule:nonzero;stroke:none"
               d="M 0,0 -31.48,31.48 -14.885,48.076 16.596,16.596 0,0 Z" /></g><g
             transform="translate(493.877,540.9756)"
             id="g284"><path
               inkscape:connector-curvature="0"
               id="path286"
               style="fill:#cbcbcb;fill-opacity:1;fill-rule:nonzero;stroke:none"
               d="M 0,0 -0.853,0.853 15.743,17.448 16.596,16.596 0,0 Z" /></g><g
             transform="translate(496.2324,538.6191)"
             id="g288"><path
               inkscape:connector-curvature="0"
               id="path290"
               style="fill:#cbcbcb;fill-opacity:1;fill-rule:nonzero;stroke:none"
               d="M 0,0 -0.853,0.853 15.743,17.448 16.597,16.595 0,0 Z" /></g><g
             transform="translate(498.5889,536.2632)"
             id="g292"><path
               inkscape:connector-curvature="0"
               id="path294"
               style="fill:#cbcbcb;fill-opacity:1;fill-rule:nonzero;stroke:none"
               d="M 0,0 -0.853,0.853 15.742,17.448 16.596,16.596 0,0 Z" /></g><g
             transform="translate(500.9443,533.9077)"
             id="g296"><path
               inkscape:connector-curvature="0"
               id="path298"
               style="fill:#cbcbcb;fill-opacity:1;fill-rule:nonzero;stroke:none"
               d="M 0,0 -0.853,0.853 15.743,17.449 16.596,16.595 0,0 Z" /></g><g
             transform="translate(503.3008,531.5518)"
             id="g300"><path
               inkscape:connector-curvature="0"
               id="path302"
               style="fill:#cbcbcb;fill-opacity:1;fill-rule:nonzero;stroke:none"
               d="M 0,0 -0.853,0.853 15.743,17.448 16.596,16.596 0,0 Z" /></g><g
             transform="translate(505.6572,529.1953)"
             id="g304"><path
               inkscape:connector-curvature="0"
               id="path306"
               style="fill:#cbcbcb;fill-opacity:1;fill-rule:nonzero;stroke:none"
               d="M 0,0 -0.854,0.854 15.742,17.449 16.596,16.596 0,0 Z" /></g><g
             transform="translate(508.0127,526.8394)"
             id="g308"><path
               inkscape:connector-curvature="0"
               id="path310"
               style="fill:#cbcbcb;fill-opacity:1;fill-rule:nonzero;stroke:none"
               d="M 0,0 -0.853,0.853 15.743,17.448 16.596,16.596 0,0 Z" /></g><g
             transform="translate(510.3691,524.4839)"
             id="g312"><path
               inkscape:connector-curvature="0"
               id="path314"
               style="fill:#cbcbcb;fill-opacity:1;fill-rule:nonzero;stroke:none"
               d="M 0,0 -0.853,0.853 15.742,17.448 16.595,16.595 0,0 Z" /></g><g
             transform="translate(512.7246,522.1274)"
             id="g316"><path
               inkscape:connector-curvature="0"
               id="path318"
               style="fill:#cbcbcb;fill-opacity:1;fill-rule:nonzero;stroke:none"
               d="M 0,0 -0.854,0.853 15.743,17.449 16.596,16.595 0,0 Z" /></g><g
             transform="translate(515.0801,519.7715)"
             id="g320"><path
               inkscape:connector-curvature="0"
               id="path322"
               style="fill:#cbcbcb;fill-opacity:1;fill-rule:nonzero;stroke:none"
               d="M 0,0 -0.853,0.854 15.743,17.449 16.596,16.596 0,0 Z" /></g><g
             transform="translate(517.4365,517.4155)"
             id="g324"><path
               inkscape:connector-curvature="0"
               id="path326"
               style="fill:#cbcbcb;fill-opacity:1;fill-rule:nonzero;stroke:none"
               d="M 0,0 -0.853,0.853 15.743,17.448 16.596,16.596 0,0 Z" /></g><g
             transform="translate(519.793,515.0601)"
             id="g328"><path
               inkscape:connector-curvature="0"
               id="path330"
               style="fill:#cbcbcb;fill-opacity:1;fill-rule:nonzero;stroke:none"
               d="M 0,0 -0.854,0.853 15.742,17.449 16.595,16.595 0,0 Z" /></g><g
             transform="translate(522.1484,512.7041)"
             id="g332"><path
               inkscape:connector-curvature="0"
               id="path334"
               style="fill:#cbcbcb;fill-opacity:1;fill-rule:nonzero;stroke:none"
               d="M 0,0 -0.853,0.853 15.743,17.448 16.596,16.596 0,0 Z" /></g><g
             transform="translate(524.5049,510.3477)"
             id="g336"><path
               inkscape:connector-curvature="0"
               id="path338"
               style="fill:#cbcbcb;fill-opacity:1;fill-rule:nonzero;stroke:none"
               d="M 0,0 -0.854,0.853 15.742,17.448 16.596,16.596 0,0 Z" /></g><g
             transform="translate(532.3066,514.2144)"
             id="g340"><path
               inkscape:connector-curvature="0"
               id="path342"
               style="fill:#ffffff;fill-opacity:1;fill-rule:nonzero;stroke:none"
               d="m 0,0 c 24.046,11.896 54.941,35.056 85.178,65.291 54.108,54.108 85.591,110.352 70.319,125.623 C 140.228,206.185 83.983,174.701 29.874,120.593 -0.36,90.358 -23.52,59.462 -35.416,35.416 L 0,0 Z" /></g><g
             transform="translate(567.6035,536.2744)"
             id="g344"><path
               inkscape:connector-curvature="0"
               id="path346"
               style="fill:#c0272d;fill-opacity:1;fill-rule:nonzero;stroke:none"
               d="m 0,0 c 7.308,5.373 14.842,11.349 22.481,17.874 0,0 -3.626,-2.848 -29.867,23.393 -26.241,26.24 -23.393,29.869 -23.393,29.869 -6.525,-7.641 -12.502,-15.176 -17.873,-22.482 0,0 -2.716,-3.762 21.088,-27.565 C -3.762,-2.714 0,0 0,0" /></g><g
             transform="translate(662.957,632.4707)"
             id="g348"><path
               inkscape:connector-curvature="0"
               id="path350"
               style="fill:#c0272d;fill-opacity:1;fill-rule:nonzero;stroke:none"
               d="m 0,0 c 24.355,33.938 35.052,62.452 24.847,72.657 -10.205,10.206 -38.719,-0.491 -72.658,-24.848 0,0 5.227,-15.456 18.79,-29.02 C -15.458,5.226 0,0 0,0" /></g><g
             transform="translate(627.5957,614.2314)"
             id="g352"><path
               inkscape:connector-curvature="0"
               id="path354"
               style="fill:#9c2024;fill-opacity:1;fill-rule:nonzero;stroke:none"
               d="m 0,0 c -8.476,-8.474 -22.214,-8.474 -30.687,0 -8.475,8.474 -8.475,22.213 0,30.687 8.473,8.473 22.211,8.473 30.687,0 C 8.473,22.213 8.473,8.474 0,0" /></g><g
             transform="translate(619.5244,614.0298)"
             id="g356"><path
               inkscape:connector-curvature="0"
               id="path358"
               style="fill:#f1f1f1;fill-opacity:1;fill-rule:nonzero;stroke:none"
               d="m 0,0 c -8.587,-4.017 -18.801,-0.312 -22.818,8.272 -4.017,8.586 -0.313,18.802 8.272,22.818 C -5.96,35.107 4.256,31.403 8.271,22.817 12.288,14.233 8.586,4.016 0,0" /></g></g></g><g
         id="g360"><g
           clip-path="url(#clipPath364)"
           id="g362"><g
             id="g368"><g
               id="g370" /><g
               mask="url(#mask382)"
               id="g394"><g
                 id="g396"><path
                   inkscape:connector-curvature="0"
                   id="path404"
                   style="fill:url(#linearGradient398);stroke:none"
                   d="m 599.879,617.7 c 1.907,-1.983 4.24,-3.463 6.788,-4.341 l 0,0 21.612,10.111 c 0.959,2.518 1.317,5.257 1.018,7.992 l 0,0 -29.418,-13.762 z" /></g></g></g></g></g><g
         id="g406"><g
           clip-path="url(#clipPath410)"
           id="g408"><g
             id="g414"><g
               id="g416" /><g
               mask="url(#mask428)"
               id="g440"><g
                 id="g442"><path
                   inkscape:connector-curvature="0"
                   id="path450"
                   style="fill:url(#linearGradient444);stroke:none"
                   d="m 595.376,626.542 c 0.257,-1.433 0.682,-2.858 1.33,-4.24 l 0,0 c 0.054,-0.118 0.125,-0.226 0.184,-0.341 l 0,0 31.053,14.527 c -0.053,0.12 -0.09,0.241 -0.147,0.359 l 0,0 c -0.646,1.382 -1.466,2.621 -2.401,3.739 l 0,0 -30.019,-14.044 z" /></g></g></g></g></g><g
         id="g452"><g
           clip-path="url(#clipPath456)"
           id="g454"><g
             transform="translate(627.0283,642.4111)"
             id="g460"><path
               inkscape:connector-curvature="0"
               id="path462"
               style="fill:#c0272d;fill-opacity:1;fill-rule:nonzero;stroke:none"
               d="m 0,0 c -0.535,-0.535 -1.405,-0.535 -1.94,0 -0.536,0.536 -0.536,1.405 0,1.941 C -1.405,2.477 -0.535,2.477 0,1.94 0.535,1.405 0.535,0.536 0,0" /></g><g
             transform="translate(618.6309,648.0811)"
             id="g464"><path
               inkscape:connector-curvature="0"
               id="path466"
               style="fill:#c0272d;fill-opacity:1;fill-rule:nonzero;stroke:none"
               d="m 0,0 c -0.198,-0.731 -0.948,-1.167 -1.682,-0.97 -0.731,0.196 -1.166,0.949 -0.97,1.68 0.196,0.732 0.95,1.167 1.681,0.971 C -0.239,1.484 0.196,0.732 0,0" /></g><g
             transform="translate(608.5234,648.791)"
             id="g468"><path
               inkscape:connector-curvature="0"
               id="path470"
               style="fill:#c0272d;fill-opacity:1;fill-rule:nonzero;stroke:none"
               d="m 0,0 c 0.194,-0.731 -0.239,-1.484 -0.973,-1.68 -0.731,-0.196 -1.483,0.24 -1.68,0.97 -0.196,0.732 0.238,1.484 0.971,1.682 C -0.948,1.167 -0.196,0.732 0,0" /></g><g
             transform="translate(599.4141,644.3516)"
             id="g472"><path
               inkscape:connector-curvature="0"
               id="path474"
               style="fill:#c0272d;fill-opacity:1;fill-rule:nonzero;stroke:none"
               d="m 0,0 c 0.534,-0.534 0.535,-1.403 0,-1.939 -0.537,-0.536 -1.406,-0.535 -1.943,0.001 -0.533,0.534 -0.535,1.404 0.001,1.94 C -1.405,0.538 -0.534,0.537 0,0" /></g><g
             transform="translate(593.7461,635.9546)"
             id="g476"><path
               inkscape:connector-curvature="0"
               id="path478"
               style="fill:#c0272d;fill-opacity:1;fill-rule:nonzero;stroke:none"
               d="M 0,0 C 0.729,-0.197 1.165,-0.948 0.968,-1.681 0.772,-2.413 0.02,-2.846 -0.713,-2.651 -1.442,-2.455 -1.877,-1.703 -1.685,-0.969 -1.484,-0.238 -0.732,0.197 0,0" /></g><g
             transform="translate(593.0352,625.8481)"
             id="g480"><path
               inkscape:connector-curvature="0"
               id="path482"
               style="fill:#c0272d;fill-opacity:1;fill-rule:nonzero;stroke:none"
               d="M 0,0 C 0.73,0.194 1.483,-0.238 1.68,-0.972 1.876,-1.704 1.441,-2.457 0.708,-2.652 -0.021,-2.848 -0.773,-2.414 -0.974,-1.683 -1.168,-0.948 -0.733,-0.196 0,0" /></g><g
             transform="translate(597.4736,616.7397)"
             id="g484"><path
               inkscape:connector-curvature="0"
               id="path486"
               style="fill:#c0272d;fill-opacity:1;fill-rule:nonzero;stroke:none"
               d="M 0,0 C 0.535,0.533 1.403,0.535 1.94,-0.001 2.476,-0.537 2.475,-1.406 1.937,-1.942 1.405,-2.476 0.535,-2.478 -0.003,-1.943 -0.537,-1.405 -0.54,-0.536 0,0" /></g><g
             transform="translate(605.8701,611.0713)"
             id="g488"><path
               inkscape:connector-curvature="0"
               id="path490"
               style="fill:#c0272d;fill-opacity:1;fill-rule:nonzero;stroke:none"
               d="M 0,0 C 0.197,0.729 0.949,1.164 1.681,0.969 2.414,0.772 2.848,0.021 2.649,-0.713 2.455,-1.442 1.703,-1.878 0.97,-1.684 0.238,-1.487 -0.198,-0.735 0,0" /></g><g
             transform="translate(615.9775,610.3608)"
             id="g492"><path
               inkscape:connector-curvature="0"
               id="path494"
               style="fill:#c0272d;fill-opacity:1;fill-rule:nonzero;stroke:none"
               d="M 0,0 C -0.191,0.729 0.238,1.483 0.97,1.679 1.703,1.875 2.455,1.44 2.651,0.708 2.847,-0.022 2.414,-0.776 1.682,-0.974 0.948,-1.169 0.194,-0.735 0,0" /></g><g
             transform="translate(625.0859,614.7979)"
             id="g496"><path
               inkscape:connector-curvature="0"
               id="path498"
               style="fill:#c0272d;fill-opacity:1;fill-rule:nonzero;stroke:none"
               d="M 0,0 C -0.531,0.536 -0.533,1.404 0,1.941 0.537,2.477 1.404,2.476 1.942,1.939 2.475,1.406 2.478,0.536 1.942,-0.002 1.405,-0.537 0.534,-0.537 0,0" /></g><g
             transform="translate(630.7539,623.1953)"
             id="g500"><path
               inkscape:connector-curvature="0"
               id="path502"
               style="fill:#c0272d;fill-opacity:1;fill-rule:nonzero;stroke:none"
               d="M 0,0 C -0.729,0.198 -1.165,0.949 -0.97,1.682 -0.771,2.413 -0.019,2.847 0.715,2.65 1.443,2.455 1.879,1.704 1.685,0.97 1.487,0.238 0.731,-0.196 0,0" /></g><g
             transform="translate(631.4648,633.3022)"
             id="g504"><path
               inkscape:connector-curvature="0"
               id="path506"
               style="fill:#c0272d;fill-opacity:1;fill-rule:nonzero;stroke:none"
               d="m 0,0 c -0.729,-0.192 -1.483,0.24 -1.681,0.971 -0.195,0.733 0.242,1.484 0.975,1.68 C 0.022,2.846 0.776,2.414 0.976,1.681 1.168,0.949 0.733,0.195 0,0" /></g><g
             transform="translate(527.3682,538.1567)"
             id="g508"><path
               inkscape:connector-curvature="0"
               id="path510"
               style="fill:#9c2024;fill-opacity:1;fill-rule:nonzero;stroke:none"
               d="m 0,0 c -17.19,-17.19 -32.589,-29.663 -34.394,-27.858 -1.804,1.805 10.668,17.203 27.859,34.393 17.19,17.191 32.589,29.663 34.392,27.859 C 29.663,32.589 17.19,17.19 0,0" /></g><g
             transform="translate(413.6436,222.3047)"
             id="g512"><path
               inkscape:connector-curvature="0"
               id="path514"
               style="fill:#f1f1f1;fill-opacity:1;fill-rule:nonzero;stroke:none"
               d="m 0,0 c 4.691,4.605 7.604,11.015 7.604,18.107 0,8.028 -3.732,15.179 -9.55,19.83 0.07,0.697 0.107,1.403 0.107,2.119 0,11.363 -9.211,20.576 -20.576,20.576 -6.789,0 -12.791,-3.302 -16.538,-8.372 -0.867,0.354 -1.79,0.596 -2.75,0.721 -1.123,12.138 -11.33,21.642 -23.761,21.642 -11.085,0 -20.402,-7.557 -23.088,-17.8 -0.85,0.149 -1.719,0.241 -2.611,0.241 -3.945,0 -7.525,-1.526 -10.213,-4.004 0,0.008 0.001,0.017 0.001,0.026 0,10.531 -8.536,19.067 -19.067,19.067 -10.531,0 -19.067,-8.536 -19.067,-19.067 0,-0.333 0.032,-0.658 0.05,-0.987 -1.501,-0.259 -2.946,-0.674 -4.307,-1.257 -1.011,5.565 -5.874,9.79 -11.732,9.79 -4.121,0 -7.753,-2.089 -9.898,-5.266 -4.299,8.261 -12.93,13.906 -22.886,13.906 -14.243,0 -25.79,-11.545 -25.79,-25.788 0,-0.755 0.04,-1.501 0.103,-2.24 -9.746,-5.75 -16.289,-16.352 -16.289,-28.487 0,-4.523 0.91,-8.831 2.554,-12.757 L 0,0 Z" /></g></g></g></g></g></svg>
