<?xml version="1.0" ?><!DOCTYPE svg  PUBLIC '-//W3C//DTD SVG 1.0//EN'  'http://www.w3.org/TR/2001/REC-SVG-20010904/DTD/svg10.dtd'><svg height="22mm" style="shape-rendering:geometricPrecision; text-rendering:geometricPrecision; image-rendering:optimizeQuality; fill-rule:evenodd; clip-rule:evenodd" version="1.0" viewBox="0 0 4610 4610" width="22mm" xml:space="preserve" xmlns="http://www.w3.org/2000/svg" xmlns:xlink="http://www.w3.org/1999/xlink"><defs><style type="text/css">
   <![CDATA[
    .fil5 {fill:#EBECEC}
    .fil6 {fill:#004F59}
    .fil3 {fill:#D14747}
    .fil2 {fill:#E84F4F}
    .fil1 {fill:#F5BE18}
    .fil4 {fill:#F7F7F8}
    .fil0 {fill:#FFD630}
    .fil7 {fill:gray;fill-rule:nonzero}
   ]]>
  </style></defs><g id="Copy_x0020_of_x0020_Copy_x0020_of_x0020_circles"><circle class="fil0" cx="2305" cy="2305" r="2305"/></g><g id="icons"><path class="fil1" d="M4609 2344l-1053 -1053 -2516 1450 114 125 -320 473 1261 1261c69,6 140,10 211,10 1260,0 2283,-1011 2304,-2265z"/><g id="_520377784"><path class="fil2" d="M1149 1252l2312 0c74,0 134,60 134,134l0 1278c0,74 -60,134 -134,134l-2312 0c-74,0 -134,-60 -134,-134l0 -1278c0,-74 60,-134 134,-134z"/><path class="fil3" d="M3556 1291c24,24 39,58 39,95l0 1278c0,74 -60,134 -134,134l-2312 0c-45,0 -85,-22 -109,-57l2516 -1450z"/><path class="fil4" d="M1141 1352l2328 0 0 1345 -2328 0 0 -1345z"/><path class="fil3" d="M1004 2848l1295 0 11 0 1295 0c34,0 231,289 264,329 21,25 8,44 -25,43l-1540 -4 -1540 4c-33,0 -46,-18 -25,-43 33,-40 230,-329 264,-329z"/><path class="fil2" d="M1004 2848c-34,0 -231,289 -264,329 -21,25 -8,44 25,43l1540 -4 1540 4c23,0 36,-9 35,-22l-2876 -350z"/><path class="fil3" d="M871 3356c-33,0 -133,-91 -139,-136l-2 -19c1038,0 2112,0 3150,0l-2 19c-5,45 -95,136 -128,136 -962,3 -1917,3 -2879,0z"/><path class="fil5" d="M2056 3072l137 0 259 0 137 0 43 111 -180 0 -259 0 -180 0 43 -111z"/><path class="fil6" d="M1600 2798l169 0 0 50 -169 0 0 -50zm1240 0l169 0 0 50 -169 0 0 -50z"/></g><path class="fil7" d="M1380 2285l0 -518 105 0 0 204 204 0 0 -204 105 0 0 518 -105 0 0 -226 -204 0 0 226 -105 0zm639 0l0 -430 -153 0 0 -88 411 0 0 88 -153 0 0 430 -105 0zm324 0l0 -518 157 0 93 353 92 -353 157 0 0 518 -97 0 0 -408 -102 408 -101 0 -102 -408 0 408 -97 0zm607 0l0 -514 105 0 0 426 260 0 0 88 -365 0z"/></g></svg>